<svg width="64" height="64" viewBox="0 0 64 64" fill="none" xmlns="http://www.w3.org/2000/svg">
<path d="M32 52C32 52 12 40.5 12 26.5C12 19.6 17.4 14 24 14C27.6 14 30.6 15.9 32 18.7C33.4 15.9 36.4 14 40 14C46.6 14 52 19.6 52 26.5C52 40.5 32 52 32 52Z" fill="#C1DBF6"/>
<path d="M32 18.7C33.4 15.9 36.4 14 40 14C46.6 14 52 19.6 52 26.5C52 40.5 32 52 32 52V18.7Z" fill="#FBDBD0"/>
<path d="M32 52C32 52 12 40.5 12 26.5C12 19.6 17.4 14 24 14C27.6 14 30.6 15.9 32 18.7C33.4 15.9 36.4 14 40 14C46.6 14 52 19.6 52 26.5C52 40.5 32 52 32 52Z" stroke="#374874" stroke-width="2.5" stroke-linejoin="round"/>
</svg>
