<svg id="Capa_1" enable-background="new 0 0 512 512" height="512" viewBox="0 0 512 512" width="512" xmlns="http://www.w3.org/2000/svg"><g><path d="m368.081 468.996h-319.857c-7.603 0-13.766-6.163-13.766-13.766v-441.464c0-7.603 6.163-13.766 13.766-13.766h319.858c7.603 0 13.766 6.163 13.766 13.766v441.465c-.001 7.602-6.164 13.765-13.767 13.765z" fill="#f2fbff"/><path d="m368.081 0h-39.757c7.603 0 13.766 6.163 13.766 13.766v441.465c0 7.603-6.163 13.766-13.766 13.766h39.757c7.603 0 13.766-6.163 13.766-13.766v-441.465c0-7.603-6.163-13.766-13.766-13.766z" fill="#dff6fd"/><g><g><path d="m301.513 448.695h-239.028c-4.267 0-7.726-3.459-7.726-7.726s3.459-7.726 7.726-7.726h239.028c4.267 0 7.726 3.459 7.726 7.726s-3.459 7.726-7.726 7.726z" fill="#8ebac5"/></g><g><path d="m349.811 290.81c0 4.265-3.461 7.726-7.726 7.726h-279.602c-4.265 0-7.726-3.462-7.726-7.726 0-4.265 3.461-7.726 7.726-7.726h279.601c4.266-.001 7.727 3.461 7.727 7.726z" fill="#8ebac5"/></g></g><path d="m360.628 290.81c0 4.265-3.461 7.726-7.726 7.726h-10.817v-15.453h10.817c4.265 0 7.726 3.462 7.726 7.727z" fill="#7ca1b1"/><path d="m346.525 332.79v67.868c0 2.452-1.988 4.44-4.44 4.44h-188.791c-2.452 0-4.44-1.988-4.44-4.44v-67.868c0-2.452 1.988-4.44 4.44-4.44h188.791c2.452 0 4.44 1.988 4.44 4.44z" fill="#dff6fd"/><path d="m352.211 332.79v67.868c0 2.452-1.988 4.44-4.44 4.44h-5.687v-76.748h5.687c2.452 0 4.44 1.988 4.44 4.44z" fill="#c8effe"/><path d="m462.181 431.666c0 44.367-35.967 80.334-80.334 80.334s-80.334-35.967-80.334-80.334c0-36.048 24.663-66.812 57.365-76.983l25.098 2.058c-.001 0 78.205 30.558 78.205 74.925z" fill="#fee97d"/><path d="m381.847 351.332c-7.984 0-15.69 1.182-22.969 3.351 33.171 9.884 57.365 40.601 57.365 76.983 0 36.383-24.193 67.1-57.365 76.983 7.28 2.169 14.985 3.351 22.969 3.351 44.367 0 80.334-35.967 80.334-80.334s-35.967-80.334-80.334-80.334z" fill="#fee45a"/><g><path d="m389.576 371.916c-2.534-.33-5.11-.494-7.726-.494-33.223 0-60.245 27.022-60.245 60.245s27.022 60.245 60.245 60.245c2.617 0 5.192-.165 7.726-.494 29.135-10.531 45.668-29.144 45.668-59.75s-14.796-46.206-45.668-59.752zm17.75 96.569c-7.232 5.027-16.019 7.974-25.476 7.974-24.704 0-44.792-20.089-44.792-44.792 0-24.704 20.089-44.792 44.792-44.792 9.457 0 18.245 2.946 25.476 7.974 12.255 4.242 23.567 21.572 23.567 36.819s-11.022 32.684-23.567 36.817z" fill="#fff8bf"/></g><path d="m442.095 431.667c0 30.607-22.942 55.949-52.519 59.75 7.222-6.47 13.248-14.237 17.75-22.932 11.662-8.087 19.316-21.572 19.316-36.819s-7.654-28.732-19.316-36.819c-4.502-8.695-10.529-16.462-17.75-22.932 29.577 3.802 52.519 29.145 52.519 59.752z" fill="#fcf2a9"/><g><path d="m376.577 445.003c-1.977 0-3.955-.755-5.463-2.263-3.018-3.017-3.018-7.909 0-10.927l11.22-11.22c3.017-3.018 7.909-3.017 10.927-.001 3.018 3.017 3.018 7.909 0 10.927l-11.22 11.22c-1.509 1.51-3.486 2.264-5.464 2.264z" fill="#fff8bf"/></g><path d="m99.106 359.086c-5.571-1.969-11.719-4.337-15.079-6.973-.576-.453-.989-1.815-.663-3.543.158-.841.892-3.65 3.68-4.489 5.974-1.802 9.775 1.199 10.188 1.548l.938.661c3.15 2.22 7.458 1.762 10.072-1.071 3.248-3.522 2.544-9.175-1.53-11.697-3.028-1.875-6.051-3.339-9.146-4.27v-1.703c0-4.268-3.459-7.726-7.726-7.726s-7.726 3.459-7.726 7.726v1.896c-7.157 2.351-12.477 8.532-13.934 16.262-1.379 7.316 1.04 14.43 6.313 18.564 5.105 4.004 12.373 6.876 19.466 9.383 5.128 1.813 5.282 5.721 4.917 7.89-.621 3.694-3.728 7.686-9.084 7.721-5.902.042-7.437-.203-11.826-3.075-3.827-2.503-9.053-1.176-11.159 3.043-1.784 3.575-.35 7.922 3.007 10.089 4.643 2.997 8.216 4.383 12.301 4.983v1.589c0 4.268 3.459 7.726 7.726 7.726s7.726-3.459 7.726-7.726v-2.41c9.262-3.043 15.184-11.262 16.548-19.377 1.869-11.132-4.162-21.187-15.009-25.021z" fill="#fee45a"/><g><g><path d="m345.556 178.19c0 2.689-1.38 5.069-3.472 6.449-1.216.804-2.678 1.277-4.255 1.277h-188.965c-4.275 0-7.726-3.462-7.726-7.726 0-4.265 3.451-7.726 7.726-7.726h188.966c1.576 0 3.039.474 4.255 1.277 2.091 1.381 3.471 3.761 3.471 6.449z" fill="#8ebac5"/></g><g><path d="m314.532 224.288h-165.672c-4.267 0-7.726-3.459-7.726-7.726s3.459-7.726 7.726-7.726h165.673c4.267 0 7.726 3.459 7.726 7.726s-3.459 7.726-7.727 7.726z" fill="#8ebac5"/></g><g><path d="m300.586 262.661h-151.726c-4.267 0-7.726-3.459-7.726-7.726 0-4.268 3.459-7.726 7.726-7.726h151.726c4.267 0 7.726 3.459 7.726 7.726s-3.459 7.726-7.726 7.726z" fill="#8ebac5"/></g><g><path d="m349.811 140.651c0 4.265-3.461 7.726-7.726 7.726h-280.519c-4.265 0-7.726-3.462-7.726-7.726 0-4.275 3.461-7.726 7.726-7.726h280.518c4.266-.001 7.727 3.45 7.727 7.726z" fill="#8ebac5"/></g></g><path d="m345.556 178.19c0 2.689-1.38 5.069-3.472 6.449v-12.898c2.092 1.381 3.472 3.761 3.472 6.449z" fill="#7ca1b1"/><path d="m353.355 140.651c0 4.265-3.461 7.726-7.726 7.726h-3.544v-15.453h3.544c4.264 0 7.726 3.451 7.726 7.727z" fill="#7ca1b1"/><g fill="#fe99a0"><path d="m252.713 25.637c-.025 0-.051 0-.076 0-4.267.041-7.692 3.534-7.651 7.801l.522 53.952-40.241-58.271c-1.922-2.783-5.43-3.99-8.657-2.986-3.228 1.006-5.427 3.995-5.427 7.376v77.672c0 4.268 3.459 7.726 7.726 7.726s7.726-3.459 7.726-7.726v-52.887l38.435 55.656c2.35 3.393 6.235 4.845 9.905 3.702 3.76-1.175 6.19-4.744 6.189-9.168l-.727-75.195c-.041-4.243-3.492-7.652-7.724-7.652z"/><path d="m158.698 25.637c-4.267 0-7.726 3.459-7.726 7.726v77.818c0 4.268 3.459 7.726 7.726 7.726s7.726-3.459 7.726-7.726v-77.818c.001-4.267-3.458-7.726-7.726-7.726z"/><path d="m121.535 25.637h-31.308c-4.267 0-7.726 3.459-7.726 7.726v77.247c0 4.268 3.459 7.726 7.726 7.726s7.726-3.459 7.726-7.726v-31.628h21.095c4.267 0 7.726-3.459 7.726-7.726 0-4.268-3.459-7.726-7.726-7.726h-21.095v-22.44h23.582c4.267 0 7.726-3.459 7.726-7.726s-3.459-7.727-7.726-7.727z"/><path d="m326.078 102.743h-24.763v-23.1h22.368c4.267 0 7.726-3.459 7.726-7.726 0-4.268-3.459-7.726-7.726-7.726h-22.368v-23.101h24.763c4.267 0 7.726-3.459 7.726-7.726s-3.459-7.726-7.726-7.726h-32.489c-4.267 0-7.726 3.459-7.726 7.726v77.107c0 4.268 3.459 7.726 7.726 7.726h32.489c4.267 0 7.726-3.459 7.726-7.726s-3.459-7.728-7.726-7.728z"/></g><g><path d="m422.008 262.661h-121.422c-11.298 0-18.201-12.411-12.241-22.009l72.952-117.49 95.935 117.49c5.959 9.598-23.926 22.009-35.224 22.009z" fill="#fee97d"/><path d="m475.351 240.652-81.262-130.874c-5.636-9.077-18.845-9.077-24.482 0l-8.311 13.384 72.952 117.49c5.96 9.598-.943 22.009-12.241 22.009h41.103c11.299 0 18.201-12.411 12.241-22.009z" fill="#fee45a"/><g><path d="m390.177 169.681v29.417c0 4.42-3.579 7.988-7.988 7.988s-7.988-3.568-7.988-7.988v-47.299c0-1.896.66-3.621 1.768-4.995l7.104.571c0-.001 7.076 21.492 7.104 22.306z" fill="#fe99a0"/></g><path d="m390.177 151.798v17.882l-14.208-22.878c1.459-1.821 3.706-2.993 6.22-2.993 4.409.001 7.988 3.58 7.988 7.989z" fill="#fd8087"/><circle cx="382.189" cy="230.186" fill="#fe99a0" r="7.988"/></g><g fill="#7ca1b1"><circle cx="89.838" cy="178.189" r="7.726"/><circle cx="89.838" cy="216.561" r="7.726"/><circle cx="89.838" cy="254.934" r="7.726"/></g></g></svg>