<svg height="512" viewBox="0 0 64 64" width="512" xmlns="http://www.w3.org/2000/svg"><g id="Icons"><g><g><g><g><g><path d="m40 4h-32c-2.209 0-4 1.791-4 4v32c0 2.209 1.791 4 4 4h32c2.209 0 4-1.791 4-4v-32c0-2.209-1.791-4-4-4z" fill="#c80a50"/></g></g></g></g><g><g><g><g><path d="m8 8h32v32h-32z" fill="#0a5078"/></g></g></g></g><g><g><g><g><path d="m40 7h-32c-.552 0-1 .448-1 1v32c0 .552.448 1 1 1h7c.552 0 1-.448 1-1s-.448-1-1-1h-6v-30h8v10h-3c-.552 0-1 .448-1 1s.448 1 1 1h8c.552 0 1-.448 1-1s-.448-1-1-1h-3v-10h8v18c0 .552.448 1 1 1s1-.448 1-1v-18h10v30h-10v-6c0-.552-.448-1-1-1s-1 .448-1 1v6h-6c-.552 0-1 .448-1 1s.448 1 1 1h19c.552 0 1-.448 1-1v-32c0-.552-.448-1-1-1z" fill="#fab400"/></g></g></g></g><path d="m50.707 7.293-2-2c-.391-.391-1.023-.391-1.414 0l-2 2c-.391.391-.391 1.023 0 1.414s1.023.391 1.414 0l.293-.293v38.586h-38.586l.293-.293c.391-.391.391-1.023 0-1.414s-1.023-.391-1.414 0l-2 2c-.391.391-.391 1.023 0 1.414l2 2c.195.195.451.293.707.293s.512-.098.707-.293c.391-.391.391-1.023 0-1.414l-.293-.293h39.586c.552 0 1-.448 1-1v-39.586l.293.293c.195.195.451.293.707.293s.512-.098.707-.293c.391-.391.391-1.023 0-1.414z" fill="#00a0c8"/><g><g><g><g><path d="m48 35c-.338 0-.669.025-1 .051v11.949h-11.949c-.026.331-.051.662-.051 1s.025.669.051 1h12.949c.552 0 1-.448 1-1v-12.949c-.331-.026-.662-.051-1-.051z" fill="#0082aa"/></g></g></g></g><g><g><g><g><circle cx="48" cy="48" fill="#0a5078" r="12"/></g></g></g></g><g fill="#f0f0f0"><path d="m46 45c-.768 0-1.469.29-2 .766-.531-.476-1.232-.766-2-.766-1.654 0-3 1.346-3 3v4c0 .552.448 1 1 1s1-.448 1-1v-4c0-.551.449-1 1-1s1 .449 1 1v4c0 .552.448 1 1 1s1-.448 1-1v-4c0-.551.449-1 1-1s1 .449 1 1v4c0 .552.448 1 1 1s1-.448 1-1v-4c0-1.654-1.346-3-3-3z"/><path d="m53.553 46.342 2.342-1.171c.681-.341 1.105-1.026 1.105-1.789v-.382c0-1.103-.897-2-2-2h-3c-.552 0-1 .448-1 1s.448 1 1 1h3v.382l-2.342 1.171c-1.023.511-1.658 1.54-1.658 2.683v.764c0 .552.448 1 1 1h4c.552 0 1-.448 1-1s-.448-1-1-1h-2.972c.068-.283.256-.524.525-.658z"/></g></g></g></svg>