<svg height="512" viewBox="0 0 512 512" width="512" xmlns="http://www.w3.org/2000/svg"><g id="flat"><path d="m24 144h464a0 0 0 0 1 0 0v296a24 24 0 0 1 -24 24h-416a24 24 0 0 1 -24-24v-296a0 0 0 0 1 0 0z" fill="#ebebeb"/><path d="m120 224h80v152h-80z" fill="#fbb540"/><path d="m120 312h80v64h-80z" fill="#ea9d2d"/><path d="m48 80h416a24 24 0 0 1 24 24v40a0 0 0 0 1 0 0h-464a0 0 0 0 1 0 0v-40a24 24 0 0 1 24-24z" fill="#009cf7"/><rect fill="#cbcbcb" height="64" rx="16" width="32" x="240" y="48"/><rect fill="#cbcbcb" height="64" rx="16" width="32" x="112" y="48"/><rect fill="#cbcbcb" height="64" rx="16" width="32" x="368" y="48"/><path d="m72 224h48v152h-48z" fill="#d18d28"/><path d="m160 336a16 16 0 0 1 16 16v24a0 0 0 0 1 0 0h-32a0 0 0 0 1 0 0v-24a16 16 0 0 1 16-16z" fill="#f55648"/><path d="m168 288h-16a8 8 0 0 1 0-16h16a8 8 0 0 1 0 16z" fill="#ebebeb"/><path d="m168 264h-16a8 8 0 0 1 0-16h16a8 8 0 0 1 0 16z" fill="#ebebeb"/><path d="m112 192h64v32h-64z" fill="#ea9d2d"/><path d="m88 248h16v16h-16z" fill="#ebebeb"/><path d="m88 280h16v16h-16z" fill="#ebebeb"/><path d="m88 312h16v16h-16z" fill="#ebebeb"/><path d="m72 352h48v24h-48z" fill="#c38325"/><g fill="#accadc"><circle cx="272" cy="232" r="24"/><circle cx="352" cy="232" r="24"/><circle cx="432" cy="232" r="24"/><circle cx="272" cy="312" r="24"/><path d="m352 344a32.057 32.057 0 0 1 -30.178-21.334l15.086-5.332a16.01 16.01 0 0 0 30.184 0l15.086 5.332a32.057 32.057 0 0 1 -30.178 21.334z"/><circle cx="432" cy="312" r="24"/><circle cx="272" cy="392" r="24"/><circle cx="352" cy="392" r="24"/><circle cx="432" cy="392" r="24"/></g><path d="m320 168h72v16h-72z" fill="#cbcbcb"/><path d="m352 320a8 8 0 0 1 -5.657-2.343l-16-16a8 8 0 0 1 11.314-11.314l9.806 9.805 34.391-41.269a8 8 0 0 1 12.292 10.242l-40 48a8 8 0 0 1 -5.784 2.871c-.121.008-.242.008-.362.008z" fill="#007af6"/><path d="m104 400h16v16h-16z" fill="#cbcbcb"/><path d="m136 400h16v16h-16z" fill="#cbcbcb"/><path d="m168 400h16v16h-16z" fill="#cbcbcb"/><path d="m112 192h8v32h-8z" fill="#c38325"/></g></svg>