<svg id="Flat" viewBox="0 0 64 64" xmlns="http://www.w3.org/2000/svg"><path d="m37 15h26v48h-26z" fill="#c0e8ff" transform="matrix(-1 0 0 -1 100 78)"/><path d="m1 53 16-4v-48l-16 4z" fill="#c0e8ff"/><g fill="#818da6"><rect height="1.5" rx=".75" transform="matrix(.97 -.243 .243 .97 -1.672 2.422)" width="4.593" x="6.704" y="7.25"/><rect height="1.5" rx=".75" transform="matrix(.97 -.243 .243 .97 -3.127 2.601)" width="9.746" x="4.127" y="13.25"/><rect height="1.5" rx=".75" transform="matrix(.97 -.243 .243 .97 -4.097 2.72)" width="9.746" x="4.127" y="17.25"/><rect height="1.5" rx=".75" transform="matrix(.97 -.243 .243 .97 -5.067 2.84)" width="9.746" x="4.127" y="21.25"/><rect height="1.5" rx=".75" transform="matrix(.97 -.243 .243 .97 -6.037 2.959)" width="9.746" x="4.127" y="25.25"/><rect height="1.5" rx=".75" transform="matrix(.97 -.243 .243 .97 -7.007 3.079)" width="9.746" x="4.127" y="29.25"/><rect height="1.5" rx=".75" transform="matrix(.97 -.243 .243 .97 -7.977 3.198)" width="9.746" x="4.127" y="33.25"/><rect height="1.5" rx=".75" transform="matrix(.97 -.243 .243 .97 -10.736 3.291)" width="7.685" x="4.158" y="44.5"/></g><path d="m17 49 20 14v-48l-20-14z" fill="#b4dcff"/><path d="m33.5 17.55-13-9.1v13l13 9.1z" fill="#ff8679"/><path d="m20.5 32.45 13 9.1v-6l-13-9.1z" fill="#ffeb67"/><path d="m20.5 46.45 13 9.1v-9l-13-9.1z" fill="#ff8679"/><path d="m41 41h18v6h-18z" fill="#ffeb67" transform="matrix(-1 0 0 -1 100 88)"/><path d="m52 51.75h-11a.75.75 0 0 1 0-1.5h11a.75.75 0 0 1 0 1.5z" fill="#818da6"/><path d="m52 55.75h-11a.75.75 0 0 1 0-1.5h11a.75.75 0 0 1 0 1.5z" fill="#818da6"/><path d="m52 59.75h-11a.75.75 0 0 1 0-1.5h11a.75.75 0 0 1 0 1.5z" fill="#818da6"/><path d="m59 51.75h-3a.75.75 0 0 1 0-1.5h3a.75.75 0 0 1 0 1.5z" fill="#818da6"/><path d="m59 55.75h-3a.75.75 0 0 1 0-1.5h3a.75.75 0 0 1 0 1.5z" fill="#818da6"/><path d="m59 59.75h-3a.75.75 0 0 1 0-1.5h3a.75.75 0 0 1 0 1.5z" fill="#818da6"/><path d="m57 37h-14v-9l7-6 7 6z" fill="#fff882"/><path d="m45 26.285v10.715h12v-9l-7-6z" fill="#ffeb67"/><path d="m51.5 37v-3.5a1.5 1.5 0 0 0 -1.5-1.5 1.5 1.5 0 0 0 -1.5 1.5v3.5" fill="#818da6"/><path d="m57.44 30.06-7.44-7.439-7.439 7.439a1.5 1.5 0 0 1 -2.121 0 1.5 1.5 0 0 1 0-2.121l8.5-8.5a1.5 1.5 0 0 1 2.121 0l8.5 8.5a1.5 1.5 0 0 1 0 2.121 1.5 1.5 0 0 1 -2.121 0z" fill="#ffa293"/><path d="m51.061 21.561a1.5 1.5 0 0 0 -2.121 0l-6.54 6.539a1.5 1.5 0 0 0 .139 1.96l.011.01.011-.01 7.439-7.439 7.44 7.439a1.5 1.5 0 0 0 2.121 0z" fill="#ff8679"/><rect fill="#bef078" height="1.5" rx=".75" width="18" x="41" y="36.25"/><circle cx="50" cy="28" fill="#818da6" r="1"/></svg>