<svg id="Layer_1" enable-background="new 0 0 512 512" height="512" viewBox="0 0 512 512" width="512" xmlns="http://www.w3.org/2000/svg"><g clip-rule="evenodd" fill-rule="evenodd"><path d="m177.042 120.64c4.418 0 8 3.582 8 8s-3.582 8-8 8h-58.551v106.202l2.621-3.863c2.468-3.641 7.421-4.593 11.062-2.125s4.593 7.421 2.125 11.062l-17.215 25.372c-2.468 3.641-7.421 4.593-11.062 2.125-.913-.618-1.657-1.393-2.22-2.265l-17.12-25.232c-2.468-3.641-1.517-8.595 2.125-11.062 3.641-2.468 8.595-1.516 11.062 2.125l2.621 3.864v-114.204c0-4.418 3.582-8 8-8h66.552zm55.807 289.77c-4.418 0-8-3.582-8-8s3.582-8 8-8h78.111l-3.863-2.621c-3.641-2.468-4.593-7.421-2.125-11.062s7.421-4.593 11.062-2.125l25.372 17.215c3.641 2.468 4.593 7.421 2.125 11.062-.618.913-1.394 1.656-2.265 2.22l-25.232 17.12c-3.641 2.468-8.595 1.516-11.062-2.125-2.468-3.641-1.517-8.595 2.125-11.062l3.864-2.621h-78.112z" fill="#a79ba7"/><g><path d="m312.318 67.462h49.715c4.4 0 8-3.6 8-8v-35.462c0-4.4-3.6-8-8-8h-49.715c-4.4 0-8 3.6-8 8v35.462c0 4.4 3.6 8 8 8z" fill="#8d9ca8"/><path d="m354.837 67.462h7.196c4.4 0 8-3.6 8-8v-35.462c0-4.4-3.6-8-8-8h-7.196c4.4 0 8 3.6 8 8v35.462c0 4.4-3.6 8-8 8z" fill="#8192a5"/><path d="m222.224 103.029h229.361c4.4 0 8 3.6 8 8v123.43c0 4.4-3.599 8-8 8h-229.361c-4.4 0-8-3.6-8-8v-123.43c0-4.4 3.599-8 8-8z" fill="#9facba"/><path d="m264.181 103.029h145.446v139.43h-145.446z" fill="#8d9ca8"/><path d="m252.202 132.158v16h-16v-16zm0 65.171v16h-16v-16zm0-32.585v16h-16v-16z" fill="#d8ecfe"/><path d="m437.605 132.158v16h-16v-16zm0 65.171v16h-16v-16zm0-32.585v16h-16v-16z" fill="#d8ecfe"/><path d="m282.18 40.887h109.447c4.4 0 8 3.6 8 8v193.572h-125.446v-193.572c0-4.401 3.599-8 7.999-8z" fill="#8192a5"/><path d="m296.319 59.462h16v16h-16zm0 87.217h16v16h-16zm65.17 0h16v16h-16zm-32.585 0h16v16h-16zm-32.585-29.073h16v16h-16zm65.17 0h16v16h-16zm-32.585 0h16v16h-16zm-32.585-29.072h16v16h-16zm65.17 0h16v16h-16zm-32.585 0h16v16h-16zm32.585-29.072h16v16h-16zm-32.585 0h16v16h-16z" fill="#d8ecfe"/><path d="m310.009 242.458h55.592v-54.829c0-4.4-3.6-8-8-8h-39.592c-4.4 0-8 3.6-8 8z" fill="#eceff1"/><path d="m310.009 242.458h7.806v-54.829c0-4.4 3.6-8 8-8h-7.806c-4.4 0-8 3.6-8 8z" fill="#d1d1d6"/></g><g><path d="m344.629 496h141.08c2.994 0 5.57-1.263 7.404-3.629s2.415-5.176 1.669-8.074c-9.125-35.457-41.309-61.657-79.614-61.657s-70.489 26.2-79.614 61.658c-.746 2.9-.165 5.708 1.669 8.074 1.835 2.365 4.412 3.628 7.406 3.628z" fill="#8ac9fe"/><path d="m485.709 496c2.994 0 5.571-1.263 7.405-3.629s2.415-5.176 1.669-8.074c-9.126-35.457-41.309-61.657-79.614-61.657-3.168 0-6.294.183-9.369.532 34.101 3.87 61.874 28.602 70.245 61.125.746 2.899.165 5.708-1.669 8.074s-4.411 3.629-7.405 3.629z" fill="#60b7ff"/><path d="m415.17 329.51c22.955 0 41.564 18.609 41.564 41.564s-18.609 41.564-41.564 41.564-41.564-18.609-41.564-41.564c-.001-22.955 18.608-41.564 41.564-41.564z" fill="#f6dccd"/><path d="m415.169 329.51c22.955 0 41.564 18.609 41.564 41.564s-18.609 41.564-41.564 41.564c-1.978 0-3.922-.141-5.826-.409 20.196-2.833 35.738-20.178 35.738-41.155 0-20.978-15.542-38.322-35.738-41.156 1.904-.267 3.849-.408 5.826-.408z" fill="#f1cbbc"/></g><g><circle cx="110.491" cy="402.41" fill="#837683" r="93.59"/><path d="m187.442 402.41c0 19.145-5.748 36.947-15.613 51.775-3.807 5.722-8.227 11.002-13.167 15.744-14.943 14.347-34.639 23.782-56.491 25.706 2.741.242 5.516.365 8.32.365 4.548 0 9.019-.324 13.393-.951.565-.081 1.128-.167 1.689-.258 44.518-7.212 78.508-45.827 78.508-92.381 0-51.688-41.901-93.59-93.59-93.59-2.804 0-5.579.123-8.319.365 47.791 4.209 85.27 44.34 85.27 93.225z" fill="#685e68"/><path d="m110.491 411.436c-33.714 0-61.469 25.545-64.984 58.325 16.834 16.246 39.742 26.239 64.984 26.239 4.548 0 9.019-.325 13.393-.951 19.905-2.853 37.786-11.971 51.586-25.29-3.509-32.788-31.26-58.323-64.979-58.323z" fill="#8ac9fe"/><path d="m102.173 411.96c38.904 4.944 54.581 34.381 58.186 69.658 5.441-3.434 10.504-7.412 15.112-11.859-3.509-32.787-31.261-58.323-64.979-58.323-2.819-.001-5.595.178-8.319.524z" fill="#60b7ff"/><circle cx="110.492" cy="373.451" fill="#f6dccd" r="33.045"/><path d="m135.217 373.451c0 16.841-12.598 30.739-28.885 32.785 1.362.171 2.751.259 4.16.259 18.25 0 33.045-14.794 33.045-33.044s-14.795-33.044-33.045-33.044c-1.409 0-2.797.088-4.16.259 16.287 2.045 28.885 15.944 28.885 32.785z" fill="#f1cbbc"/></g></g></svg>