<svg id="Layer_1" enable-background="new 0 0 68 68" height="512" viewBox="0 0 68 68" width="512" xmlns="http://www.w3.org/2000/svg"><g id="_x35_2"><g><g><g><g><g><g><path d="m36.8 57.7c7.5-14.7 11.6-31.2 11.7-48 0-2.6-1.6-4.6-3.6-4.4-6.8.5-13.5 1-20.3 1.5-1.9.2-3.3 1.9-3.1 3.8 1.1 12.6-.8 25.5-5.6 37.6-.5 1.3.2 2.9 1.6 3.7 5 2.5 10.1 5 15.1 7.5 1.5.6 3.4 0 4.2-1.7z" fill="#50b069"/></g><g><path d="m45.6 9c-7.1.3-14.2.5-21.3.8 1.1 13.4-1.1 27.1-6.4 39.8 5.4 2.5 10.9 5.1 16.3 7.6 7.6-14.8 11.5-31.3 11.4-48.2z" fill="#78e75a"/></g><g><path d="m20.1 48.7c.2-1.4.6-2.7 1.1-4 .2-.6.5-1.3.7-1.9.3-.6.6-1.3.9-1.9-.1.7-.2 1.4-.4 2.1s-.4 1.4-.6 2c-.4 1.4-.9 2.6-1.7 3.7z" fill="#50b069"/></g><g><g><path d="m26 46.6c.5-1.4 2.1-2.2 3.6-1.7s2.2 2.2 1.6 3.7-2.2 2.2-3.6 1.6c-1.5-.6-2.1-2.2-1.6-3.6z" fill="#50b069"/></g><g><path d="m30.9 41c-5.5-1.8-9.1-6-8.5-9.7.7-3.8 5.8-6.4 11.9-5.7 6 .7 10.3 5.4 9 10.3-1.2 4.7-7 6.9-12.4 5.1z" fill="#50b069"/></g><g><path d="m36.4 28.8c.6.2 1.3.5 1.9.8s1.2.7 1.9 1.1c-.8-1.4-2.1-2.3-3.5-2.8s-3-.6-4.4-.1c.7.1 1.4.3 2.1.4.7.2 1.4.4 2 .6z" fill="#50b069"/></g><g><path d="m31.8 17.5c.1-1.9 1.5-3.4 3.2-3.4s3.1 1.7 3 3.7-1.7 3.5-3.3 3.3c-1.7-.1-2.9-1.7-2.9-3.6z" fill="#50b069"/></g></g></g><g><g><path d="m32.6 53.9c.7-1.5 1.4-3 2-4.5.5.2 1.1.4 1.6.6-.6 1.5-1.3 3.1-2 4.6-.6-.2-1.1-.5-1.6-.7z" fill="#50b069"/></g><g><path d="m26.1 17.8c0-1.8 0-3.6-.1-5.4h2c.1 1.9.1 3.7 0 5.6-.6-.1-1.3-.1-1.9-.2z" fill="#50b069"/></g></g></g><g><path d="m31.6 36.4c.4-.2.7-.4.9-.8.2-.3.4-.7.7-1.2.8.2 1.5.3 2.3.5-.2.5-.4 1-.6 1.4-.5.8.5 1.5 1 .7.3-.5.6-1.1.9-1.9.2 0 .4.1.6.1.7.2.9-1 .3-1.1-.2 0-.4-.1-.6-.1.4-3.1-2.5-4.3-4-2.2-.2.3-.4.7-.7 1.1-.7-.2-1.5-.3-2.2-.5.2-.6.4-1.1.7-1.6.4-.6-.2-1.3-.8-1-.1.1-.2.1-.3.3-.4.6-.7 1.3-.9 2.1-.6-.1-.8-.2-1-.1-.3.2-.3.8.2.9.2 0 .4.1.6.1-.2 1.4.3 2.8 1.6 3.1.5.4.9.4 1.3.2zm.2-2.3c-.2.4-.4.7-.6.9s-.4.2-.6.2c-.6-.1-.9-.6-.8-1.5.8.1 1.4.2 2 .4zm3.9-.3c-.7-.1-1.3-.3-2-.4.2-.4.4-.6.6-.8.4-.5 1.4-.3 1.4 1.2z" fill="#78e75a"/></g></g><g><g><g><g><path d="m34.9 56.7c1.2-16.5-1.5-33.2-7.9-48.8-1-2.4-3.3-3.6-5-2.7-6 3.1-12.1 6.2-18.1 9.3-1.7.9-2.3 3-1.4 4.7 5.8 11.2 9.1 23.8 9.4 36.8 0 1.4 1.3 2.6 2.9 2.7 5.6.3 11.2.7 16.9 1 1.6.2 3.1-1.2 3.2-3z" fill="#5ec363"/></g><g><path d="m24.1 8.4c-6.4 3-12.9 6-19.3 9 6.2 12 9.5 25.4 9.6 39.1 6 .2 12 .4 18 .6 1.1-16.5-1.7-33.2-8.3-48.7z" fill="#78e75a"/></g><g><path d="m16 54.9c-.3-1.4-.4-2.7-.5-4.1 0-.7-.1-1.4-.1-2.1s0-1.4.1-2.1c.2.7.4 1.4.5 2.1s.2 1.4.2 2.1c.1 1.4.1 2.8-.2 4.1z" fill="#fff"/></g><g><g><path d="m20.6 50.7c-.1-1.5 1.1-2.8 2.7-2.9 1.5-.1 2.9 1.1 2.9 2.8 0 1.6-1.2 2.9-2.7 2.9-1.6-.1-2.8-1.3-2.9-2.8z" fill="#5ec363"/></g><g><path d="m22.9 43.6c-5.7.5-10.8-2-11.6-5.6-.9-3.7 2.9-8.1 8.7-9.9 5.8-1.7 11.6 1 12.3 6 .8 4.8-3.7 9-9.4 9.5z" fill="#5ec363"/></g><g><path d="m23.3 30.2h2.1c.7.1 1.4.2 2.1.3-1.2-1-2.8-1.3-4.3-1.3-1.5.1-3 .6-4.1 1.6.7-.2 1.4-.3 2.1-.4s1.4-.2 2.1-.2z" fill="#fff"/></g><g><path d="m14.7 21.6c-.7-1.8 0-3.7 1.6-4.4s3.5.3 4.2 2.3c.7 1.9-.2 3.9-1.8 4.4-1.6.4-3.4-.6-4-2.3z" fill="#5ec363"/></g></g></g><g><g><path d="m29.5 54.8c.1-1.6.1-3.3.1-4.9.6 0 1.1 0 1.7-.1 0 1.7 0 3.3-.1 5-.5 0-1.1 0-1.7 0z" fill="#5ec363"/></g><g><path d="m9.5 24.1c-.7-1.7-1.4-3.3-2.2-5 .6-.3 1.2-.5 1.8-.8.8 1.7 1.5 3.4 2.2 5.1-.6.3-1.2.5-1.8.7z" fill="#5ec363"/></g></g></g><g><path d="m22.5 36.6c.8-.1 1.5-.3 2.3-.4.1.5 0 1.1 0 1.5-.2.9 1.1 1.2 1.2.3.1-.6.1-1.3.1-2 .2 0 .4-.1.6-.1.5-.1.6-.8.2-1-.2-.2-.4-.1-1 0-.5-1.8-1.8-2.5-2.9-2.2-1.4.3-1.6 1.7-1.7 3.1-.7.1-1.5.3-2.2.4-.1-.6-.1-1.2.1-1.8 0-.1 0-.2 0-.3-.2-.7-1.2-.7-1.3 0s-.1 1.5 0 2.3c-.6.1-.8.1-1 .3-.1.2-.1.6.2.7.2.2.4.1 1 0 .4 1.4 1.4 2.4 2.7 2.2s1.6-1.5 1.7-3zm-1.4.3c0 .4-.1.8-.2 1s-.2.4-.5.4c-.6.1-1-.3-1.3-1.1.7-.1 1.4-.2 2-.3zm2.2-2.8c.6-.1 1 .4 1.3 1-.7.1-1.3.3-2 .4 0-.4.1-.7.2-1 0-.2.2-.3.5-.4z" fill="#78e75a"/></g></g></g><g><g><g><g><path d="m50.5 24-26.3 17.3c-1.9 1.2-2.4 3.8-1.2 5.6l9.2 14c1.2 1.9 3.8 2.4 5.6 1.2l26.3-17.3c1.9-1.2 2.4-3.8 1.2-5.6l-9.2-14c-1.2-1.9-3.7-2.4-5.6-1.2z" fill="#febc1f"/></g><g><path d="m49.9 24.4-26.3 17.3c-1.9 1.2-2.4 3.8-1.2 5.6l9.2 14c1.2 1.9 3.8 2.4 5.6 1.2l26.3-17.3c1.9-1.2 2.4-3.8 1.2-5.6l-9.2-14c-1.2-1.9-3.7-2.5-5.6-1.2z" fill="#ffd06c"/></g></g><g><g><path d="m63.5 40.4c0 .2-.2.5-.2.7 0 .8-.7 1.1-1.1 1.3-.1 0-.5-.3-.5-.3s0 0-.1.1c0-.1 0-.2 0-.3-.1.2-.2.3-.2.4-.9-.7-1 .4-2.4 1.7-.2.2-.3-.3-.5-.7-.5-.9-1-1 0-2.1.4-.4.1-.3.5-1.6 0 0 .5-.1.5-.2 0-.6-.1-.4.8-1.1.1.6.2.7 1 .6-.1-.4-.2-.7-.2-1.1.2.1.5.2.7.4.6.9 2 .1 1.7 2.2z" fill="#febc1f"/></g><g><g><path d="m55.4 25.4c-.9.3-.5.4-.9.6-3.1 1.7-3.5 1.5-3.6 1.9-.1.2-.8.6-.9.7-1 .1-2.2 1.3-2.3 1.3 0-.1 0-.2 0-.3-.1 0-.1 0-.1 0-.5.3-1.1.3-1.5.9s-1.1 1.1-1.1 1.2c.1.4-.2.4-.5.6 1.1.3.8.4.6.7-.1-.4 0-.4-.6-.5-.5-.1-.5-.1-.5.4.1 0 .3 0 .5.1-.7.2-.6.1-1.2.7-.3.3-.8.4-.8.9 0 0-.5 0-.6.1.1.1.2.2.3.2-.6 1-.6 1-.9.7.2-.1.4-.3.6-.4 0-.1 0-.1-.1-.2-1.9.6-2.1.5-2.6 1.5-.3.5-.2 1.2-.7 1.7-.2.2.1.4.3.5.3.1.3-.2.5-.4.2.1.5.2.8.4 0-.4.1-.7.1-1-.8-.2-.1-.6-.2-.8 0-.2.1-.3.4-.3-.1.2-.2.5 0 .7.2.3.4 0 .9-.4 0 0 .1.1.1.1-.1.1-.3.2-.5.3.1.1.1.2.2.3-.3.1-.3.2-.2.4.1.3-.6.8-.9.9-.5.2-.3.2-.6-.2-.4-.1-.4-.1-.1.3-.5.6-.4 1.4-1.2 1.9.1 0 .3-.1.3 0 1 .5.3.6-.2 1-.2.1-.1.1.3 1 .2 0 .3-.1.5-.1.3 0 .6-.5.6-.8 0-.2.1-.8.1-.9s.6-.8.7-.8c0 0 .8.1 1.4.2 0-.1 0-.2 0-.3-1-.2-1-.1-1.1-.3 0 0 .1-.1.1-.1.4.1.9-.1 1.2.2.3.2.5.2.8 0-.4-.4-.2-.3.4-.8-.5-.1-.3-.5-.3-.8s.1-.4.4-.3c.1 0 .1.1.2.1.1-.1.1-.2.2-.2-.1 0-.1 0-.2-.1.1-.1.2-.3.3-.4.1.2.1.3.2.3.8 0 .5 0 .9.1-.1.1-.1.2-.2.3-.3.3-.4-.2-1.5 1.2.5.7.9.2 1.7-.3.1.3.2.6.3.9-.6.4-.6.6-1.6.8-.6.1-.7.2-.6.5v.2c-.2.1-.4.2-.6.1-.4 0-1 .4-1.1-.3-1.8 1.2-1.1 1.2-2 1.7-.1.6-.3.7-.1 1.1.1.2-.2.7-.2.7 0 1.2 0 1 .2 1.4.6 1.2.4 1.1 1.5 1.4.2 0 1.1.3 1.3.1.4-.4.9-.6 1.2-1.1.1-.1.3-.2.4-.1.2.1.3 0 .5-.1.8-.2.2.7 1.6 1 .2 0 .9.6.9 1.1 0 .4.2.8.7 1 .2.1.8.7 1.1.9 1 .7 1.1.8 1.3.6s.7-.6.8-.8c.1-.5.4-1 .1-1.5 0-.1 0-.2 0-.2.2-.3.1-.5-.1-.6-.3-.2-.2-.5-.1-.8.3-.6.1-1.1-.4-1.4-.2-.2-.5-.4-.5-.6 0-1.5.7-2.2 0-3.5-.2.2-.4.4-.6.6-.3.4-.5-.2-1-.1-.4.1-.7-.2-1-.3s-.5-.3-.8-.5c-.2-.1-.5-.3-.7-.4.1-.1.1-.2.1-.3.4.1.8.2 1.1.4.5.4 1.3.4 1.7.9 0 .1.2.1.3 0 .3-.3.6-.6.7-1 .2-.5.5-.9.5-1.4-.1-.5-.3-.4-1-.4-.1.4-.1.4-.6.4-.3 0-.5-.1-.7-.2-.1 0-.1-.2-.2-.3.5-.2.2-.1.5 0 .8.2.7-.2 1.4-.3.3 0 .6-.3.9-.5.2-.1.8-.2 1 0s.4.1.5-.1c.7.5 1.4.9 2.1 1.4.2-.5.2-.5 0-.8-.2-.4-.4-.8-.2-1.3 0-.1 0-1 .7-1.3 1.3.8 1.2.7 1.4.2 1.6 1.5 1 1.1 2.2 1.7h.3v-.1c-.3-.2-.5-.4-.8-.4-.6-.1-.9-.3-1-.9.4.1.8.1 1.2.2 0-.1 0-.3.1-.4.3-.4.1-.6-.2-.7-.6-.4-1.3-.1-1-.8.1-.3.3-.2.4-.2.3-.6.4-.6.6-.9.3-.6 0-1.4-.8-1.6-.2 0-.4-.1-.6-.1.1-.2.1-.3.2-.5-.3.1-.6.4-.9.3 0-.2.1-.3.1-.5.1.1.2.1.3.1.3-.5.4-.2.7-.2.4.1.4.1.7.3.1-.1.2-.2.3-.4-.3-.1-1-.2-1-.4s-.3-.5.1-.7v-.1c.1-.6-.9-1.5-1.5-1.2-.2.1-.5.2-.6.3-.6-1.1.4-1.3 1.1-1.6l-.2-.4c.7-.3.6-.1.6-.6.5.4.2.7.7.9l-1.1-1.7c0-.2 0-.3-.1-.3z" fill="#febc1f"/></g><g><path d="m41.4 58.5c0-.3-.1-.3-.3-.3h-.1c0-.2-.1-.5-.1-.6-.1 0-.2 0-.3-.1.4-.2.2-.4.1-.5.6-.5.5-.7-.1-.9.2-.1.6-.1.5-.6-.1-.8.1-.9-.2-1.2-.4-.3.5-1 .5-1.2-.1-.4-.1-.8-.3-1.1-.5-.7.1-1.5-.5-1.8-.3-.1-.7-.1-1 0-.5.2-1 .2-1.4.3s-.7-.7-1.6-.3c-.3.1-.6.1-1 0-.8-.1-.3.1-.9.2-.3.1-.6.2-.9.3 0 0 0-.1 0-.2-.3.4-.6.7-.4 1.4-.2 0-.4-.4-.5-.6-.1-.4-.5-.1-.9.2-.1-.4-.1-.7-.2-1.1-.9.5.2.6-.8 1.1-.5.3-.9-.6-1-1.2-.1-.5.8-.9.9-1s.5-.9 1.1-.3c.1.1.2.2.3.2 0 0 .1-.1.1-.1-.1-.1-.1-.3-.2-.4-.3-.3-.3-.6-.1-.9.6-1.2.1-1 .2-1.2.1-.3.1-.7.4-1 0 0 .1-.1.1-.1-.1-.5.3-.8.6-1.1 0 .1 0 .2-.1.4.2-.3.3-.5.5-.7-.4.1-.5 0-.5-.5-.2.2-.3.4-.5.5.3-.9.9-.7 1.3-1.4s-.2-.2-.8-.9c-.1-.1-.1-.1-.2-.1-.3.4-.2.6-.6.3s-1.2.3-.8 1c.2.4-.3.7-.1 1.2 0 .1-.1.2-.1.3-.4-.2-.2-.2-.3-.4-.4.1-.7.1-1.1.2-.4-.5-.1-.7.8-2.1.3-.5.6-.3.5-1-.5 0-.3.5-.6.7-.2-.1-.4-.2-.6-.3-.4.2 0 .6-.2.8-.2.1-1.2.7-1.2.7-.6.8-1.2.3-2.3 1.3-1.3 1.3-2 .5-3.7 2.7.1.1.2.1.2.2-.1.1-.2.2-.3.2l.6.9c.7-.8.7-.8.8-.8.5-.1 1.2-.4 1.5.4 0 .2.2.3.4.5 0 0-.1.1-.2.2.4 0 .4.2.4.4v.7c-.1.6.4 1.4.7 1.4.4 0 .9.5 1 .8.3.1.5.2.8.3-.3-.3-.6-.5-.9-.7-.1-.1-.1-.2-.1-.3.1 0 .2 0 .3.1s.2.2.3.2c.3.1.6.3.9.4.2.1.5.5.6.5 1.6 0 1-.3 1.9-.4 1-.1 1.2-.3 1.4.1h.5c.5.3-.1 1.3.4 1.6 0 0 0 .1.1.2.4.6.5.3 1.6.9.6.3 1.2 0 1.6.3.7.7 1.7 2.4 2 2.6 1.9 1.2 2.3 1.8 2.6 1.3.3 0 .5-.1.7-.1v-.1c-.7.1-1.3.1-1.2-.4z" fill="#febc1f"/></g></g></g><g><path d="m59.1 38.3-26.4 17.4c-.5.3-.6.9-.3 1.4l2 3c.3.5.9.6 1.4.3l26.4-17.4c.5-.3.6-.9.3-1.4l-2-3c-.3-.5-.9-.6-1.4-.3z" fill="#4c5c75"/></g><g><path d="m48.7 48c-1.9.6-4.2 2.1-5.3 3.4.6-.2 4-2.2 5.3-3.4z" fill="#fff"/></g><g><g><path d="m35.8 60.4 26.4-17.4c.5-.3.6-.9.3-1.4l-2-3c-.3-.5-.9-.6-1.4-.3 0 0-1.8 6.9-24.8 21.7v.1c.4.5 1 .6 1.5.3z" fill="#1d2943"/></g></g></g><g><g><path d="m48.4 30.7-1.4.9c-1 .6-1.2 1.9-.6 2.9s1.9 1.2 2.9.6l1.4-.9c1-.6 1.2-1.9.6-2.9s-1.9-1.3-2.9-.6z" fill="#f34b58"/></g><g><path d="m50.8 29.1-1.3.9c-1 .6-1.2 1.9-.6 2.9s1.9 1.2 2.9.6l1.4-.9c1-.6 1.2-1.9.6-2.9-.7-1-2-1.3-3-.6z" fill="#5094ff"/></g></g><g><path d="m33.8 46.2-4.3 2.8c-.4.3-.9.1-1.1-.2l-1.8-2.8c-.3-.4-.1-.9.2-1.1l4.3-2.8c.4-.3.9-.1 1.1.2l1.8 2.8c.3.3.2.8-.2 1.1z" fill="#fff"/></g><g><g><path d="m29.6 49 4.3-2.8c.4-.3.5-.8.2-1.2l-1.8-2.8c-.2-.4-.7-.5-1-.3.2 1.1.2 4-2.5 7 .2.2.5.3.8.1z" fill="#e9e7fc"/></g></g></g></g><g><path d="m51.2 29.5c.7-.3 1.5-.1 2.1.4-.3-.8-1.5-1-2.1-.4z" fill="#fff"/></g></g></svg>