<svg id="Layer_1" viewBox="0 0 512 512" xmlns="http://www.w3.org/2000/svg" data-name="Layer 1"><path d="m368.839 138.59v222.233h-296.848v-222.233h-50.634c-4.828 0-8.907-3.166-10.104-7.843-1.198-4.677.858-9.414 5.092-11.733l190.963-104.629c8.409-4.607 17.806-4.607 26.215 0l190.963 104.629c4.234 2.319 6.29 7.056 5.092 11.733-1.197 4.677-5.276 7.843-10.104 7.843h-50.634z" fill="#d19458" fill-rule="evenodd"/><path d="m346.184 360.823h-274.193v-222.233h-50.634c-4.828 0-8.907-3.166-10.104-7.843-1.198-4.678.858-9.414 5.092-11.734l187.551-102.759 187.552 102.759c4.234 2.319 6.289 7.056 5.092 11.734-1.197 4.677-5.276 7.843-10.104 7.843h-40.251v222.233z" fill="#e6b17c" fill-rule="evenodd"/><path d="m110.707 191.785h74.061v128.309h-74.061z" fill="#f3f3ff"/><path d="m236.975 138.59h93.148v41.643h-93.148z" fill="#f3f3ff"/><circle cx="210.15" cy="82.825" fill="#d19458" r="27.551" transform="matrix(.986 -.166 .166 .986 -10.821 35.975)"/><circle cx="220.415" cy="82.825" fill="#f3f3ff" r="26.957" transform="matrix(.782 -.623 .623 .782 -3.586 155.395)"/><rect fill="#909cd1" height="40.728" rx="10.772" width="393.123" x="23.853" y="320.094"/><path d="m390.783 347.09v-26.995h15.422c5.924 0 10.772 4.848 10.772 10.772v19.185c0 5.924-4.848 10.772-10.772 10.772h-371.58c-5.924 0-10.772-4.848-10.772-10.772v-2.962z" fill="#7986bf" fill-rule="evenodd"/><path d="m227.258 138.59h9.718v41.643h-9.718z" fill="#d19458"/><path d="m95.79 191.785h14.916v128.309h-14.916z" fill="#d19458"/><path d="m320.507 501.071h177.545c-59.515-99.539 43.251-154.119-16.264-253.658h-177.545c59.514 99.539-43.251 154.119 16.263 253.658z" fill="#cfe8ff" fill-rule="evenodd"/><path d="m484.928 501.071h13.125c-59.515-99.539 43.251-154.119-16.264-253.658h-13.125c59.515 99.539-43.251 154.119 16.264 253.658z" fill="#b6dbff" fill-rule="evenodd"/><path d="m277.498 133.449h12v51.967h-12z" fill="#e6b17c"/><path d="m89.964 197.78c-3.314 0-6-2.686-6-6s2.686-6 6-6h105.578c3.314 0 6 2.686 6 6s-2.686 6-6 6z" fill="#d19458" fill-rule="evenodd"/><path d="m348.819 290.242c-3.314 0-6-2.686-6-6s2.686-6 6-6h119.516c3.314 0 6 2.686 6 6s-2.686 6-6 6zm17.393 180c-3.314 0-6-2.686-6-6s2.686-6 6-6h87.266c3.314 0 6 2.686 6 6s-2.686 6-6 6zm-13.057-36c-3.314 0-6-2.686-6-6s2.686-6 6-6h97.91c3.314 0 6 2.686 6 6s-2.686 6-6 6zm3.953-36c-3.314 0-6-2.686-6-6s2.686-6 6-6h99.23c3.314 0 6 2.686 6 6s-2.686 6-6 6zm14.986-36c-3.314 0-6-2.686-6-6s2.686-6 6-6h93.721c3.314 0 6 2.686 6 6s-2.686 6-6 6zm-11.486-36.28c-3.301 0-5.977-2.676-5.977-5.977s2.676-5.976 5.977-5.976l112.16.256c3.301 0 5.976 2.676 5.976 5.977s-2.676 5.977-5.976 5.977l-112.16-.256z" fill="#7986bf" fill-rule="evenodd"/><g><g fill-rule="evenodd"><path d="m235.914 388.089-32.914 69.492 25.677-7.989 12.476 23.822 25.961-72.378z" fill="#e8333c"/><path d="m235.914 388.089-29.03 61.291 18.644-5.801 11.168 21.325 23.882-66.58z" fill="#fb545c"/><path d="m272.459 401.074 25.864 72.413 12.508-23.806 25.666 8.024-32.821-69.537z" fill="#e8333c"/><path d="m272.459 401.074 22.55 63.135 8.788-16.726 23.437 7.325-30.166-63.908z" fill="#fb545c"/><path d="m253.507 283.937c-4.381 6.168-11.448 9.096-18.908 7.832-6.935-1.176-12.734.092-17.838 5.195-5.105 5.105-6.37 10.901-5.196 17.838 1.264 7.46-1.663 14.526-7.832 18.908-5.736 4.074-8.94 9.069-8.94 16.287s3.204 12.214 8.94 16.287c6.168 4.381 9.096 11.448 7.832 18.908-1.176 6.935.092 12.734 5.195 17.838 5.105 5.105 10.901 6.37 17.838 5.196 7.46-1.264 14.527 1.663 18.908 7.832 4.074 5.735 9.069 8.94 16.287 8.94s12.214-3.204 16.287-8.94c4.381-6.169 11.448-9.096 18.908-7.832 6.935 1.176 12.734-.092 17.838-5.195 5.105-5.105 6.37-10.901 5.196-17.838-1.264-7.46 1.663-14.526 7.832-18.908 5.735-4.074 8.94-9.069 8.94-16.287s-3.204-12.213-8.94-16.287c-6.169-4.381-9.096-11.448-7.832-18.908 1.176-6.935-.092-12.734-5.195-17.838-5.105-5.105-10.901-6.37-17.838-5.196-7.46 1.264-14.526-1.663-18.908-7.832-4.074-5.736-9.069-8.94-16.287-8.94s-12.213 3.204-16.287 8.94z" fill="#f9ac00"/><path d="m253.507 283.937c-4.381 6.169-11.448 9.096-18.908 7.832-6.935-1.176-12.734.092-17.838 5.195-5.105 5.105-6.37 10.901-5.196 17.838 1.264 7.46-1.663 14.527-7.832 18.908-5.735 4.074-8.94 9.068-8.94 16.287s3.204 12.213 8.94 16.287c6.169 4.381 9.096 11.448 7.832 18.908-1.176 6.935.091 12.734 5.195 17.837 5.105 5.105 10.901 6.37 17.838 5.196 7.46-1.264 14.527 1.663 18.908 7.832 3.229 4.546 7.038 7.502 12.074 8.532 5.036-1.03 8.845-3.986 12.074-8.532 4.381-6.168 11.448-9.096 18.908-7.832.32.054.638.103.953.147 2.382-.52 4.905-.582 7.474-.147l.097.016c3.375-.696 6.454-2.351 9.314-5.211 5.105-5.105 6.37-10.901 5.196-17.838-1.264-7.46 1.663-14.527 7.832-18.908 5.736-4.074 8.94-9.068 8.94-16.287s-3.204-12.213-8.94-16.287c-6.169-4.381-9.096-11.448-7.832-18.908 1.176-6.935-.092-12.734-5.195-17.838-2.861-2.862-5.94-4.516-9.316-5.212l-.096.016c-2.569.435-5.091.373-7.473-.147-.316.043-.633.093-.953.147-7.46 1.264-14.526-1.663-18.908-7.832-3.23-4.547-7.038-7.502-12.074-8.532-5.036 1.03-8.844 3.986-12.074 8.532z" fill="#fdc72e"/></g><circle cx="263.554" cy="350.064" fill="#f9ac00" r="36.225"/><circle cx="269.794" cy="349.997" fill="#f3f3ff" r="36.225" transform="matrix(.987 -.16 .16 .987 -52.579 47.736)"/></g></svg>