<svg height="464pt" viewBox="0 -40 464 464" width="464pt" xmlns="http://www.w3.org/2000/svg"><path d="m32 0c-17.671875 0-32 14.328125-32 32v240c0 17.671875 14.328125 32 32 32h384v-304zm0 0" fill="#78b9eb"/><path d="m200 138.160156v93.839844c0 4.417969-3.582031 8-8 8h-96c-4.417969 0-8-3.582031-8-8v-93.839844l56-42.160156zm0 0" fill="#ffc477"/><path d="m152 102-48 36.160156-16 12.078125v-12.078125l56-42.160156zm0 0" fill="#ffc477"/><path d="m440 336v48h-144v-48zm0 0" fill="#787680"/><path d="m120 192h48v48h-48zm0 0" fill="#8b5e3c"/><path d="m160 144c0 8.835938-7.164062 16-16 16s-16-7.164062-16-16 7.164062-16 16-16 16 7.164062 16 16zm0 0" fill="#ffd422"/><path d="m208 56v50.878906l-24-19.117187v-31.761719zm0 0" fill="#ffc477"/><path d="m152 102-48 36.160156-16 12.078125v-12.078125l56-42.160156zm0 0" fill="#ffb655"/><path d="m208 94.160156v12.71875l-24-19.117187v-12.722657l16 12.722657zm0 0" fill="#ffb655"/><path d="m296 64h48c13.253906 0 24 10.746094 24 24s-10.746094 24-24 24v-8c-.066406-8.808594-7.191406-15.933594-16-16-8.824219.027344-15.972656 7.175781-16 16v8h-16c-13.253906 0-24-10.746094-24-24s10.746094-24 24-24zm0 0" fill="#ffa733"/><path d="m464 32v240c0 17.671875-14.328125 32-32 32h-8v-8l16-48v-80c-.066406-8.808594-7.191406-15.933594-16-16-2.808594.003906-5.570312.75-8 2.160156v-154.160156h16c17.671875 0 32 14.328125 32 32zm0 0" fill="#acabb1"/><path d="m408 168c.027344-8.824219 7.175781-15.972656 16-16 8.808594.066406 15.933594 7.191406 16 16v80l-16 48v40h-112v-56l-24-48v-64c.003906-5.714844 3.058594-10.988281 8.007812-13.84375 4.949219-2.855469 11.042969-2.851562 15.992188.003906v-50.160156c.027344-8.824219 7.175781-15.972656 16-16 8.808594.066406 15.933594 7.191406 16 16v40c.027344-8.824219 7.175781-15.972656 16-16 8.808594.066406 15.933594 7.191406 16 16v8c.027344-8.824219 7.175781-15.972656 16-16 4.246094-.023438 8.316406 1.679688 11.28125 4.71875 1.128906 1.0625 2.074219 2.308594 2.796875 3.679688 1.253906 2.339843 1.914063 4.949218 1.921875 7.601562zm0 0" fill="#ffdaaa"/><path d="m120 192h16v48h-16zm0 0" fill="#754c29"/><path d="m120 192h48v8h-48zm0 0" fill="#754c29"/><path d="m200 138.160156-56-42.160156-56 42.160156-27.921875 21.039063c-2.445313 1.765625-5.382813 2.714843-8.398437 2.722656-4.796876-.003906-9.285157-2.367187-12-6.320313-4.253907-6.460937-2.625-15.125 3.679687-19.601562l95.679687-76.078125c2.898438-2.324219 7.023438-2.324219 9.921876 0l35.039062 27.839844 24 19.117187 36.640625 29.121094c3.792969 2.683594 6.054687 7.035156 6.078125 11.679688-.007812 5.394531-3.046875 10.328124-7.859375 12.761718-4.816406 2.433594-10.589844 1.953125-14.9375-1.242187zm0 0" fill="#ff6243"/><g fill="#ffc477"><path d="m285.265625 244.425781-4.464844-8.851562c-.539062-1.113281-.8125-2.335938-.800781-3.574219v-63.054688c-.207031-11.679687 7.808594-21.902343 19.199219-24.480468 7.0625-1.425782 14.394531.390625 19.972656 4.949218 5.578125 4.558594 8.820313 11.378907 8.828125 18.585938v40c0 4.417969-3.582031 8-8 8s-8-3.582031-8-8v-40c0-4.417969-3.582031-8-8-8s-8 3.582031-8 8v62.113281l3.574219 7.152344c1.980469 3.949219.378906 8.757813-3.574219 10.734375s-8.757812.375-10.734375-3.574219zm0 0"/><path d="m427.769531 144.304688c-4.324219-.699219-8.753906-.183594-12.800781 1.488281-2.003906-7.40625-7.410156-13.417969-14.5625-16.191407-6.625-2.554687-14.050781-1.949218-20.175781 1.644532-5.863281-9.582032-17.691407-13.679688-28.230469-9.773438v-17.472656c-.058594-12.890625-10.234375-23.457031-23.113281-24-6.671875.046875-13.050781 2.75-17.722657 7.515625-4.671874 4.765625-7.25 11.195313-7.164062 17.867187v40.800782c0 4.417968 3.582031 8 8 8s8-3.582032 8-8v-42.183594c0-4.417969 3.582031-8 8-8 2.160156-.003906 4.222656.882812 5.703125 2.457031 1.488281 1.457031 2.316406 3.460938 2.296875 5.542969v80c0 4.417969 3.582031 8 8 8s8-3.582031 8-8v-40c0-4.417969 3.582031-8 8-8s8 3.582031 8 8v48c0 4.417969 3.582031 8 8 8s8-3.582031 8-8v-40c0-4.417969 3.582031-8 8-8s8 3.582031 8 8v40c0 4.417969 3.582031 8 8 8s8-3.582031 8-8v-24c0-4.417969 3.582031-8 8-8s8 3.582031 8 8v40c0 4.417969 3.582031 8 8 8s8-3.582031 8-8v-38.640625c.238281-12.15625-8.296875-22.730469-20.230469-25.054687zm0 0"/></g></svg>