<svg id="Layer_1" height="512" viewBox="0 0 64 64" width="512" xmlns="http://www.w3.org/2000/svg" data-name="Layer 1"><path d="m61 20a17 17 0 1 1 -17-17v17z" fill="#ffce66"/><path d="m46 1v17h17a17 17 0 0 0 -17-17z" fill="#d9777d"/><path d="m3 43h11v19h-11z" fill="#5980b3" transform="matrix(-1 0 0 -1 17 105)"/><path d="m17 41h11v21h-11z" fill="#5980b3" transform="matrix(-1 0 0 -1 45 103)"/><path d="m21 51h10v11h-10z" fill="#7a9ecc" transform="matrix(-1 0 0 -1 52 113)"/><path d="m9 47h10v15h-10z" fill="#7a9ecc" transform="matrix(-1 0 0 -1 28 109)"/><g fill="#f2f2f2"><path d="m24 43h2v2h-2z"/><path d="m24 47h2v2h-2z"/><path d="m19 43h2v2h-2z"/><path d="m5 53h2v2h-2z"/><path d="m5 57h2v2h-2z"/><path d="m5 45h2v2h-2z"/><path d="m5 49h2v2h-2z"/><path d="m11.5 49h5v2h-5z"/><path d="m11.5 53h5v2h-5z"/><path d="m11.5 57h5v2h-5z"/><path d="m23.5 53h5v2h-5z"/><path d="m23.5 57h5v2h-5z"/></g><path d="m38.5 28h-1a.5.5 0 0 1 -.5-.5h-2a2.5 2.5 0 0 0 2 2.449v1.051h2v-1.051a2.5 2.5 0 0 0 -.5-4.949h-1a.5.5 0 0 1 0-1h1a.5.5 0 0 1 .5.5h2a2.5 2.5 0 0 0 -2-2.449v-1.051h-2v1.051a2.5 2.5 0 0 0 .5 4.949h1a.5.5 0 0 1 0 1z" fill="#6b8199"/><path d="m49 10h8.001v2h-8.001z" fill="#f2f2f2" transform="matrix(.707 -.707 .707 .707 7.745 40.698)"/><circle cx="51" cy="9" fill="#f2f2f2" r="1"/><circle cx="55" cy="13" fill="#f2f2f2" r="1"/><path d="m9 9a1 1 0 0 0 -1 1v27h2v-26h14v-2z" fill="#99a9bf"/><path d="m54 53h-19v2h20a1 1 0 0 0 1-1v-14h-2z" fill="#99a9bf"/><path d="m1 61h32v2h-32z" fill="#61758c"/></svg>