<svg id="Layer_1" enable-background="new 0 0 512 512" viewBox="0 0 512 512" xmlns="http://www.w3.org/2000/svg"><g><path clip-rule="evenodd" d="m74.352.5h64.515 233.597c23.939 0 43.543 19.605 43.543 43.543v398.608h-298.112c-23.939 0-43.543-19.605-43.543-43.572v-312.045h-41.362v-86.534z" fill="#cce4ff" fill-rule="evenodd"/></g><g><path clip-rule="evenodd" d="m38.342.5c-19.808 0-36.01 16.202-36.01 36.01v50.524h72.019v-50.524c.001-19.808-16.201-36.01-36.009-36.01z" fill="#9dc6fb" fill-rule="evenodd"/></g><g><path clip-rule="evenodd" d="m119.931 54.049h250.497v31.705h-250.497z" fill="#f44335" fill-rule="evenodd"/></g><path d="m108.093 126.65c0-3.968 3.217-7.184 7.184-7.184h259.776c3.968 0 7.184 3.217 7.184 7.184s-3.217 7.184-7.184 7.184h-259.776c-3.967.001-7.184-3.216-7.184-7.184zm266.96 24.143h-259.776c-3.968 0-7.184 3.217-7.184 7.184s3.217 7.184 7.184 7.184h259.776c3.968 0 7.184-3.217 7.184-7.184s-3.216-7.184-7.184-7.184zm-92.875 31.326h-166.901c-3.968 0-7.184 3.217-7.184 7.184s3.217 7.184 7.184 7.184h166.901c3.968 0 7.184-3.217 7.184-7.184s-3.216-7.184-7.184-7.184zm-46.597 31.327h-120.304c-3.968 0-7.184 3.217-7.184 7.184s3.217 7.184 7.184 7.184h120.303c3.968 0 7.184-3.217 7.184-7.184s-3.215-7.184-7.183-7.184z" fill="#9dc6fb"/><g><path clip-rule="evenodd" d="m337.298 236.279 72.048 47.557 72.049 47.528v95.085 85.051h-288.194v-85.051-95.085l72.049-47.528z" fill="#f5f5f5" fill-rule="evenodd"/></g><g><path clip-rule="evenodd" d="m337.298 250.939-144.097 95.085v-14.66l72.049-47.528 72.048-47.557 72.048 47.557 72.049 47.528v14.66z" fill="#cfd8dc" fill-rule="evenodd"/></g><g><path clip-rule="evenodd" d="m337.298 193.172 86.185 56.894 86.184 56.865v43.107l-86.184-56.865-86.185-56.894-86.214 56.894-86.184 56.865v-43.107l86.184-56.865z" fill="#f44335" fill-rule="evenodd"/></g><g><path clip-rule="evenodd" d="m337.298 478.573c46.975 0 85.283-38.308 85.283-85.283s-38.308-85.283-85.283-85.283-85.283 38.308-85.283 85.283 38.308 85.283 85.283 85.283z" fill="#ffd54f" fill-rule="evenodd"/></g><path d="m372.923 410.408c0 6.226-2.129 12.087-5.995 16.502-4.405 5.03-10.816 7.801-18.052 7.801h-4.393v12.071c0 3.968-3.217 7.184-7.184 7.184s-7.184-3.217-7.184-7.184v-12.072h-21.292c-3.968 0-7.184-3.217-7.184-7.184s3.217-7.184 7.184-7.184h40.053c3.122 0 5.559-.975 7.242-2.898 1.549-1.768 2.437-4.332 2.437-7.036 0-1.017-.272-9.933-9.679-9.933h-3.141-16.87-3.171c-15.788 0-24.048-12.225-24.048-24.302 0-6.226 2.129-12.087 5.995-16.502 4.405-5.03 10.816-7.801 18.052-7.801h4.421v-12.071c0-3.968 3.217-7.184 7.184-7.184s7.184 3.217 7.184 7.184v12.071h21.263c3.968 0 7.184 3.217 7.184 7.184s-3.217 7.184-7.184 7.184h-40.053c-3.122 0-5.559.975-7.242 2.898-1.548 1.768-2.437 4.332-2.437 7.036 0 1.017.272 9.933 9.679 9.933h3.171 16.87 3.141c15.788.001 24.049 12.227 24.049 24.303z" fill="#ff9f00"/><g><path clip-rule="evenodd" d="m337.298 308.007c47.092 0 85.283 38.191 85.283 85.283s-38.191 85.283-85.283 85.283c-2.24 0-4.45-.087-6.632-.262 44.009-3.374 78.68-40.14 78.68-85.021s-34.672-81.647-78.68-85.021c2.182-.174 4.392-.262 6.632-.262z" fill="#ffc328" fill-rule="evenodd"/></g></svg>