<svg clip-rule="evenodd" fill-rule="evenodd" stroke-linejoin="round" stroke-miterlimit="2" viewBox="0 0 510 510" xmlns="http://www.w3.org/2000/svg"><g id="Artboard321"><g><g><path d="m26.834 15.008h294.468c3.09 0 5.755 1.106 7.938 3.288l53.434 53.434c2.182 2.183 3.288 4.848 3.288 7.938v404.143c0 6.18-5.046 11.197-11.197 11.197h-347.931c-6.18 0-11.226-5.017-11.226-11.197v-457.577c0-6.18 5.046-11.226 11.226-11.226z" fill="#eceff1"/><path d="m325.951 15.972v53.434c0 3.09 2.523 5.613 5.613 5.613h53.434c-.538-1.191-1.332-2.296-2.324-3.289l-53.434-53.434c-.993-.992-2.098-1.757-3.289-2.324z" fill="#a79ba7"/><path d="m26.834 15.008h11.197v480h-11.197c-6.18 0-11.226-5.017-11.226-11.197v-457.577c0-6.18 5.046-11.226 11.226-11.226z" fill="#d1d1d6"/><path d="m55.677 471.758c-4.415 0-8-3.585-8-8s3.585-8 8-8h180.967c4.415 0 8 3.585 8 8s-3.585 8-8 8zm0-39.233c-4.415 0-8-3.585-8-8s3.585-8 8-8h140.985c4.416 0 8 3.585 8 8s-3.584 8-8 8zm0-39.233c-4.415 0-8-3.585-8-8s3.585-8 8-8h121.108c4.415 0 8 3.585 8 8s-3.585 8-8 8zm0-39.233c-4.415 0-8-3.585-8-8s3.585-8 8-8h137.912c4.415 0 8 3.585 8 8s-3.585 8-8 8zm0-39.233c-4.415 0-8-3.585-8-8s3.585-8 8-8h155.256c4.415 0 8 3.585 8 8s-3.585 8-8 8zm0-78.466c-4.415 0-8-3.585-8-8s3.585-8 8-8h236.967c4.415 0 8 3.585 8 8s-3.585 8-8 8zm0 39.233c-4.415 0-8-3.585-8-8s3.585-8 8-8h236.967c4.415 0 8 3.585 8 8s-3.585 8-8 8z" fill="#a79ba7"/></g><g><path d="m395.292 448.589 7.726 4.243c6.443 3.551 14.619 1.178 18.152-5.265 3.551-6.444 1.143-14.568-5.265-18.17 6.426 3.602 14.619 1.16 18.17-5.266 2.165-3.949 2.095-8.488.259-12.264l2.01-.831-90.556-72.074c-25.826-17.408-43.823 5.023-61.577-4.971l-23.522-10.843c-3.967-1.836-8.695-.104-10.566 3.845l-25.254 53.748c-.953 2.009-1.04 4.088-.26 6.167.762 2.078 2.182 3.602 4.209 4.503 8.383 3.793 21.236 9.579 23.886 10.601 8.037 3.118 5.387 15.693 9.804 21.443 6.772 8.834 7.881 15.278 13.649 18.586l84.129 48.326c6.392 3.672 14.619 1.178 18.17-5.265 3.551-6.444 1.161-14.602-5.248-18.188l9.18 5.11c6.444 3.568 14.619 1.161 18.17-5.283 3.551-6.443 1.143-14.55-5.266-18.152z" fill="#f6dccd"/><path d="m348.49 341.11-2.702-2.148c-25.826-17.408-43.823 5.023-61.577-4.971l-23.522-10.843c-3.967-1.836-8.695-.104-10.566 3.845l-5.577 11.883c5.542-2.789 12.159-1.092 19.503 3.325 35.18 21.08 47.27-1.766 74.863 7.985 1.108-1.039 2.199-2.095 3.256-3.169 2.009-2.044 4.123-4.019 6.322-5.907z" fill="#f1cbbc"/><path d="m349.356 484.08 10.93 6.287c6.236 3.586 14.221 1.299 17.91-4.815l-22.794-12.974zm61.924-57.264 4.625 2.581c6.131 3.429 13.891 1.368 17.667-4.452l-43.268-24.596c-3.066-1.715-6.929-.641-8.661 2.425-1.715 3.066-.641 6.928 2.425 8.66 9.18 5.249 27.454 15.503 27.212 15.382zm-20.491 19.296 12.229 6.72c6.131 3.378 13.822 1.386 17.615-4.365l-53.28-30.277c-3.066-1.732-6.928-.641-8.66 2.407-1.715 3.066-.641 6.946 2.425 8.661zm-41.155 6.824c.952 1.42 2.165 1.767 3.689 2.633l20.768 11.848 8.297 4.607c6.184 3.412 13.978 1.351 17.72-4.521l-42.316-23.972c-3.049-1.715-6.929-.641-8.643 2.425-1.3 2.286-1.022 5.023.485 6.98z" fill="#f1cbbc"/><path d="m240.977 301.393-39.163 88.615c-1.888 4.296.052 9.336 4.348 11.242l17.061 7.534c4.278 1.888 9.336-.069 11.224-4.347l39.181-88.616c1.888-4.296-.069-9.353-4.348-11.241l-17.061-7.535c-4.279-1.905-9.336.052-11.242 4.348z" fill="#d1d1d6"/><path d="m227.467 401.353c-1.888 4.279-6.911 6.236-11.19 4.365l6.946 3.066c4.278 1.888 9.336-.069 11.224-4.347 13.06-29.533 26.121-59.083 39.181-88.616 1.767-4.018.173-8.712-3.551-10.843-14.203 32.131-28.407 64.245-42.61 96.375z" fill="#b1b1b5"/><path d="m253.899 311.11c3.204.156 5.681 2.858 5.525 6.062-.155 3.205-2.858 5.664-6.062 5.526-3.187-.156-5.664-2.858-5.525-6.063.155-3.204 2.875-5.664 6.062-5.525z" fill="#685e68"/><path d="m335.759 456.608c4.14-4.59 11.068-5.976 16.75-2.944 1.801.97 3.36 2.303 4.573 3.949 3.135 4.278 3.568 10.012 1.074 14.688l-8.141 15.226c-3.569 6.686-11.969 9.232-18.638 5.664-5.37-2.876-8.072-8.869-7.067-14.567-3.949 5.508-11.553 7.396-17.685 4.122-5.266-2.823-7.951-8.609-7.119-14.203-3.603 6.703-11.934 9.301-18.672 5.698-6.686-3.568-9.215-11.969-5.647-18.637l2.563-4.798c-4.191 3.793-10.514 4.763-15.762 1.957-6.669-3.568-9.215-11.969-5.647-18.638l8.488-15.883c3.585-6.686 11.969-9.215 18.637-5.647 6.427 3.43 9.025 11.328 6.045 17.858 4.192-3.845 10.549-4.832 15.815-2.009 5.681 3.031 8.366 9.561 6.842 15.554 4.139-4.59 11.068-5.975 16.749-2.944 5.682 3.031 8.366 9.561 6.842 15.554z" fill="#d6b4a8"/><path d="m277.75 450.806c-4.191 3.793-10.514 4.763-15.762 1.957-1.161-.624-2.182-1.386-3.083-2.269 4.209.19 6.114-3.135 8.037-6.513l14.428-25.393c1.161-2.044 1.248-4.746.347-6.772.606.207 1.178.467 1.749.779 6.427 3.43 9.025 11.328 6.045 17.858zm21.756 17.737c-3.516 6.564-11.831 9.353-18.672 5.698-.676-.363-1.317-.779-1.906-1.23 2.425-.363 4.885-1.922 5.56-3.221l19.088-36.964c.174-.364.728-2.771-.329-5.283.71.225 1.403.537 2.079.901 5.681 3.031 8.366 9.561 6.859 15.537zm51.444-15.59c.537.208 1.039.451 1.559.711 1.801.97 3.36 2.303 4.573 3.949 3.135 4.278 3.568 10.012 1.074 14.688l-8.141 15.226c-3.569 6.686-11.969 9.232-18.638 5.664-.087-.052-.156-.087-.225-.139 1.42-.519 2.321-1.299 2.737-2.096l16.992-32.91c.675-1.299.796-3.343.069-5.093zm-26.64 25.671c-3.949 5.508-11.553 7.396-17.685 4.122-.45-.242-.884-.502-1.299-.797 2.338-1.022 4.313-2.771 5.681-5.387l15.832-30.676c1.126-2.165.883-4.035-.052-5.75.727.242 1.437.554 2.13.918 5.682 3.031 8.366 9.561 6.842 15.554z" fill="#cca393"/><path d="m382.544 379.598 46.248 26.363c2.494 1.42 4.382 3.516 5.542 5.924l26.104-10.895c4.001-1.663 5.941-6.219 4.365-10.254l-21.773-56.208c-.866-2.2-2.46-3.776-4.677-4.59-2.217-.831-4.452-.676-6.53.45l-15.624 8.349c-18.655 9.7-36.6-22.951-70.376.225-4.382 2.997-8.505 6.6-12.246 10.376-9.371 9.474-20.82 17.927-33.759 25.479-.399.243-.659.607-.763 1.074-.086.468.018.918.312 1.282 26.796 34.487 59.395-11.138 83.177 2.425z" fill="#d6b4a8"/><path d="m418.416 400.037 10.376 5.924c2.494 1.42 4.382 3.516 5.542 5.924l26.104-10.895c4.001-1.663 5.941-6.219 4.382-10.254l-6.392-16.473c.295 5.231-.918 9.839-6.322 12.038zm-115.429-18.707c26.069 26.363 56.831-14.688 79.557-1.732-35.976-24.371-49.366 7.743-79.557 1.732z" fill="#cca393"/><path d="m458.792 307.68 35.024 90.348c1.697 4.365-.485 9.319-4.85 11.016l-17.391 6.738c-4.382 1.698-9.336-.485-11.034-4.867l-35.023-90.331c-1.698-4.382.502-9.336 4.867-11.033l17.391-6.738c4.365-1.698 9.336.502 11.016 4.867z" fill="#d1d1d6"/><path d="m428.965 310.261c-3.395 2.113-4.937 6.444-3.447 10.323l35.023 90.331c1.698 4.382 6.652 6.565 11.017 4.867l6.461-2.494.017-.018c-4.365 1.698-9.319-.485-11.016-4.849-12.68-32.72-25.376-65.44-38.055-98.16z" fill="#b1b1b5"/><path d="m445.437 328.396c3.187 0 5.803-2.615 5.803-5.802s-2.616-5.803-5.803-5.803-5.785 2.616-5.785 5.803 2.598 5.802 5.785 5.802z" fill="#685e68"/></g><g><path d="m424.951 225.53v-191.667c0-10.395 8.477-18.871 18.857-18.871h7.554c10.394 0 18.856 8.476 18.856 18.871v191.667l-21.037 36.44c-.337.585-.923.922-1.596.922-.674 0-1.259-.337-1.596-.922z" fill="#e3a76f"/><path d="m441.129 15.182c.878-.117 1.771-.19 2.679-.19h7.554c10.394 0 18.856 8.476 18.856 18.871v191.667l-21.037 36.44c-.703 1.229-2.489 1.229-3.192 0l-4.86-8.389 16.191-28.051v-191.667c0-9.487-7.056-17.378-16.191-18.681z" fill="#c48958"/><path d="m445.989 261.97-21.038-36.44h45.267l-21.037 36.44c-.703 1.229-2.489 1.229-3.192 0z" fill="#837683"/><path d="m445.989 261.97-4.86-8.389 16.191-28.051h12.898l-21.037 36.44c-.337.585-.923.922-1.596.922-.674 0-1.259-.337-1.596-.922z" fill="#685e68"/><path d="m424.951 49.703v-15.84c0-10.395 8.477-18.871 18.857-18.871h7.554c10.394 0 18.856 8.476 18.856 18.871v15.84z" fill="#837683"/><path d="m441.129 15.182c.878-.117 1.771-.19 2.679-.19h7.554c10.394 0 18.856 8.476 18.856 18.871v15.84h-12.898v-15.84c0-9.487-7.056-17.378-16.191-18.681z" fill="#685e68"/></g><g><path d="m74.624 97.346c0-1.5.674-2.921 1.835-3.871 8.23-6.727 41.781-34.154 52.292-42.747 1.841-1.505 4.488-1.505 6.329 0 10.399 8.5 43.316 35.41 51.459 42.066 1.162.95 1.835 2.371 1.835 3.872v103.944c0 2.762-2.238 5-5 5-18.778 0-84.972 0-103.75 0-2.761 0-5-2.238-5-5 0-19.422 0-89.463 0-103.264z" fill="#d1d1d6"/><path d="m126.916 52.228 1.835-1.5c1.841-1.505 4.488-1.505 6.329 0l51.459 42.066c1.162.95 1.835 2.371 1.835 3.872v103.944c0 2.762-2.238 5-5 5h-10c2.762 0 5-2.238 5-5v-103.944c0-1.501-.673-2.922-1.835-3.872z" fill="#b1b1b5"/><path d="m134.664 61.534c-1.841-1.506-4.488-1.506-6.329 0-10.677 8.728-45.124 36.888-52.661 43.049-.945.772-2.139 1.173-3.358 1.125-2.704-.104-7.906-.306-12.963-.502-2.077-.08-3.887-1.437-4.548-3.408-.66-1.97-.032-4.144 1.577-5.459 19.314-15.789 60.279-49.278 71.953-58.82 1.841-1.506 4.488-1.506 6.329 0 11.673 9.542 52.639 43.031 71.953 58.82 1.609 1.315 2.236 3.489 1.576 5.459-.66 1.971-2.471 3.328-4.547 3.408-5.058.196-10.26.398-12.963.502-1.219.048-2.414-.353-3.358-1.125-7.537-6.161-41.984-34.321-52.661-43.049z" fill="#fe646f"/><path d="m126.499 39.019 1.836-1.5c1.841-1.506 4.488-1.506 6.329 0l71.953 58.82c1.609 1.315 2.236 3.489 1.576 5.459-.66 1.971-2.471 3.328-4.547 3.408l-12.963.502c-.667.026-1.327-.082-1.942-.312l4.905-.19c2.076-.08 3.887-1.437 4.547-3.408.66-1.97.033-4.144-1.576-5.459zm1.836 22.515-52.661 43.049c-.945.772-2.139 1.172-3.358 1.125l-8.058-.312c.509-.19.988-.463 1.416-.813l54.496-44.55c1.841-1.505 4.488-1.505 6.329 0z" fill="#fd4755"/><path d="m158.352 144.813c0-7.612-6.171-13.782-13.783-13.782-8.256 0-18.717 0-26.973 0-7.612 0-13.782 6.17-13.782 13.782v60.797h54.538z" fill="#a79ba7"/><path d="m151.066 205.61v-60.797c0-7.612-6.17-13.782-13.782-13.782h7.285c7.612 0 13.783 6.17 13.783 13.782v60.797z" fill="#837683"/></g></g></g></svg>