<svg height="512" viewBox="0 0 64 64" width="512" xmlns="http://www.w3.org/2000/svg"><g id="_10-Deal" data-name="10-Deal"><path d="m32 3a2.90031 2.90031 0 0 0 -1.7875.61631l-22.2125 17.38369 2.81 3.58 21.19-16.58 21.19 16.58 2.81-3.58-22.2125-17.38369a2.90031 2.90031 0 0 0 -1.7875-.61631z" fill="#ef5350"/><path d="m50 16.304v-13.304h-8v7.043z" fill="#757575"/><path d="m50 22.08v11.92h-36v-11.92l18-14.08z" fill="#eee"/><path d="m49.946 22.038-17.946-14.038-18 14.08v3.813l18-14.084 15 11.736v10.455h3v-11.92z" fill="#e0e0e0"/><path d="m35 27h10v6h-10z" fill="#64b5f6" transform="matrix(-1 0 0 -1 80 60)"/><path d="m19 27h10v7h-10z" fill="#757575"/><path d="m29 27v6h-10v-1h3a4 4 0 0 0 4-4v-1z" fill="#616161"/><path d="m45 27v6h-10v-1h3a4 4 0 0 0 4-4v-1z" fill="#42a5f5"/><path d="m8 31h-5v25h5a2 2 0 0 0 2-2v-21a2 2 0 0 0 -2-2z" fill="#64b5f6"/><path d="m8 31h-3a2 2 0 0 1 2 2v18a2 2 0 0 1 -2 2h-2v3h5a2 2 0 0 0 2-2v-21a2 2 0 0 0 -2-2z" fill="#42a5f5"/><path d="m56 31a2 2 0 0 0 -2 2v21a2 2 0 0 0 2 2h5v-25z" fill="#ef5350"/><path d="m48.048 53.048-.048-.048-17.82843-17.82843a4.00009 4.00009 0 0 0 -2.82843-1.17157h-17.34314v19h4.34314a4.00009 4.00009 0 0 1 2.82843 1.17157l6 6a2.82843 2.82843 0 0 0 4-4l3 3a2.82843 2.82843 0 1 0 4-4l3 3a2.82843 2.82843 0 0 0 4-4l2.99843 2.99843a2.82449 2.82449 0 0 0 3.87128.12116 2.94515 2.94515 0 0 0 .00672-4.24316z" fill="#ffccbc"/><g fill="#ffab91"><path d="m27.99 58.37a2.77926 2.77926 0 0 1 -.82 1.8 2.81856 2.81856 0 0 1 -4 0l-6-6a4.00389 4.00389 0 0 0 -2.83-1.17h-4.34v-2h5.4a3.98067 3.98067 0 0 1 2.82 1.17l6 6a2.82179 2.82179 0 0 0 3.77.2z"/><path d="m35 57.37a2.77926 2.77926 0 0 1 -.82 1.8 2.81856 2.81856 0 0 1 -4 0l-3.91132-3.9197a1.07522 1.07522 0 0 1 .00082-1.51977l.00024-.00024a1.07522 1.07522 0 0 1 1.52059 0l3.43967 3.43971a2.82179 2.82179 0 0 0 3.77.2z"/><path d="m42 56.37a2.77926 2.77926 0 0 1 -.82 1.8 2.81856 2.81856 0 0 1 -4 0l-4.911-4.9197a1.07522 1.07522 0 0 1 .00067-1.51991l.0001-.0001a1.07522 1.07522 0 0 1 1.52059 0l4.43964 4.43971a2.82179 2.82179 0 0 0 3.77.2z"/><path d="m49 55.37a2.77926 2.77926 0 0 1 -.82 1.8 2.81856 2.81856 0 0 1 -4 0l-5.91083-5.9197a1.07522 1.07522 0 0 1 .00057-1.52 1.07522 1.07522 0 0 1 1.52059 0l5.43967 5.4397a2.82179 2.82179 0 0 0 3.77.2z"/><path d="m36.66193 34a4 4 0 0 0 -2.83454 1.17773l-7.02374 7.05433a2.74384 2.74384 0 0 0 0 3.88037l.05017.05017a2.83063 2.83063 0 0 0 4.00922.0105c2.06878-2.06891 5.14111-5.16895 5.14111-5.16895l11.99585 11.99585h6v-19z"/></g><path d="m56 31h3a2 2 0 0 0 -2 2v18a2 2 0 0 0 2 2h2v3h-5a2 2 0 0 1 -2-2v-21a2 2 0 0 1 2-2z" fill="#e53935"/><path d="m42 6.234v3.809l8 6.261v-3.809z" fill="#616161"/><path d="m39 40v-.15526a1.99948 1.99948 0 0 0 -3.4161-1.41232c-2.11167 2.12121-4.62177 4.64158-5.7209 5.74068a2.82058 2.82058 0 0 1 -3.85163.11846 2.72526 2.72526 0 0 0 .79224 1.82087l.05017.05017a2.83063 2.83063 0 0 0 4.00922.0105c2.06882-2.06891 6.137-6.1731 6.137-6.1731a5 5 0 0 0 5 5h3a1 1 0 0 0 1-1 1 1 0 0 0 -1-1h-3a3 3 0 0 1 -3-3z" fill="#ff8a65"/></g></svg>