<svg id="Layer_1" height="512" viewBox="0 0 256 256" width="512" xmlns="http://www.w3.org/2000/svg"><g><g><g><g><path d="m184.554 166.583-142.051-22.934c-2.685-.434-4.511-2.962-4.077-5.647l10.82-67.018c.434-2.685 2.962-4.511 5.647-4.077l142.052 22.934c2.685.434 4.511 2.962 4.077 5.647l-10.82 67.018c-.434 2.685-2.962 4.511-5.648 4.077z" fill="#76a34f"/></g><g><path d="m198.057 144.579h-143.891c-2.72 0-4.925-2.205-4.925-4.925v-67.885c0-2.72 2.205-4.925 4.925-4.925h143.891c2.72 0 4.925 2.205 4.925 4.925v67.886c0 2.719-2.205 4.924-4.925 4.924z" fill="#5a7a39"/></g><g><path d="m209.387 115.449-141.196 27.723c-2.669.524-5.257-1.215-5.781-3.884l-13.079-66.614c-.524-2.669 1.215-5.257 3.884-5.781l141.195-27.723c2.669-.524 5.257 1.215 5.781 3.884l13.079 66.614c.525 2.669-1.214 5.257-3.883 5.781z" fill="#648940"/></g><g><path d="m214.45 89.141-134.639 50.766c-2.545.96-5.386-.326-6.346-2.871l-23.95-63.52c-.96-2.545.326-5.386 2.871-6.346l134.638-50.766c2.545-.96 5.386.326 6.346 2.871l23.951 63.521c.959 2.544-.326 5.386-2.871 6.345z" fill="#76a34f"/></g><g><path d="m96.626 128.293c-1.369 0-2.658-.779-3.283-2.102-3.378-7.149-11.207-10.826-18.618-8.741-1.842.516-3.736-.434-4.406-2.214l-8.774-23.271c-.671-1.777.123-3.743 1.849-4.57 6.941-3.328 10.395-11.259 8.213-18.857-.531-1.848.418-3.749 2.208-4.423l95.101-35.858c1.796-.674 3.757.129 4.577 1.863 3.379 7.15 11.214 10.823 18.619 8.741 1.837-.517 3.734.433 4.405 2.212l8.776 23.274c.669 1.777-.126 3.742-1.85 4.568-6.942 3.328-10.396 11.259-8.213 18.856.531 1.849-.418 3.75-2.208 4.424l-95.101 35.858c-.428.163-.865.24-1.295.24zm-17.704-15.425c7.422 0 14.43 4.263 17.898 11.326l94.48-35.624c-2.517-9.284 1.704-18.918 10.132-23.123l-8.542-22.652c-9.104 2.406-18.636-2.045-22.876-10.678l-94.479 35.624c2.516 9.285-1.705 18.918-10.132 23.123l8.542 22.652c1.656-.437 3.326-.648 4.977-.648z" fill="#91b56b"/></g><g><circle cx="133.417" cy="78.156" fill="#91b56b" r="25.365"/></g><g><g><path d="m133.734 94.363c-3.347.001-6.504-2.044-7.752-5.356-.39-1.033.132-2.187 1.166-2.576 1.029-.391 2.187.132 2.576 1.166.832 2.204 3.301 3.323 5.51 2.492l4.696-1.771c1.069-.403 1.917-1.198 2.388-2.238.471-1.041.508-2.202.105-3.271l-.886-2.348c-.403-1.069-1.198-1.917-2.238-2.388-1.039-.47-2.201-.507-3.271-.105l-4.696 1.771c-4.271 1.609-9.055-.555-10.663-4.824-.78-2.068-.708-4.316.203-6.33s2.552-3.553 4.621-4.332l4.697-1.771c2.066-.779 4.315-.708 6.33.202 2.014.911 3.553 2.552 4.332 4.621.39 1.033-.132 2.187-1.166 2.576-1.029.391-2.187-.132-2.576-1.166-.403-1.068-1.198-1.916-2.238-2.387-1.039-.469-2.199-.509-3.271-.104l-4.698 1.771c-1.068.403-1.916 1.198-2.387 2.238-.471 1.041-.508 2.202-.105 3.271.403 1.068 1.198 1.916 2.238 2.387 1.04.472 2.202.508 3.271.105l4.696-1.771c2.07-.78 4.318-.707 6.331.203 2.014.911 3.553 2.552 4.332 4.621l.886 2.348c.78 2.069.708 4.317-.203 6.331s-2.552 3.553-4.621 4.332l-4.696 1.771c-.957.361-1.943.532-2.911.532z" fill="#648940"/></g><g><path d="m139.174 95.424c-.809 0-1.569-.494-1.871-1.295l-11.513-30.534c-.39-1.034.132-2.188 1.165-2.577 1.033-.392 2.188.132 2.577 1.165l11.513 30.534c.39 1.034-.132 2.188-1.165 2.577-.233.088-.472.13-.706.13z" fill="#648940"/></g></g><g><g><path d="m178.554 70.979c-4.009 0-7.791-2.45-9.287-6.417-1.93-5.115.663-10.847 5.778-12.776 5.118-1.928 10.847.665 12.775 5.779.935 2.479.849 5.172-.243 7.585-1.091 2.413-3.058 4.257-5.536 5.19-1.147.433-2.327.639-3.487.639zm-.018-15.831c-.691 0-1.395.122-2.08.38-3.051 1.151-4.598 4.571-3.447 7.622 1.151 3.053 4.571 4.597 7.621 3.448 1.479-.558 2.652-1.657 3.303-3.097.651-1.439.703-3.046.146-4.524v-.001c-.893-2.366-3.15-3.828-5.543-3.828z" fill="#648940"/></g><g><path d="m88.236 105.033c-1.392 0-2.778-.296-4.083-.887-2.413-1.091-4.257-3.058-5.19-5.536-.935-2.478-.848-5.171.244-7.584 1.091-2.413 3.058-4.257 5.536-5.19 5.111-1.928 10.846.663 12.774 5.778v.001c1.929 5.115-.664 10.846-5.778 12.775-1.138.43-2.322.643-3.503.643zm-.002-15.835c-.692 0-1.396.122-2.08.38-1.479.558-2.652 1.657-3.304 3.097-.65 1.439-.702 3.047-.146 4.524 1.15 3.052 4.569 4.597 7.623 3.449 3.051-1.151 4.598-4.571 3.447-7.623v.001c-.891-2.367-3.148-3.828-5.54-3.828z" fill="#648940"/></g></g></g><g><g><g><circle cx="82.12" cy="139.198" fill="#ef7816" r="27.449"/></g></g><g><g><circle cx="98.489" cy="139.198" fill="#f79219" r="27.449"/></g></g><g><g><circle cx="114.858" cy="139.198" fill="#ffa91a" r="27.449"/></g></g><g><g><path d="m117.148 153.3h-4.582c-3.985 0-7.229-3.243-7.229-7.229 0-.828.672-1.5 1.5-1.5s1.5.672 1.5 1.5c0 2.332 1.896 4.229 4.229 4.229h4.582c2.332 0 4.229-1.896 4.229-4.229v-2.291c0-2.332-1.896-4.229-4.229-4.229h-4.582c-3.985 0-7.229-3.242-7.229-7.228s3.243-7.229 7.229-7.229h4.582c3.985 0 7.229 3.243 7.229 7.229 0 .828-.672 1.5-1.5 1.5s-1.5-.672-1.5-1.5c0-2.332-1.896-4.229-4.229-4.229h-4.582c-2.332 0-4.229 1.896-4.229 4.229 0 2.331 1.896 4.228 4.229 4.228h4.582c3.985 0 7.229 3.243 7.229 7.229v2.291c0 3.986-3.243 7.229-7.229 7.229z" fill="#ef7816"/></g><g><path d="m114.857 155.591c-.828 0-1.5-.672-1.5-1.5v-29.786c0-.828.672-1.5 1.5-1.5s1.5.672 1.5 1.5v29.786c0 .828-.671 1.5-1.5 1.5z" fill="#ef7816"/></g></g></g></g><g><g><g><g><g><g><path d="m236.621 171.065c-10.14 8.04-45.06 35.2-68.99 47.34-28.27 14.35-55.52 0-77.66-2.71-7.16-.88-13.54.67-18.89 3.18-6.64 3.12-11.71 7.7-14.73 10.9l-.16.03-3.01.42v-54.86s3.25-5.55 10.36-10.44c13.43-9.25 29.28-6.83 44.59-8.79 14.2-1.82 28.01-5.87 40.8-12.33.92-.47 1.83-.94 2.74-1.43.37-.19.74-.39 1.1-.59.2-.1.4-.19.61-.24.01 0 .02-.01.03-.01.26-.07.54-.11.81-.09 1.93.13 3.31 1.8 3.59 3.6.2 1.24.31 2.46.32 3.68 0 .12 0 .24.01.36-.03 10.11-6.28 19.11-15.3 21.18l-5.45 1.24c-1.69.39-1.82 2.76-.17 3.34.12.04.24.08.36.12 19 6.56 38.32 2.23 56.85-5.84 12.25-5.33 31.85-18.92 42.9-4.18 1.4 1.87 1.07 4.71-.71 6.12z" fill="#fcc4ae"/></g></g><g><g><path d="m70.16 169.939c-.75 0-1.431-.409-1.78-1.08-.51-.979-.12-2.189.86-2.699h.01c.96-.49 2.189-.08 2.68.859.51.98.12 2.19-.85 2.7-.29.14-.601.22-.92.22zm7.48-2.79c-.92 0-1.72-.619-1.939-1.5-.141-.52-.061-1.06.22-1.52.27-.46.7-.78 1.22-.92 5.9-1.49 11.95-1.79 18.36-2.12l.27-.01c4.21-.21 8.561-.431 12.87-.98 15.021-1.92 29.19-6.21 42.12-12.74.96-.479 2.2-.069 2.68.891.25.47.29 1.01.12 1.52-.17.511-.52.92-1 1.16-13.33 6.74-27.939 11.16-43.41 13.14-4.46.57-8.84.79-13.08 1h-.1c-6.05.301-12.31.61-17.84 2.021-.161.039-.331.058-.491.058z" fill="#ffd2c0"/></g></g><g><g><path d="m237.331 164.946c-2.663-3.552-5.823-5.459-9.256-6.233-.216.918-.707 1.761-1.454 2.353-10.14 8.04-45.06 35.2-68.99 47.34-28.27 14.35-55.52 0-77.66-2.71-7.16-.88-13.54.67-18.89 3.18-2.959 1.39-5.607 3.071-7.9 4.791v16.559l3.01-.42.16-.03c3.02-3.2 8.09-7.78 14.73-10.9 5.35-2.51 11.73-4.06 18.89-3.18 22.14 2.71 49.39 17.06 77.66 2.71 23.93-12.14 58.85-39.3 68.99-47.34 1.78-1.41 2.11-4.251.71-6.12z" fill="#f2ad97"/></g></g><g><g><path d="m237.331 164.946c-1.401-1.869-2.939-3.282-4.583-4.315.887 1.823.447 4.188-1.127 5.435-10.14 8.04-45.06 35.2-68.99 47.34-28.27 14.35-55.52 0-77.66-2.71-7.16-.88-13.54.67-18.89 3.18-5.443 2.558-9.831 6.096-12.9 9.052v7.298l3.01-.42.16-.03c3.02-3.2 8.09-7.78 14.73-10.9 5.35-2.51 11.73-4.06 18.89-3.18 22.14 2.71 49.39 17.06 77.66 2.71 23.93-12.14 58.85-39.3 68.99-47.34 1.78-1.41 2.11-4.251.71-6.12z" fill="#e59076"/></g></g><g><g><g><g><g><path d="m67.794 228.178-11.441 1.601-.161.023-3.009.423-3.86.538c-2.489.35-4.785-1.389-5.134-3.878l-8.626-61.687c-.35-2.489 1.385-4.784 3.874-5.134l18.471-2.585c1.178-.161 2.319.138 3.225.777 1.003.69 1.721 1.79 1.909 3.101l.497 3.57 6.404 45.779 1.141 8.17.584 4.173c.349 2.484-1.39 4.779-3.874 5.129z" fill="#f1f2f2"/></g></g></g><g><g><path d="m71.668 223.049-.584-4.173-1.141-8.17-6.404-45.779-.497-3.57c-.189-1.311-.906-2.411-1.909-3.101-.831-.587-1.863-.868-2.936-.79l.342 2.46 6.404 45.779 1.141 8.17.584 4.173c.35 2.484-1.389 4.78-3.874 5.13l-11.441 1.601-.161.023-3.009.423-3.86.538c-.098.014-.192.004-.289.011l.155 1.111c.35 2.489 2.645 4.228 5.134 3.878l3.86-.538 3.009-.423.161-.023 11.441-1.601c2.484-.35 4.223-2.645 3.874-5.129z" fill="#e6e7e8"/></g></g><g><g><path d="m23.974 234.829h20.483c3.41 0 6.174-2.764 6.174-6.174v-72.121c0-3.41-2.764-6.174-6.174-6.174h-20.483c-3.41 0-6.174 2.764-6.174 6.174v72.121c0 3.41 2.764 6.174 6.174 6.174z" fill="#58595b"/></g></g><g><g><path d="m45.532 150.459c.061.35.099.707.099 1.075v72.121c0 3.41-2.764 6.174-6.174 6.174h-20.483c-.367 0-.725-.038-1.075-.1.509 2.897 3.032 5.1 6.075 5.1h20.483c3.41 0 6.174-2.764 6.174-6.174v-72.121c.001-3.043-2.202-5.566-5.099-6.075z" fill="#414042"/></g></g></g><g><g><g><circle cx="34.216" cy="211.32" fill="#fff" r="6.592"/></g></g></g><g><g><path d="m37.765 205.771c.657 1.025 1.043 2.241 1.043 3.549 0 3.641-2.951 6.592-6.592 6.592-1.308 0-2.524-.386-3.549-1.043 1.172 1.828 3.217 3.043 5.549 3.043 3.641 0 6.592-2.951 6.592-6.592 0-2.333-1.215-4.377-3.043-5.549z" fill="#e6e7e8"/></g></g></g></g></g></g></g></g></svg>