<svg id="Layer_1" enable-background="new 0 0 512 512" viewBox="0 0 512 512" xmlns="http://www.w3.org/2000/svg"><g><g fill="#203b72"><path d="m123.545 78.55c0-2.45 1.75-4.44 3.92-4.44h11.98c2.17 0 3.93 1.99 3.93 4.44v14.23h12.94v-34.44l-22.87-15.08-22.85 15.08v34.44h12.95z"/><path d="m25.755 14.01c-6.49 0-11.76 5.26-11.76 11.729v19.3h23.49v-19.3c0-6.469-5.26-11.729-11.73-11.729z"/><path d="m382.155 286.53-115.85 76.45v13.92l9.13-6.03c.09-.06.19-.12.29-.19l102.57-67.66c1.17-.77 2.52-1.16 3.86-1.16s2.69.39 3.86 1.16l111.99 73.88v-13.92z"/><path d="m215.425 29.68c0-8.64-7.04-15.67-15.68-15.67h-151.09c1.82 3.52 2.84 7.51 2.84 11.729v188.82c0 8.64 7.03 15.67 15.67 15.67h148.26zm-118.83 24.89c0-2.35 1.18-4.55 3.14-5.84l29.85-19.71c2.34-1.54 5.37-1.54 7.71 0l29.88 19.7c1.96 1.3 3.15 3.5 3.15 5.85v45.21c0 3.87-3.14 7-7 7h-59.73c-3.87 0-7-3.13-7-7zm48.5 140.88h-72.57c-3.87 0-7-3.13-7-7s3.13-7 7-7h72.57c3.86 0 7 3.13 7 7s-3.14 7-7 7zm38.55-27.86h-111.12c-3.87 0-7-3.14-7-7.01 0-3.86 3.13-7 7-7h111.12c3.87 0 7 3.14 7 7 0 3.87-3.13 7.01-7 7.01zm10.74-27.84h-121.86c-3.87 0-7-3.14-7-7 0-3.87 3.13-7 7-7h121.86c3.87 0 7 3.13 7 7 0 3.86-3.13 7-7 7z"/></g><path d="m375.153 109.302v93.113l-15.686-15.686c-2.734-2.734-7.167-2.734-9.901 0s-2.734 7.168 0 9.902l27.638 27.638c1.367 1.367 3.159 2.051 4.951 2.051s3.583-.684 4.951-2.051l27.638-27.638c2.734-2.734 2.734-7.168 0-9.902s-7.167-2.734-9.901 0l-15.686 15.686v-100.111c0-3.865-3.132-7-6.998-7.002l-113.414-.057c-.001 0-.002 0-.003 0-3.865 0-7 3.133-7.001 6.998-.002 3.867 3.131 7.004 6.998 7.006z" fill="#10a4de"/><path d="m219.985 397.503h-98.277v-86.363l15.686 15.686c1.367 1.367 3.159 2.051 4.951 2.051s3.583-.684 4.951-2.051c2.734-2.734 2.734-7.168 0-9.902l-27.638-27.638c-2.734-2.734-7.167-2.734-9.901 0l-27.638 27.638c-2.734 2.734-2.734 7.168 0 9.902s7.167 2.734 9.901 0l15.686-15.686v93.365c0 3.867 3.135 7.002 7.001 7.002h105.279c3.867 0 7.001-3.135 7.001-7.002s-3.136-7.002-7.002-7.002z" fill="#10a4de"/><path d="m356.075 415.7h52.13v82.29h-52.13z" fill="#203b72"/><path d="m286.455 380.38v117.61h55.62v-89.29c0-3.87 3.13-7 7-7h66.13c3.87 0 7 3.13 7 7v89.29h55.62v-117.63l-95.67-63.11z" fill="#203b72"/></g></svg>