<svg id="Layer_1" enable-background="new 0 0 512 512" viewBox="0 0 512 512" xmlns="http://www.w3.org/2000/svg"><g><path d="m341.33 480.967h-170.66l31.023-93.088h108.614l17.907 53.731z" fill="#625ac5"/><path d="m328.214 441.61h-93.823c-7.099 0-13.285 4.836-14.998 11.725l-6.872 27.633h-41.851l31.022-93.088h108.615z" fill="#5149bf"/><path d="m387.879 496.545c0 4.265-1.731 8.129-4.533 10.932-2.792 2.792-6.656 4.523-10.921 4.523h-232.849c-8.531 0-15.455-6.924-15.455-15.455 0-8.582 3.482-16.361 9.108-21.987 5.625-5.625 13.394-9.108 21.987-9.108h20.627l11.436 7.202 29.096-7.202h140.41c17.175.001 31.094 13.92 31.094 31.095z" fill="#827cd2"/><path d="m215.694 512h-76.119c-8.531 0-15.455-6.924-15.455-15.455 0-8.582 3.482-16.361 9.108-21.987 5.625-5.625 13.394-9.108 21.987-9.108h61.159s-13.425 9.479-13.425 32.104c.001 12.712 12.745 14.446 12.745 14.446z" fill="#625ac5"/><path d="m465.451 23.275v43.881h-51.69v-43.881c-.001-12.858 15.567-23.275 28.425-23.275 6.419 0 12.24 2.607 16.454 6.811 4.204 4.213 6.811 10.035 6.811 16.464z" fill="#e8ecf9"/><path d="m512 92.913v279.635c0 25.603-20.761 46.364-46.364 46.364h-419.272c-25.603 0-46.364-20.761-46.364-46.364v-279.635c0-25.613 20.761-46.364 46.364-46.364h419.272c25.603 0 46.364 20.751 46.364 46.364z" fill="#827cd2"/><path d="m191.348 418.912h-144.984c-25.603 0-46.364-20.761-46.364-46.364v-279.635c0-25.613 20.761-46.364 46.364-46.364h120.175v341.134c0 22.907 24.809 31.229 24.809 31.229z" fill="#625ac5"/><path d="m480.967 93.026v248.365c0 8.541-6.913 15.455-15.455 15.455h-403.457l-5.996-248.242 37.029-31.033h372.425c8.541.001 15.454 6.925 15.454 15.455z" fill="#c2eafb"/><path d="m166.539 77.572v279.275h-120.052c-8.541 0-15.455-6.913-15.455-15.455v-248.366c0-8.531 6.913-15.455 15.455-15.455h120.052z" fill="#91d4f2"/><path d="m442.186 0c-12.858 0-23.274 10.417-23.274 23.275v333.571h-325.824v-93.088l24.521-85.34-24.521-131.869v-15.64c0-17.072 13.837-30.909 30.909-30.909z" fill="#f3f5fc"/><path d="m193.316 0c-26.963 10.303-26.778 41.676-26.778 41.676v222.082s-24.902 49.29-47.342 93.088h-26.108v-325.937c0-17.072 13.837-30.909 30.909-30.909z" fill="#e8ecf9"/><path d="m449.945 294.667v62.303c0 17.072-13.847 30.909-30.909 30.909h-252.889c.258-.134.391-.196.391-.196l-26.901-4.389v-114.168l26.901-5.368h252.497c17.062 0 30.91 13.837 30.91 30.909z" fill="#80e0b7"/><path d="m166.539 387.683-.144.196h-73.43c-17.062 0-30.909-13.837-30.909-30.909v-62.303c0-17.072 13.847-30.909 30.909-30.909h73.574c-20.699 6.027-19.988 26.242-19.988 26.242v66.64c0 25.954 19.988 31.043 19.988 31.043z" fill="#36d49b"/><path d="m248.242 124.121-15.517 108.605h-66.186l-26.902-93.088v-15.517z" fill="#fad989"/><path d="m166.539 124.121v108.605h-11.447c-8.541 0-15.455-6.913-15.455-15.455v-93.15z" fill="#f6ca56"/><path d="m271.516 124.059v.124c0 8.531-6.924 15.455-15.455 15.455h-89.523c0-1.123-8.943-13.343-8.943-13.343l8.943-17.69h89.523c8.532 0 15.455 6.923 15.455 15.454z" fill="#827cd2"/><path d="m166.539 108.605v31.033h-26.963c-8.531 0-15.455-6.924-15.455-15.455v-.124c0-8.531 6.924-15.455 15.455-15.455h26.963z" fill="#625ac5"/><path d="m372.363 46.549v170.722c0 8.541-6.913 15.455-15.455 15.455h-23.336l-35.154-11.468-26.901 11.468h-38.791v-186.177z" fill="#ff899f"/><path d="m372.879 62.06h-140.667c-8.284 0-15-6.716-15-15v-1.03c0-8.284 6.716-15 15-15h140.667c8.284 0 15 6.716 15 15v1.03c0 8.285-6.716 15-15 15z" fill="#827cd2"/><path d="m333.576 232.727h-62.061v-62.576c0-8.284 6.716-15 15-15h32.061c8.284 0 15 6.716 15 15z" fill="#827cd2"/><path d="m333.576 100.818h-62.061c-4.268 0-7.727-3.459-7.727-7.727s3.459-7.727 7.727-7.727h62.061c4.268 0 7.727 3.459 7.727 7.727s-3.459 7.727-7.727 7.727z" fill="#fad989"/><path d="m333.576 131.848h-62.061c-4.268 0-7.727-3.459-7.727-7.727s3.459-7.727 7.727-7.727h62.061c4.268 0 7.727 3.459 7.727 7.727s-3.459 7.727-7.727 7.727z" fill="#fad989"/><g><path d="m405.248 351.668-24.501-27.109 22.453-23.669c2.937-3.097 2.808-7.988-.288-10.925-3.097-2.937-7.987-2.807-10.925.288l-15.776 16.63v-12.095c0-4.268-3.459-7.727-7.727-7.727s-7.727 3.459-7.727 7.727v62.061c0 4.268 3.459 7.727 7.727 7.727s7.727-3.459 7.727-7.727v-14.258l17.57 19.44c1.525 1.687 3.626 2.546 5.735 2.546 6.646 0 10.224-7.939 5.732-12.909z" fill="#f3f5fc"/><path d="m149.862 321.038c9.499-14.585-1.037-33.976-18.443-33.976h-18.935c-4.268 0-7.727 3.459-7.727 7.727v62.061c0 4.22 3.401 7.727 7.76 7.727.001 0 22.05-.074 22.05-.074 13.471 0 24.432-10.96 24.432-24.431 0-7.688-3.57-14.552-9.137-19.034zm-18.442-18.522c3.613 0 6.553 2.939 6.553 6.552s-2.94 6.553-6.553 6.553l-11.208.017v-13.122zm3.148 46.532-14.356.043v-17.983l14.356-.016c4.95 0 8.977 4.028 8.977 8.978 0 4.951-4.027 8.978-8.977 8.978z" fill="#e8ecf9"/><g fill="#f3f5fc"><path d="m213.333 287.061c-21.371 0-38.757 17.386-38.757 38.757 0 21.372 17.386 38.758 38.757 38.758 21.372 0 38.758-17.386 38.758-38.758 0-21.37-17.386-38.757-38.758-38.757zm0 62.061c-12.849 0-23.303-10.454-23.303-23.304 0-12.849 10.454-23.303 23.303-23.303 12.85 0 23.304 10.454 23.304 23.303 0 12.85-10.454 23.304-23.304 23.304z"/><path d="m306.425 287.061c-21.372 0-38.758 17.386-38.758 38.757 0 21.372 17.386 38.758 38.758 38.758 21.371 0 38.757-17.386 38.757-38.758 0-21.37-17.387-38.757-38.757-38.757zm0 62.061c-12.85 0-23.304-10.454-23.304-23.304 0-12.849 10.454-23.303 23.304-23.303 12.849 0 23.303 10.454 23.303 23.303-.001 12.85-10.455 23.304-23.303 23.304z"/></g></g></g><g/><g/><g/><g/><g/><g/><g/><g/><g/><g/><g/><g/><g/><g/><g/></svg>