<svg clip-rule="evenodd" fill-rule="evenodd" height="1.707in" image-rendering="optimizeQuality" shape-rendering="geometricPrecision" text-rendering="geometricPrecision" viewBox="0 0 1707 1707" width="1.707in" xmlns="http://www.w3.org/2000/svg"><g id="Layer_x0020_1"><path d="m1483 1327h-247c-11 0-20-9-20-20v-141c1-18 8-34 20-46l165-165c30-29 75-35 110-16v-166c0-123 187-123 187 0v339c0 5-2 10-6 14l-195 195c-4 4-9 6-14 6z" fill="#ffad92"/><path d="m1504 1461h-286c-20 0-36-16-36-36v-102c0-20 16-36 36-36h286c20 0 36 16 36 36v102c0 20-16 36-36 36z" fill="#5684b9"/><path d=""/><path d="m1698 1112v-339c0-67-55-97-105-92 42 5 81 36 81 92v339c0 5-2 10-5 14l-161 161c6 1 12 3 17 6l167-167c4-4 6-9 6-14z" fill="#ff9c83"/><path d="m1525 1293c-12-8-23-6-36-6 19 0 35 16 35 36v98h16v-98c0-12-6-23-15-30z" fill="#4d77a7"/><path d="m224 1327h247c11 0 20-9 20-20v-141c-2-18-9-34-21-46l-165-165c-29-29-74-35-110-16v-166c0-123-186-123-186 0v339c0 5 2 10 6 14l195 195c4 4 9 6 14 6z" fill="#ffad92"/><path d="m203 1461h286c19 0 36-16 36-36v-102c0-20-17-36-36-36h-286c-20 0-36 16-36 36v102c0 20 16 36 36 36z" fill="#5684b9"/><path d=""/><path d="m9 1112v-339c0-67 55-97 105-92-43 5-82 36-82 92v339c0 5 2 10 6 14l161 161c-6 1-12 3-17 6l-167-167c-4-4-6-9-6-14z" fill="#ff9c83"/><path d="m182 1293c12-8 23-6 36-6-20 0-36 16-36 36v98h-15v-98c0-12 6-23 15-30z" fill="#4d77a7"/><path d="m959 1142h-213c-40 0-73-32-73-72v-141c-8-4-17-9-25-14l-122 70c-34 20-79 8-99-27l-107-184c-20-35-8-80 27-100l121-70v-29l-121-71c-35-20-47-65-27-99l107-185c20-35 65-46 99-26l122 70c8-6 17-10 25-15v-140c0-41 33-73 73-73h213c40 0 73 33 73 73v140c9 4 17 9 25 14l122-70c35-20 79-8 99 27l107 184c20 35 8 80-27 100l-121 70v29l121 71c35 20 47 64 27 99l-107 185c-20 35-65 46-99 26l-122-70c-8 5-16 10-25 15v140c0 41-33 73-73 73z" fill="#95afd1"/><path d="m853 889c-166 0-301-134-301-300 0-165 135-300 301-300 165 0 300 135 300 300 0 166-135 300-300 300z" fill="#86a7cd"/><path d="m853 852c-145 0-263-118-263-263s118-263 263-263 263 118 263 263-118 263-263 263z" fill="#fc0"/><path d="m853 366c-123 0-223 100-223 223s100 223 223 223 223-100 223-223-100-223-223-223z" fill="#ffa725"/><path d="m849 703c-70 0-92-77-56-83 25-3 19 25 32 36 23 19 72-1 54-35-13-24-96-8-96-83 0-86 134-94 146-8 4 26-36 32-39 5-7-45-87-25-64 16 13 24 96 8 96 83 0 42-31 69-73 69z" fill="#ffe479"/><path d="m853 736c-26 0-20-31-20-53 0-27 40-27 40 0 0 22 5 53-20 53zm0-226c-25 0-20-29-20-48 0-26 40-26 40 0 0 19 4 48-20 48z" fill="#ffe479"/><path d="m1687 1671h-1667c-11 0-20-9-20-20v-210c0-11 9-20 20-20h1667c11 0 20 9 20 20v210c0 11-9 20-20 20z" fill="#353f47"/></g></svg>