<svg height="512" viewBox="0 0 58 58" width="512" xmlns="http://www.w3.org/2000/svg"><g id="Page-1" fill="none" fill-rule="evenodd"><g id="046---Rent" fill-rule="nonzero" transform="translate(0 -1)"><path id="Shape" d="m52 25.79v32.21c0 .5522847-.4477153 1-1 1h-44c-.55228475 0-1-.4477153-1-1v-32.21l23-19.08z" fill="#f5efca"/><path id="Shape" d="m45 14.97v-6.97c0-.55228475.4477153-1 1-1h5c.5522847 0 1 .44771525 1 1v12.78z" fill="#c03a2b"/><path id="Shape" d="m52 25.79v4.1l-1.27-1.06-21.73-18.02-21.72 18.02-1.28 1.05v-4.09l23-19.08z" fill="#e4c05c"/><path id="Shape" d="m57.74 25.9-2.49 2.82c-.3609645.4102397-.9843919.4547703-1.4.1l-1.85-1.53-23-19.08-23 19.08-1.85 1.53c-.41560805.3547703-1.03903552.3102397-1.4-.1l-2.49-2.82c-.18520367-.2035065-.27836728-.4743351-.25755257-.7487109.02081471-.2743757.15376824-.5280506.36755257-.7012891l27.98-23.22c.3779117-.30994217.9220883-.30994217 1.3 0l27.98 23.22c.2137843.1732385.3467379.4269134.3675526.7012891.0208147.2743758-.0723489.5452044-.2575526.7487109z" fill="#e64c3c"/><path id="Rectangle-path" d="m16.255 26.028h15.57v2h-15.57z" fill="#b19046" transform="matrix(.576 -.817 .817 .576 -11.902 31.105)"/><path id="Rectangle-path" d="m34.402 18.785h2v20.568h-2z" fill="#b19046" transform="matrix(.817 -.577 .577 .817 -10.284 25.734)"/><rect id="Rectangle-path" fill="#3b97d3" height="18" rx="2" transform="matrix(.985 .174 -.174 .985 7.776 -4.394)" width="37" x="10.5" y="33.241"/><g fill="#fff"><path id="Shape" d="m18.543 35.32-2.954-.52c-.5433534-.0956696-1.0615329.2667876-1.158.81l-.521 2.952-.868 4.924c-.0956296.5436818.2673812 1.0620129.811 1.158.0573766.0107299.1156288.0160865.174.016.4848773-.0003616.8996315-.348519.984-.826l.521-2.955 1.362.24 1.1 3.694c.126061.4239756.5156804.7147667.958.715.096562.0002786.1926233-.0138778.285-.042.5288984-.1576356.8301008-.7139425.673-1.243l-.931-3.129c1.3021273-.4356128 2.1423219-1.6996436 2.0398656-3.0688758s-1.12141-2.4941474-2.4738656-2.7311242zm.053 3.774c-.2169077.1535585-.4866191.2130536-.748.165l-1.969-.347.348-1.971 1.969.349c.3962073.0717009.710766.3740317.7981114.7670863.0873455.3930547-.0695617.8001557-.3981114 1.0329137z"/><path id="Shape" d="m28.392 37.057-3.94-.7c-.5436818-.0956296-1.0620129.2673812-1.158.811l-1.394 7.883c-.0956296.5436818.2673812 1.0620129.811 1.158l3.939.7c.0577137.0107287.1162976.0160849.175.016.5296833.0159817.9798649-.3840147 1.0263103-.9118998.0464453-.5278851-.326974-1.0003452-.8513103-1.0771002l-2.955-.522.348-1.97 2.954.521c.0574065.0104061.1156595.0154279.174.015.509991-.0097412.9309148-.4017685.9768412-.9097808.0459263-.5080123-.2978658-.9691729-.7978412-1.0702192l-2.954-.521.348-1.97 2.954.52c.3581021.0775795.7299571-.0469008.969182-.3244385s.3075069-.6636842.1779664-1.0064304-.4361572-.5872002-.7991484-.6371311z"/><path id="Shape" d="m36.27 38.446c-.2612467-.0462167-.5301517.0132745-.7475231.1653782s-.3653911.3843519-.4114769.6456218l-.653 3.707-1.344-4.514c-.1332919-.4431377-.5532118-.7369419-1.0151943-.7102982-.4619826.0266437-.8453418.366775-.9268057.8222982l-1.389 7.878c-.0709282.3555032.0560921.7215532.3319806.9567102.2758886.2351569.6574372.3025916.9972173.1762476s.5845769-.4266793.6398021-.7849578l.654-3.707 1.343 4.513c.126061.4239756.5156804.7147667.958.715h.058c.4625144-.0272779.845723-.3686895.926-.825l1.389-7.884c.0932231-.5419477-.2686302-1.0574771-.81-1.154z"/><path id="Shape" d="m45.133 40.009-5.909-1.042c-.3555032-.0709282-.7215532.0560921-.9567102.3319806-.2351569.2758886-.3025916.6574372-.1762476.9972173s.4266793.5845769.7849578.6398021l1.971.347-1.216 6.894c-.0956696.5433534.2667876 1.0615329.81 1.158.0577192.0106891.1162994.016045.175.016.485194-.0004473.9000616-.3491216.984-.827l1.216-6.894 1.969.348c.0578078.0099115.1163487.0149293.175.015.5166541-.0026333.9462418-.3984113.9911231-.9131191.0448813-.5147077-.3097221-.9788653-.8181231-1.0708809z"/></g><circle id="Oval" cx="29" cy="20" fill="#e4c05c" r="3"/></g></g></svg>