<svg height="512" viewBox="0 0 58 58" width="512" xmlns="http://www.w3.org/2000/svg"><g id="Page-1" fill="none" fill-rule="evenodd"><g id="049---Notification"><path id="Path" d="m49.36 53.87c.2843435 1.3662099-.2868634 2.7685623-1.4448761 3.547271s-2.6722351.7787087-3.8302478 0-1.7292196-2.1810611-1.4448761-3.547271" fill="#b19046"/><path id="Path" d="m44 31.24v-2.24c.0081672-1.1011688.8988312-1.9918328 2-2 1.1045695 0 2 .8954305 2 2v2.24" fill="#f29c1f"/><path id="Path" d="m37.41 46h-31.41c-1.10320187-.0032948-1.9967052-.8967981-2-2v-24h36v16z" fill="#ecf0f1"/><path id="Path" d="m57.1 52.76c-2.5330355.537192-5.098521.9079848-7.68 1.11-1.1.08-2.25.13-3.42.13s-2.32-.05-3.42-.13c-2.581479-.2020152-5.1469645-.572808-7.68-1.11-.3975845-.0829882-.7204271-.3722702-.8463836-.7583989-.1259564-.3861288-.0357908-.8101354.2363836-1.1116011 1.3254645-1.4292197 2.382372-3.085719 3.12-4.89.3904188-1.0251668.5903645-2.113007.59-3.21v-3.22c-.0557401-2.2065759.7024324-4.3565111 2.13-6.04.9506814-1.0740258 2.1953222-1.8458422 3.58-2.22 1.4986884-.4133446 3.0813116-.4133446 4.58 0 3.62 1 5.71 4.32 5.71 8.26v3.22c0 3.15 1.62 5.68 3.71 8.1.2721744.3014657.36234.7254723.2363836 1.1116011-.1259565.3861287-.4487991.6754107-.8463836.7583989z" fill="#f0c419"/><path id="Path" d="m42 40.571c-.5522847 0-1-.4477153-1-1 0-1.033.253-4.472 3.512-5.37.4846791-.1337328.9852096-.2013447 1.488-.201.5522847 0 1 .4477153 1 1s-.4477153 1-1 1c-.323649.0002069-.6458241.0435895-.958.129-1.842.508-2.042 2.576-2.042 3.442 0 .5522847-.4477153 1-1 1z" fill="#fff"/><path id="Path" d="m22 29c3.3137085 0 6 2.6862915 6 6v11h-12v-11c0-3.3137085 2.6862915-6 6-6z" fill="#cb8252"/><path id="Path" d="m38 4v10.4l-6-5.4v-5c0-.55228475.4477153-1 1-1h4c.5522847 0 1 .44771525 1 1z" fill="#c03a2b"/><path id="Path" d="m41.89 22h-39.78c-.86007482.0171508-1.64025069-.5019497-1.95666215-1.3018913s-.10242926-1.7122745.53666215-2.2881087l19.88-17.87c.8173179-.72018896 2.0426821-.72018896 2.86 0l8.57 7.7 6 5.4 5.31 4.77c.6390914.5758342.8530736 1.4881671.5366621 2.2881087-.3164114.7999416-1.0965873 1.3190421-1.9566621 1.3018913z" fill="#e64c3c"/></g></g></svg>