<svg height="512" viewBox="0 0 58 58" width="512" xmlns="http://www.w3.org/2000/svg"><g id="Page-1" fill="none" fill-rule="evenodd"><g id="004---Invoicing" fill-rule="nonzero"><path id="Shape" d="m16 17h42v38c0 1.6568542-1.3431458 3-3 3h-52c-1.65685425 0-3-1.3431458-3-3v-38z" fill="#ecf0f1"/><path id="Shape" d="m16 19h42v-16c0-1.65685425-1.3431458-3-3-3h-52c-1.65685425 0-3 1.34314575-3 3v16z" fill="#3b97d3"/><g fill="#fff"><path id="Shape" d="m9 7c.55228475 0 1-.44771525 1-1s-.44771525-1-1-1h-4c-.55228475 0-1 .44771525-1 1s.44771525 1 1 1h1v6h-1c-.55228475 0-1 .4477153-1 1s.44771525 1 1 1h4c.55228475 0 1-.4477153 1-1s-.44771525-1-1-1h-1v-6z"/><path id="Shape" d="m52 11c.5522847 0 1-.4477153 1-1 0-.55228475-.4477153-1-1-1h-3v-2h3c.5522847 0 1-.44771525 1-1s-.4477153-1-1-1h-4c-.5522847 0-1 .44771525-1 1v8c0 .5522847.4477153 1 1 1h4c.5522847 0 1-.4477153 1-1s-.4477153-1-1-1h-3v-2z"/><path id="Shape" d="m37 7c.5522847 0 1-.44771525 1-1s-.4477153-1-1-1h-4c-.5522847 0-1 .44771525-1 1s.4477153 1 1 1h1v6h-1c-.5522847 0-1 .4477153-1 1s.4477153 1 1 1h4c.5522847 0 1-.4477153 1-1s-.4477153-1-1-1h-1v-6z"/><path id="Shape" d="m16 5c-.5522847 0-1 .44771525-1 1v3.764l-2.1-4.211c-.2040519-.42147024-.6732513-.64490274-1.129074-.53766446-.4558226.10723828-.7761896.51642664-.770926.98466446v8c0 .5522847.4477153 1 1 1s1-.4477153 1-1v-3.764l2.105 4.211c.2070599.415452.6727907.6337945 1.1245837.5272238.4517929-.1065707.7708502-.510032.7704163-.9742238v-8c0-.55228475-.4477153-1-1-1z"/><path id="Shape" d="m23.243 5.03c-.535714-.13419012-1.0787826.19129287-1.213.727l-1.03 4.12-1.03-4.12c-.1373346-.53205934-.6782442-.85362876-1.2112708-.72009737-.5330265.13353139-.8584506.67213082-.7287292 1.20609737l2 8c.1114998.4448894.5113511.7568951.97.7568951s.8585002-.3120057.97-.7568951l2-8c.1341901-.53571397-.1912929-1.07878256-.727-1.213z"/><path id="Shape" d="m28 5c-1.6568542 0-3 1.34314575-3 3v4c0 1.6568542 1.3431458 3 3 3s3-1.3431458 3-3v-4c0-1.65685425-1.3431458-3-3-3zm1 7c0 .5522847-.4477153 1-1 1s-1-.4477153-1-1v-4c0-.55228475.4477153-1 1-1s1 .44771525 1 1z"/><path id="Shape" d="m42 7c.5522847 0 1 .44771525 1 1s.4477153 1 1 1 1-.44771525 1-1c0-1.65685425-1.3431458-3-3-3s-3 1.34314575-3 3v4c0 1.6568542 1.3431458 3 3 3s3-1.3431458 3-3c0-.5522847-.4477153-1-1-1s-1 .4477153-1 1-.4477153 1-1 1-1-.4477153-1-1v-4c0-.55228475.4477153-1 1-1z"/></g><path id="Shape" d="m19 25h-13c-.55228475 0-1-.4477153-1-1s.44771525-1 1-1h13c.5522847 0 1 .4477153 1 1s-.4477153 1-1 1z" fill="#2980ba"/><path id="Shape" d="m19 29h-13c-.55228475 0-1-.4477153-1-1s.44771525-1 1-1h13c.5522847 0 1 .4477153 1 1s-.4477153 1-1 1z" fill="#2980ba"/><path id="Shape" d="m52 32h-46c-1.1045695 0-2 .8954305-2 2v18c0 1.1045695.8954305 2 2 2h46c1.1045695 0 2-.8954305 2-2v-18c0-1.1045695-.8954305-2-2-2zm0 6h-8v-4h8zm-10-4v4h-36v-4zm-36 6h36v12h-36zm38 12v-12h8v12z" fill="#bdc3c7"/><path id="Shape" d="m18 42.081v-3.954c1.15.283 2 1.022 2 1.873 0 .5522847.4477153 1 1 1s1-.4477153 1-1c0-1.932-1.721-3.547-4-3.919v-.081c0-.5522847-.4477153-1-1-1s-1 .4477153-1 1v.081c-2.279.372-4 1.987-4 3.919s1.721 3.547 4 3.919v3.954c-1.15-.283-2-1.022-2-1.873 0-.5522847-.4477153-1-1-1s-1 .4477153-1 1c0 1.932 1.721 3.547 4 3.919v.081c0 .5522847.4477153 1 1 1s1-.4477153 1-1v-.081c2.279-.372 4-1.987 4-3.919s-1.721-3.547-4-3.919zm-4-2.081c0-.851.85-1.59 2-1.873v3.746c-1.15-.283-2-1.022-2-1.873zm4 7.873v-3.746c1.15.283 2 1.022 2 1.873s-.85 1.59-2 1.873z" fill="#4fba6f"/></g></g></svg>