<svg id="Icons" viewBox="0 0 60 60" xmlns="http://www.w3.org/2000/svg"><path d="m43 16v25c0 1.105-.895 2-2 2h-36c-1.1 0-2-.9-2-2v-25l20-13z" fill="#ddd"/><path d="m33 8.86v-4.86c0-.55.45-1 1-1h3c.55 0 1 .45 1 1v8z" fill="#c6352a"/><path d="m42.722 18c-.407 0-.819-.111-1.191-.344l-18.531-11.616-18.531 11.616c-1.071.669-2.472.331-3.131-.76-.659-1.09-.325-2.518.746-3.189l19.723-12.363c.731-.458 1.654-.458 2.385 0l19.724 12.363c1.071.671 1.404 2.099.745 3.189-.43.712-1.176 1.104-1.94 1.104z" fill="#e14533"/><path d="m8 43v-20c0-1.105.895-2 2-2h6c1.105 0 2 .895 2 2v20z" fill="#2a2e44"/><rect fill="#58c7e0" height="14" rx="2" width="14" x="24" y="21"/><path d="m36 20h-10c-1.654 0-3 1.346-3 3v10c0 1.654 1.346 3 3 3h10c1.654 0 3-1.346 3-3v-10c0-1.654-1.346-3-3-3zm1 3v4h-5v-5h4c.552 0 1 .449 1 1zm-11-1h4v5h-5v-4c0-.551.448-1 1-1zm-1 11v-4h5v5h-4c-.552 0-1-.448-1-1zm11 1h-4v-5h5v4c0 .552-.448 1-1 1z" fill="#2a2e44"/><path d="m56.53 26.36c-4.35-5.46-12.33-5.79-17.14-1-3.33 3.33-4.18 8.2-2.56 12.31l-14.5 14.5c-.2.21-.33.5-.33.81v4.87c0 .63.52 1.15 1.15 1.15h4.87c.31 0 .6-.13.82-.33l1.99-2.01c.28-.27.4-.66.33-1.04l-.61-3.04c-.05-.2.12-.37.33-.33l3.05.61c.36.08.75-.05 1.03-.31l1.56-1.58c.28-.26.39-.65.32-1.03l-.61-3.05c-.04-.19.13-.36.34-.33l3.04.61c.37.08.76-.05 1.04-.31l2.68-2.69c4.59 1.81 10.09.54 13.38-3.79 3.12-4.11 3.04-9.99-.18-14.02zm-4.95 7.93c-1.34 1.35-3.52 1.35-4.87 0-1.34-1.34-1.34-3.52 0-4.87 1.35-1.34 3.53-1.34 4.87 0 1.35 1.35 1.35 3.53 0 4.87z" fill="#f7b626"/><path d="m49.147 36.303c-1.188 0-2.304-.463-3.143-1.302-1.732-1.732-1.732-4.551 0-6.284 1.733-1.733 4.554-1.731 6.285 0 .839.838 1.302 1.955 1.302 3.142s-.462 2.303-1.302 3.142c-.839.84-1.955 1.302-3.143 1.302zm0-6.886c-.626 0-1.252.238-1.729.715-.952.952-.952 2.502 0 3.455.924.922 2.535.924 3.457 0 .462-.461.716-1.075.716-1.728s-.254-1.267-.716-1.728c-.477-.477-1.103-.715-1.729-.715z" fill="#d89e2a"/></svg>