<svg height="512" viewBox="0 0 64 64" width="512" xmlns="http://www.w3.org/2000/svg"><g id="Maintenance_Laptop" data-name="Maintenance Laptop"><path d="m62 19v39h-60v-39a3 3 0 0 1 2-2.82c.68-.26 0-.18 12.62-.18l3.38 1 3.37-1h35.63a3 3 0 0 1 3 3z" fill="#50d9d7"/><path d="m1 58h62a1 1 0 0 1 1 1v2a3 3 0 0 1 -3 3h-58a3 3 0 0 1 -3-3v-2a1 1 0 0 1 1-1z" fill="#00bebd"/><path d="m60 19v4h-40l-4-5h43a1 1 0 0 1 1 1z" fill="#93e6e5"/><path d="m60 23v33h-56c0-39.55-.09-37.19.19-37.59a1 1 0 0 1 .81-.41h14.08a4 4 0 0 1 3.12 1.5l1.6 2a4 4 0 0 0 3.12 1.5z" fill="#fff"/><path d="m39 60h-14a2 2 0 0 1 -2-2h18a2 2 0 0 1 -2 2z" fill="#f3f3f3"/><path d="m33.21 21a16 16 0 0 1 -5.21 4.86v28.14h-16v-28.14a16.06 16.06 0 0 1 -7.46-9.75c.31-.11-.54-.11 11.46-.11l4 5z" fill="#f3f3f3"/><path d="m34.82 18a16.15 16.15 0 0 1 -3.22 5h-11.6l-4-5z" fill="#50d9d7"/><path d="m35.48 16a14.19 14.19 0 0 1 -.66 2h-29.65a16.72 16.72 0 0 1 -.65-2c.3-.06-.5 0 12.11 0l3.37 1 3.37-1z" fill="#00bebd"/><path d="m27.54.21a1 1 0 0 0 -1.54.85v10.19l-6 1.75-6-1.71v-10.23a1 1 0 0 0 -1.54-.85 14 14 0 0 0 1.54 24.44v31.35h12v-31.35a14 14 0 0 0 1.54-24.44z" fill="#ffac00"/><path d="m54 36.69v-1.38a1.31 1.31 0 0 0 -1.31-1.31 1.3 1.3 0 0 1 -1.21-.81c-.06-.17-.13-.33-.2-.49a1.28 1.28 0 0 1 .28-1.43 1.31 1.31 0 0 0 0-1.85l-1-1a1.31 1.31 0 0 0 -1.85 0 1.29 1.29 0 0 1 -1.43.28l-.49-.2a1.3 1.3 0 0 1 -.79-1.19 1.31 1.31 0 0 0 -1.31-1.31h-1.38a1.31 1.31 0 0 0 -1.31 1.31 1.3 1.3 0 0 1 -.81 1.21l-.49.2a1.28 1.28 0 0 1 -1.43-.28 1.31 1.31 0 0 0 -1.85 0l-1 1a1.31 1.31 0 0 0 0 1.85 1.29 1.29 0 0 1 .28 1.43c-.07.16-.14.32-.2.49a1.3 1.3 0 0 1 -1.21.81 1.31 1.31 0 0 0 -1.29 1.29v1.38a1.31 1.31 0 0 0 1.31 1.31 1.3 1.3 0 0 1 1.21.81c.06.17.13.33.2.49a1.28 1.28 0 0 1 -.28 1.43 1.31 1.31 0 0 0 0 1.85l1 1a1.31 1.31 0 0 0 1.85 0 1.29 1.29 0 0 1 1.43-.28l.49.2a1.3 1.3 0 0 1 .79 1.19 1.31 1.31 0 0 0 1.31 1.31h1.38a1.31 1.31 0 0 0 1.31-1.31 1.3 1.3 0 0 1 .81-1.21l.49-.2a1.28 1.28 0 0 1 1.43.28 1.31 1.31 0 0 0 1.85 0l1-1a1.31 1.31 0 0 0 0-1.85 1.29 1.29 0 0 1 -.28-1.43c.07-.16.14-.32.2-.49a1.3 1.3 0 0 1 1.19-.79 1.31 1.31 0 0 0 1.31-1.31z" fill="#50d9d7"/><circle cx="44" cy="36" fill="#00bebd" r="5"/><g fill="#d9d9d9"><path d="m33 48h6v2h-6z"/><path d="m43 48h13v2h-13z"/><path d="m33 52h6v2h-6z"/><path d="m43 52h13v2h-13z"/></g><path d="m20 52a2 2 0 0 1 -2-2v-10a2 2 0 0 1 4 0v10a2 2 0 0 1 -2 2z" fill="#ea9706"/></g></svg>