<svg enable-background="new 0 0 512 512" viewBox="0 0 512 512" xmlns="http://www.w3.org/2000/svg"><g id="_x35_0_Loan"/><g id="_x34_9_Global_Economy"/><g id="_x34_8_Marketplace"/><g id="_x34_7_Protection"/><g id="_x34_6_Money"/><g id="_x34_5_Money_Management"/><g id="_x34_4_Invoice"/><g id="_x34_3_Interest_Rate"/><g id="_x34_2_Supply"/><g id="_x34_1_Monthly_Bill"><g><g><g><path d="m512 124.384v250.705c0 12.053-8.365 22.159-19.615 24.807-204.443-35.918-271.282-172.637-204.233-291.171 74.595-.669 149.211 4.554 223.848 15.659z" fill="#7888af"/><path d="m492.385 399.896c-1.885.453-3.853.69-5.882.69h-371.38c-14.082 0-25.497-11.414-25.497-25.497v-250.705c66.158-9.849 132.337-15.072 198.526-15.659 10.178 98.97 52.673 241.856 204.233 291.171z" fill="#687daa"/></g><g><path d="m461.006 115.885v250.715s-57.574 33.986-73.492 12.643c-122.169-46.935-125.961-165.11-98.589-263.358z" fill="#fff8e6"/><path d="m423.126 366.6-21.603 59.483h-235.406c-14.082 0-25.497-11.414-25.497-25.497v-284.701h148.305c9.457 81.106 40.939 188.42 134.201 250.715z" fill="#ffeab7"/><path d="m461.009 366.595-59.489 59.489v-42.492c0-9.387 7.61-16.997 16.997-16.997z" fill="#ffbe73"/></g><g><g><path d="m512 56.402v67.982h-222.004c-35.81-28.144-34.784-62.117-4.193-93.479h200.7c14.083 0 25.497 11.415 25.497 25.497z" fill="#ff938a"/></g><path d="m289.996 124.384h-200.37v-67.982c0-14.082 11.414-25.497 25.497-25.497h170.68c-1.009 21.047-.979 54.652 4.193 93.479z" fill="#fd7a6e"/></g><g fill="#f9ee80"><path d="m460.491 46.358v-30.905c0-8.535-6.918-15.453-15.453-15.453-8.534 0-15.453 6.918-15.453 15.453v30.905c0 8.534 6.918 15.453 15.453 15.453 8.535 0 15.453-6.919 15.453-15.453z"/><path d="m388.378 46.358v-30.905c0-8.535-6.918-15.453-15.452-15.453-8.534 0-15.453 6.918-15.453 15.453v30.905c0 8.534 6.918 15.453 15.453 15.453 8.534 0 15.452-6.919 15.452-15.453z"/></g><g fill="#f9d171"><path d="m244.153 46.358v-30.905c0-8.535-6.918-15.453-15.453-15.453-8.534 0-15.453 6.918-15.453 15.453v30.905c0 8.534 6.918 15.453 15.453 15.453 8.535 0 15.453-6.919 15.453-15.453z"/><path d="m172.04 46.358v-30.905c0-8.535-6.918-15.453-15.452-15.453-8.534 0-15.453 6.918-15.453 15.453v30.905c0 8.534 6.918 15.453 15.453 15.453 8.534 0 15.452-6.919 15.452-15.453z"/></g><g fill="#7888af"><path d="m419.802 214.525h-25.755c-4.268 0-7.726-3.459-7.726-7.726s3.459-7.726 7.726-7.726h25.755c4.268 0 7.726 3.459 7.726 7.726s-3.459 7.726-7.726 7.726z"/><path d="m363.142 214.525h-25.755c-4.268 0-7.726-3.459-7.726-7.726s3.459-7.726 7.726-7.726h25.755c4.268 0 7.726 3.459 7.726 7.726s-3.459 7.726-7.726 7.726z"/><path d="m419.802 255.732h-25.755c-4.268 0-7.726-3.459-7.726-7.726s3.459-7.726 7.726-7.726h25.755c4.268 0 7.726 3.459 7.726 7.726s-3.459 7.726-7.726 7.726z"/><path d="m363.142 255.732h-25.755c-4.268 0-7.726-3.459-7.726-7.726s3.459-7.726 7.726-7.726h25.755c4.268 0 7.726 3.459 7.726 7.726s-3.459 7.726-7.726 7.726z"/><path d="m306.482 214.525h-25.755c-4.268 0-7.726-3.459-7.726-7.726s3.459-7.726 7.726-7.726h25.755c4.268 0 7.726 3.459 7.726 7.726s-3.458 7.726-7.726 7.726z"/><path d="m306.482 255.732h-25.755c-4.268 0-7.726-3.459-7.726-7.726s3.459-7.726 7.726-7.726h25.755c4.268 0 7.726 3.459 7.726 7.726s-3.458 7.726-7.726 7.726z"/><path d="m419.802 173.318h-25.755c-4.268 0-7.726-3.459-7.726-7.726s3.459-7.726 7.726-7.726h25.755c4.268 0 7.726 3.459 7.726 7.726s-3.459 7.726-7.726 7.726z"/><path d="m363.142 173.318h-25.755c-4.268 0-7.726-3.459-7.726-7.726s3.459-7.726 7.726-7.726h25.755c4.268 0 7.726 3.459 7.726 7.726s-3.459 7.726-7.726 7.726z"/><path d="m306.482 173.318h-25.755c-4.268 0-7.726-3.459-7.726-7.726s3.459-7.726 7.726-7.726h25.755c4.268 0 7.726 3.459 7.726 7.726s-3.458 7.726-7.726 7.726z"/><path d="m363.142 296.94h-25.755c-4.268 0-7.726-3.459-7.726-7.726 0-4.268 3.459-7.726 7.726-7.726h25.755c4.268 0 7.726 3.459 7.726 7.726s-3.459 7.726-7.726 7.726z"/><path d="m306.482 296.94h-25.755c-4.268 0-7.726-3.459-7.726-7.726 0-4.268 3.459-7.726 7.726-7.726h25.755c4.268 0 7.726 3.459 7.726 7.726s-3.458 7.726-7.726 7.726z"/></g></g><g><path d="m25.755 168.818c-14.224 0-25.755 11.531-25.755 25.755v17.925c0 5.69 4.612 10.302 10.302 10.302h51.509v-28.227c0-14.224-21.833-25.755-36.056-25.755z" fill="#93bce8"/><g><path d="m247.243 210.025v219.027c-149.376-24.835-188.277-164.425-165.735-260.234h124.528c22.757 0 41.207 18.45 41.207 41.207z" fill="#b0f0ef"/><path d="m247.243 429.052v75.028c0 4.389-5.141 6.768-8.489 3.935l-9.313-7.911c-3.843-3.266-9.488-3.266-13.33 0l-11.136 9.447c-3.843 3.266-9.488 3.266-13.33 0l-11.136-9.447c-3.843-3.266-9.488-3.266-13.33 0l-11.136 9.447c-3.843 3.266-9.488 3.266-13.33 0l-11.136-9.447c-3.843-3.266-9.488-3.266-13.33 0l-11.136 9.447c-3.843 3.266-9.488 3.266-13.33 0l-11.136-9.447c-3.843-3.266-9.488-3.266-13.33 0l-9.313 7.911c-3.348 2.833-8.489.454-8.489-3.935v-309.507c0-14.227-11.528-25.755-25.755-25.755h55.753c.893 71.722 22.022 219.553 165.732 260.234z" fill="#93ecea"/></g><g fill="#7888af"><g><path d="m200.885 388.765h-20.604c-4.267 0-7.726-3.459-7.726-7.726s3.459-7.726 7.726-7.726h20.604c4.267 0 7.726 3.459 7.726 7.726s-3.459 7.726-7.726 7.726z"/><path d="m149.376 388.765h-51.509c-4.267 0-7.726-3.459-7.726-7.726s3.459-7.726 7.726-7.726h51.509c4.267 0 7.726 3.459 7.726 7.726s-3.459 7.726-7.726 7.726z"/><path d="m200.885 357.859h-103.018c-4.267 0-7.726-3.459-7.726-7.726s3.459-7.726 7.726-7.726h103.018c4.267 0 7.726 3.459 7.726 7.726s-3.459 7.726-7.726 7.726z"/><path d="m200.885 419.67h-20.604c-4.267 0-7.726-3.459-7.726-7.726s3.459-7.726 7.726-7.726h20.604c4.267 0 7.726 3.459 7.726 7.726s-3.459 7.726-7.726 7.726z"/><path d="m149.376 419.67h-51.509c-4.267 0-7.726-3.459-7.726-7.726s3.459-7.726 7.726-7.726h51.509c4.267 0 7.726 3.459 7.726 7.726s-3.459 7.726-7.726 7.726z"/><path d="m200.885 450.576h-20.604c-4.267 0-7.726-3.459-7.726-7.726 0-4.268 3.459-7.726 7.726-7.726h20.604c4.267 0 7.726 3.459 7.726 7.726.001 4.267-3.459 7.726-7.726 7.726z"/><path d="m149.376 450.576h-51.509c-4.267 0-7.726-3.459-7.726-7.726 0-4.268 3.459-7.726 7.726-7.726h51.509c4.267 0 7.726 3.459 7.726 7.726.001 4.267-3.459 7.726-7.726 7.726z"/></g><g><path d="m149.376 316.652c-4.267 0-7.726-3.459-7.726-7.726v-11.28c0-4.268 3.459-7.726 7.726-7.726s7.726 3.459 7.726 7.726v11.28c0 4.267-3.459 7.726-7.726 7.726z"/><path d="m149.376 239.335c-4.267 0-7.726-3.459-7.726-7.726v-11.279c0-4.268 3.459-7.726 7.726-7.726s7.726 3.459 7.726 7.726v11.279c0 4.267-3.459 7.726-7.726 7.726z"/><path d="m149.363 305.371c-6.473 0-12.538-2.51-17.129-7.1-2.998-2.998-5.164-6.746-6.265-10.841-1.108-4.121 1.335-8.359 5.455-9.468 4.122-1.105 8.36 1.336 9.467 5.456.399 1.483 1.183 2.841 2.269 3.926 1.708 1.708 3.996 2.603 6.399 2.572 4.745-.095 8.604-4.2 8.604-9.153 0-1.372-.418-2.694-1.207-3.823-.781-1.112-1.886-1.959-3.189-2.437l-14.087-5.127c-8.697-3.158-14.544-11.503-14.544-20.765v-.12c0-13.304 10.652-24.341 23.746-24.603 6.562-.179 12.993 2.452 17.628 7.086 3.01 3.01 5.178 6.764 6.269 10.856 1.1 4.123-1.351 8.357-5.474 9.457-4.125 1.093-8.357-1.352-9.456-5.475-.392-1.469-1.175-2.821-2.265-3.91-1.702-1.702-4.001-2.622-6.392-2.564-4.743.096-8.602 4.201-8.602 9.154v.12c0 2.784 1.757 5.292 4.371 6.241l14.111 5.136c4.293 1.575 7.932 4.368 10.54 8.084 2.623 3.75 4.004 8.135 4.004 12.69 0 13.305-10.653 24.341-23.746 24.602-.17.004-.339.006-.507.006z"/></g></g></g></g></g><g id="_x34_0_Pay_Day"/><g id="_x33_9_Shopping_Cart"/><g id="_x33_8_Recession"/><g id="_x33_7_Asset_Protection"/><g id="_x33_6_Loss"/><g id="_x33_5_Profit"/><g id="_x33_4_Trade"/><g id="_x33_3_Expense"/><g id="_x33_2_Financial_Strategy"/><g id="_x33_1_Payment_Terminal"/><g id="_x33_0_Withdrawal"/><g id="_x32_9_Tax"/><g id="_x32_8_Balance"/><g id="_x32_7_Stock_Market"/><g id="_x32_6_Cheque"/><g id="_x32_5_Deposit"/><g id="_x32_4_Gold_Ingots"/><g id="_x32_3_Income"/><g id="_x32_2_Cash_Flow"/><g id="_x32_1_Bankruptcy"/><g id="_x32_0_Money_Bag"/><g id="_x31_9_Value"/><g id="_x31_8_Inflation"/><g id="_x31_7_Insurance"/><g id="_x31_6_Startup"/><g id="_x31_5_Balance_Sheet"/><g id="_x31_4_Assets"/><g id="_x31_3_Bank"/><g id="_x31_2_Credit_Card"/><g id="_x31_1_Investment"/><g id="_x31_0_Growth"/><g id="_x39__Analysis"/><g id="_x38__Currency"/><g id="_x37__Statistic"/><g id="_x36__Debt"/><g id="_x35__Wallet"/><g id="_x34__Safebox"/><g id="_x33__Demand"/><g id="_x32__Online_Banking"/><g id="_x31__Accounting"/></svg>