<svg id="Capa_1" enable-background="new 0 0 512 512" height="512" viewBox="0 0 512 512" width="512" xmlns="http://www.w3.org/2000/svg"><g><g><circle cx="256" cy="267" fill="#c4e2ff" r="245"/></g><g><g><g><path d="m116.5 211.482c0 2.941-1.742 5.733-4.628 6.93-15.251 6.328-25.106 21.082-25.106 37.588s9.855 31.26 25.106 37.587c3.826 1.587 5.641 5.977 4.053 9.801-1.587 3.826-5.976 5.641-9.801 4.053-20.872-8.658-34.358-28.851-34.358-51.441s13.486-42.783 34.358-51.442c3.826-1.587 8.214.227 9.801 4.053.39.94.575 1.914.575 2.871z" fill="#0593fc"/></g><g><path d="m101.879 176.24c0 2.941-1.742 5.733-4.628 6.93-29.548 12.259-48.641 40.847-48.641 72.83s19.093 60.571 48.641 72.83c3.826 1.587 5.64 5.976 4.053 9.801-1.587 3.826-5.976 5.641-9.801 4.053-35.169-14.59-57.893-48.616-57.893-86.684s22.724-72.094 57.893-86.685c3.826-1.587 8.214.227 9.801 4.053.39.94.575 1.914.575 2.872z" fill="#26a6fe"/></g></g><g><g><path d="m395.5 300.518c0-2.941 1.742-5.733 4.628-6.93 15.251-6.328 25.106-21.082 25.106-37.587s-9.855-31.26-25.106-37.587c-3.826-1.587-5.641-5.977-4.053-9.801 1.587-3.826 5.976-5.641 9.801-4.053 20.872 8.659 34.358 28.852 34.358 51.442s-13.486 42.783-34.358 51.442c-3.826 1.587-8.214-.227-9.801-4.053-.39-.942-.575-1.916-.575-2.873z" fill="#0593fc"/></g><g><path d="m410.121 335.76c0-2.941 1.742-5.733 4.628-6.93 29.548-12.259 48.641-40.847 48.641-72.83s-19.093-60.571-48.641-72.83c-3.826-1.587-5.64-5.976-4.053-9.801 1.587-3.826 5.976-5.641 9.801-4.053 35.168 14.591 57.893 48.616 57.893 86.685s-22.724 72.094-57.893 86.685c-3.826 1.587-8.214-.227-9.801-4.053-.39-.941-.575-1.915-.575-2.873z" fill="#26a6fe"/></g></g></g><g><g><g><path d="m130.398 390.348v49.496c0 11.466 9.295 20.761 20.761 20.761h209.682c11.466 0 20.761-9.295 20.761-20.761v-49.496z" fill="#116d9a"/></g><g><path d="m172.398 439.844v-48.496h-42v48.496c0 11.466 9.295 20.761 20.761 20.761h42c-11.466 0-20.761-9.295-20.761-20.761z" fill="#005e89"/></g><g><g><path d="m381.602 391.348h-251.204v-363.087c0-11.466 9.295-20.761 20.761-20.761h209.682c11.466 0 20.761 9.295 20.761 20.761z" fill="#fff"/></g></g><g><path d="m193.159 7.5h-42c-11.466 0-20.761 9.295-20.761 20.76v363.087h42v-363.086c0-11.466 9.295-20.761 20.761-20.761z" fill="#eaf6ff"/></g><g><g><path d="m293.113 46.237h-74.226c-6.75 0-12.905-3.858-15.847-9.933l-13.949-28.804h133.819l-13.95 28.804c-2.942 6.075-9.097 9.933-15.847 9.933z" fill="#116d9a"/></g></g><g><path d="m234.348 36.304-13.95-28.804h-31.308l13.949 28.804c2.942 6.075 9.098 9.933 15.847 9.933h31.308c-6.749 0-12.905-3.858-15.846-9.933z" fill="#005e89"/></g><g><g><path d="m360.841 468.105h-209.682c-15.583 0-28.261-12.678-28.261-28.261v-411.583c0-15.583 12.678-28.261 28.261-28.261h209.682c15.583 0 28.261 12.678 28.261 28.261v411.583c0 15.583-12.678 28.261-28.261 28.261zm-209.682-453.105c-7.312 0-13.261 5.949-13.261 13.261v411.583c0 7.312 5.949 13.261 13.261 13.261h209.682c7.312 0 13.261-5.949 13.261-13.261v-411.583c0-7.312-5.949-13.261-13.261-13.261z" fill="#2882b2"/></g></g></g><g><g><circle cx="344.898" cy="34.232" fill="#60b7ff" r="7.5"/></g></g><g><g><circle cx="159.898" cy="34.232" fill="#60b7ff" r="7.5"/></g></g><g><g><circle cx="182.898" cy="34.232" fill="#60b7ff" r="7.5"/></g></g></g><g><g><g><g><g><path d="m342.811 321h-173.622c-2.829 0-5.122-2.293-5.122-5.122v-115.756c0-2.829 2.293-5.122 5.122-5.122h173.623c2.829 0 5.122 2.293 5.122 5.122v115.756c-.001 2.829-2.294 5.122-5.123 5.122z" fill="#60b7ff"/></g></g></g><path d="m284.812 247.85h-8.981l-18.011 13.714c-.663.505-1.453.771-2.286.771s-1.623-.266-2.286-.771l-18.012-13.714h-8.981l-61.023 71.245c.939 1.154 2.353 1.906 3.956 1.906h173.623c1.345 0 2.56-.53 3.474-1.379z" fill="#8ac9fe"/><g fill="#26a6fe"><path d="m312.913 213.66 5.061 3.796 28.009-21.327c-.875-.696-1.968-1.129-3.172-1.129h-29.898z"/><path d="m198.111 213.66v-18.66h-28.922c-1.414 0-2.693.573-3.62 1.499l27.503 20.941z"/></g></g></g><g><path d="m294.5 354.5h-77c-4.142 0-7.5-3.357-7.5-7.5s3.358-7.5 7.5-7.5h77c4.143 0 7.5 3.357 7.5 7.5s-3.357 7.5-7.5 7.5z" fill="#60b7ff"/></g><g><g><path d="m280 427.5h-48c-4.142 0-7.5-3.357-7.5-7.5s3.358-7.5 7.5-7.5h48c4.143 0 7.5 3.357 7.5 7.5s-3.357 7.5-7.5 7.5z" fill="#2882b2"/></g></g><g><g><path d="m255.512 108.39c5.195 0 10.226.706 15.016 2.006 1.988-2.914 3.154-6.433 3.154-10.226 0-10.035-8.135-18.169-18.169-18.169s-18.169 8.135-18.169 18.169c0 3.793 1.166 7.313 3.154 10.226 4.788-1.3 9.819-2.006 15.014-2.006z" fill="#e8b800"/><g><circle cx="255.512" cy="100.169" fill="#fee45a" r="5.9"/></g><path d="m230.861 247.85c.16 13.48 11.132 24.36 24.651 24.36s24.49-10.88 24.651-24.36z" fill="#fac600"/><path d="m251.731 248.85h-20.843c.675 13.015 11.441 23.36 24.624 23.36 3.723 0 7.25-.83 10.415-2.307-8.041-3.754-13.71-11.716-14.196-21.053z" fill="#e8b800"/><path d="m313.913 214.16v-48.37c0-32.254-26.147-58.401-58.401-58.401-32.254 0-58.401 26.147-58.401 58.401v48.37z" fill="#fed402"/><path d="m228.198 165.791c0-26.869 18.152-49.486 42.857-56.293-4.951-1.364-10.159-2.108-15.544-2.108-32.254 0-58.401 26.147-58.401 58.401v47.37h31.087v-47.37z" fill="#fac600"/><g><path d="m313.913 213.16h-116.802l-16.125 12.094c-1.287.965-2.044 2.48-2.044 4.088v14.396c0 2.823 2.289 5.112 5.112 5.112h142.916c2.823 0 5.112-2.289 5.112-5.112v-14.396c0-1.608-.757-3.123-2.044-4.088z" fill="#fee45a"/></g><path d="m210 243.738v-14.395c0-1.609.758-3.124 2.045-4.09l16.124-12.093h-31.058l-16.124 12.093c-1.287.965-2.045 2.48-2.045 4.09v14.395c0 2.823 2.289 5.112 5.112 5.112h31.058c-2.823 0-5.112-2.289-5.112-5.112z" fill="#fed402"/></g><g><g><circle cx="307" cy="121" fill="#fe646f" r="30"/></g><path d="m300.785 134.061-2.214 1.164c-1.24.652-2.689-.401-2.452-1.782l1.459-8.51c.094-.548-.088-1.108-.486-1.496l-6.183-6.027c-1.003-.978-.45-2.681.937-2.883l6.892-1.002c2.455-9.566 9.497-17.293 18.654-20.675-3.238-1.195-6.738-1.85-10.392-1.85-16.569 0-30 13.431-30 30s13.431 30 30 30c3.654 0 7.154-.655 10.392-1.851-7.294-2.694-13.243-8.148-16.607-15.088z" fill="#fd4755"/><g><path d="m308.516 104.618 3.821 7.743c.246.499.722.845 1.273.925l8.545 1.242c1.386.201 1.94 1.905.937 2.883l-6.183 6.027c-.398.388-.58.948-.486 1.496l1.46 8.51c.237 1.381-1.212 2.434-2.452 1.782l-7.643-4.018c-.492-.259-1.081-.259-1.573 0l-7.643 4.018c-1.24.652-2.689-.401-2.452-1.782l1.46-8.51c.094-.548-.088-1.108-.486-1.496l-6.183-6.027c-1.003-.978-.45-2.681.937-2.883l8.545-1.242c.551-.08 1.026-.426 1.273-.925l3.821-7.743c.617-1.256 2.409-1.256 3.029 0z" fill="#fff"/></g><g><path d="m303.507 131.274 1.46-8.51c.094-.548-.088-1.108-.486-1.496l-6.183-6.027c-.46-.448-.58-1.046-.455-1.585l-5.996.871c-1.386.201-1.94 1.905-.937 2.883l6.183 6.027c.398.388.58.948.486 1.496l-1.459 8.51c-.237 1.381 1.212 2.434 2.452 1.782l5.204-2.736c-.228-.337-.349-.754-.269-1.215z" fill="#eaf6ff"/></g></g></g></g></svg>