<svg id="Capa_1" enable-background="new 0 0 512 512" height="512" viewBox="0 0 512 512" width="512" xmlns="http://www.w3.org/2000/svg"><g><path d="m72.393 27.66-6.204 136.154h-55.887c-5.69 0-10.302-4.612-10.302-10.302v-124.054c0-15.253 12.228-27.648 27.412-27.934 15.659-.294 44.981 10.475 44.981 26.136z" fill="#c4e2ff"/><path d="m400.256 29.458v437.693c0 5.69-4.612 10.302-10.302 10.302h-323.765c-5.69 0-10.302-4.612-10.302-10.302v-437.693c0-15.432-12.517-27.939-27.939-27.939h344.369c15.423 0 27.939 12.507 27.939 27.939z" fill="#e5eef9"/><path d="m372.318 1.519h-26.785c15.422 0 27.939 12.506 27.939 27.939v437.693c0 5.689-4.612 10.302-10.302 10.302h26.785c5.69 0 10.302-4.612 10.302-10.302v-437.693c-.001-15.432-12.517-27.939-27.939-27.939z" fill="#c4e2ff"/><g fill="#8795de"><path d="m355.992 184.262h-31.393c-4.268 0-7.726-3.459-7.726-7.726s3.459-7.726 7.726-7.726h31.393c4.268 0 7.726 3.459 7.726 7.726s-3.458 7.726-7.726 7.726z"/><path d="m256.564 184.262h-147.803c-4.268 0-7.726-3.459-7.726-7.726s3.459-7.726 7.726-7.726h147.804c4.268 0 7.726 3.459 7.726 7.726s-3.459 7.726-7.727 7.726z"/></g><g fill="#8795de"><path d="m355.992 241.073h-31.393c-4.268 0-7.726-3.459-7.726-7.726s3.459-7.726 7.726-7.726h31.393c4.268 0 7.726 3.459 7.726 7.726s-3.458 7.726-7.726 7.726z"/><path d="m256.564 241.073h-147.803c-4.268 0-7.726-3.459-7.726-7.726s3.459-7.726 7.726-7.726h147.804c4.268 0 7.726 3.459 7.726 7.726s-3.459 7.726-7.727 7.726z"/></g><g><path d="m355.992 297.884h-31.393c-4.268 0-7.726-3.459-7.726-7.726s3.459-7.726 7.726-7.726h31.393c4.268 0 7.726 3.459 7.726 7.726s-3.458 7.726-7.726 7.726z"/><path d="m256.564 297.884h-147.803c-4.268 0-7.726-3.459-7.726-7.726s3.459-7.726 7.726-7.726h147.804c4.268 0 7.726 3.459 7.726 7.726s-3.459 7.726-7.727 7.726z" fill="#8795de"/></g><g><path d="m355.992 354.696h-31.393c-4.268 0-7.726-3.459-7.726-7.726s3.459-7.726 7.726-7.726h31.393c4.268 0 7.726 3.459 7.726 7.726s-3.458 7.726-7.726 7.726z"/><path d="m256.564 354.696h-147.803c-4.268 0-7.726-3.459-7.726-7.726s3.459-7.726 7.726-7.726h147.804c4.268 0 7.726 3.459 7.726 7.726s-3.459 7.726-7.727 7.726z" fill="#8795de"/></g><path d="m399.596 273.918h-160.48l-43.382 43.205v53.866l43.382 43.201h198.612c2.899 0 5.25-2.35 5.25-5.25v-91.822z" fill="#0ed2b3"/><path d="m417.223 290.157v118.784c0 2.899-2.35 5.25-5.249 5.25h25.755c2.899 0 5.25-2.35 5.25-5.25v-91.822z" fill="#0ab69f"/><path d="m442.801 317.123c.059 0 .117-.004.177-.005v-37.951c0-2.899-2.35-5.25-5.25-5.25h-38.132c0 23.863 19.344 43.206 43.205 43.206z" fill="#0ab69f"/><path d="m442.801 317.123c.059 0 .117-.004.177-.005v-37.951c0-2.899-2.35-5.25-5.25-5.25h-25.754c2.899 0 5.249 2.351 5.249 5.25v29.566c7.162 5.271 16.004 8.39 25.578 8.39z" fill="#01998d"/><path d="m195.734 317.119c.059 0 .117.004.177.004 23.862 0 43.205-19.344 43.205-43.205h-38.132c-2.899 0-5.25 2.35-5.25 5.25z" fill="#0ab69f"/><path d="m442.978 408.941v-37.951c-.059 0-.117-.004-.177-.004-23.862 0-43.205 19.344-43.205 43.205h38.132c2.9 0 5.25-2.351 5.25-5.25z" fill="#678d98"/><path d="m195.911 370.985c-.059 0-.117.004-.177.004v37.951c0 2.899 2.35 5.25 5.25 5.25h38.132c0-23.861-19.343-43.205-43.205-43.205z" fill="#0ab69f"/><path d="m437.728 421.917h-38.133c-4.268 0-7.726-3.459-7.726-7.726 0-28.083 22.848-50.932 50.932-50.932.101 0 .302.005.402.008 4.215.071 7.501 3.507 7.501 7.723v37.951c0 7.155-5.821 12.976-12.976 12.976zm-29.559-15.453h27.082v-26.944c-13.455 2.927-24.087 13.514-27.082 26.944z"/><path d="m328.344 337.258-2.526-.931c-6.672-2.455-10.02-3.686-13.058-5.341-.894-.487-1.285-1.354-1.158-2.577.171-1.647 1.391-3.719 4.309-4.598 7.719-2.328 14.931 3.336 15.164 3.523 3.267 2.706 8.11 2.275 10.843-.979 2.745-3.267 2.324-8.141-.943-10.886-.351-.295-5.829-4.807-13.89-6.771v-4.516c0-4.268-3.459-7.726-7.726-7.726s-7.726 3.459-7.726 7.726v4.784c-.06.018-.118.03-.178.049-8.39 2.527-14.365 9.516-15.222 17.805-.771 7.452 2.73 14.25 9.138 17.738 4.031 2.195 7.968 3.643 15.114 6.272l2.513.926c1.844.68 7.805 3.203 7.107 7.113-.526 2.951-4.182 6.003-9.388 6.003-5.509 0-10.805-2.214-14.166-5.924-2.866-3.163-7.754-3.401-10.913-.537-3.162 2.865-3.402 7.752-.537 10.913 4.352 4.803 10.122 8.198 16.532 9.853v4.75c0 4.268 3.459 7.726 7.726 7.726s7.726-3.459 7.726-7.726v-4.34c9.37-2.184 16.64-9.084 18.232-18.003 1.462-8.194-2.228-18.888-16.973-24.326z" fill="#0ab69f"/><path d="m503.204 510.482h-229.651c-4.858 0-8.796-3.938-8.796-8.796v-137.787c0-4.858 3.938-8.796 8.796-8.796h229.651c4.858 0 8.796 3.938 8.796 8.796v137.787c0 4.857-3.938 8.796-8.796 8.796z" fill="#8795de"/><path d="m503.204 355.102h-25.755c4.858 0 8.797 3.938 8.797 8.797v137.787c0 4.858-3.938 8.796-8.797 8.796h25.755c4.858 0 8.796-3.938 8.796-8.796v-137.787c0-4.859-3.938-8.797-8.796-8.797z" fill="#6c7fd8"/><path d="m307.908 397.729v26.828c0 3.036 2.461 5.498 5.498 5.498h37.777c3.036 0 5.498-2.461 5.498-5.498v-26.828c0-3.036-2.461-5.498-5.498-5.498h-37.777c-3.036 0-5.498 2.461-5.498 5.498z" fill="#fee903"/><g fill="#e5eef9"><path d="m324.598 481.079h-16.689c-4.268 0-7.726-3.459-7.726-7.726s3.459-7.726 7.726-7.726h16.689c4.268 0 7.726 3.459 7.726 7.726s-3.459 7.726-7.726 7.726z"/><path d="m372.681 481.079h-16.689c-4.268 0-7.726-3.459-7.726-7.726s3.459-7.726 7.726-7.726h16.689c4.268 0 7.726 3.459 7.726 7.726s-3.458 7.726-7.726 7.726z"/><path d="m420.765 481.079h-16.689c-4.268 0-7.726-3.459-7.726-7.726s3.459-7.726 7.726-7.726h16.689c4.268 0 7.726 3.459 7.726 7.726s-3.459 7.726-7.726 7.726z"/><path d="m468.848 481.079h-16.689c-4.268 0-7.726-3.459-7.726-7.726s3.459-7.726 7.726-7.726h16.689c4.268 0 7.726 3.459 7.726 7.726s-3.458 7.726-7.726 7.726z"/></g><path d="m468.848 408.667h-16.689c-4.268 0-7.726-3.459-7.726-7.726s3.459-7.726 7.726-7.726h16.689c4.268 0 7.726 3.459 7.726 7.726s-3.458 7.726-7.726 7.726z" fill="#e5eef9"/><g fill="#596c76"><path d="m265.129 109.9c-.015 0-.029 0-.044 0-5.723.032-11.873.054-16.491.058v-61.556c0-4.268-3.459-7.726-7.726-7.726s-7.726 3.459-7.726 7.726v69.224c0 3.766 2.714 6.982 6.426 7.616 1.775.304 22.591.127 25.605.111 4.267-.024 7.706-3.502 7.683-7.77-.026-4.253-3.48-7.683-7.727-7.683z"/><path d="m316.675 109.9c-.015 0-.029 0-.044 0-5.723.032-11.873.054-16.491.058v-61.556c0-4.268-3.459-7.726-7.726-7.726s-7.726 3.459-7.726 7.726v69.224c0 3.766 2.714 6.982 6.426 7.616 1.775.304 22.591.127 25.605.111 4.267-.024 7.707-3.502 7.683-7.77-.026-4.253-3.479-7.683-7.727-7.683z"/><path d="m210.467 40.675c-4.268 0-7.726 3.459-7.726 7.726v69.283c0 4.268 3.459 7.726 7.726 7.726s7.726-3.459 7.726-7.726v-69.282c0-4.268-3.459-7.727-7.726-7.727z"/><path d="m178.977 77.902c2.696-3.843 4.285-8.517 4.285-13.557 0-13.051-10.618-23.669-23.668-23.669h-20.124c-4.268 0-7.726 3.459-7.726 7.726v69.283c0 2.055.819 4.025 2.276 5.476 1.448 1.442 3.407 2.25 5.451 2.25h.034c.002 0 18.505-.082 23.606-.082 14.543 0 26.374-11.832 26.374-26.375-.001-8.591-4.131-16.234-10.508-21.052zm-19.382-21.774c4.53 0 8.215 3.686 8.215 8.216s-3.685 8.215-8.215 8.215c-1.499 0-4.341.008-7.427.019h-4.971v-16.45zm3.515 53.748c-2.914 0-10.19.027-15.913.05v-21.876c1.628-.006 3.354-.013 5.01-.019h10.904c6.022 0 10.922 4.899 10.922 10.922-.002 6.023-4.901 10.923-10.923 10.923z"/></g></g></svg>