<svg viewBox="0 0 444.22 461.15" xmlns="http://www.w3.org/2000/svg"><g id="Calque_2" data-name="Calque 2"><g id="_24-_Payroll" data-name="24- Payroll"><path d="m433 196.78v182.08a20 20 0 0 1 -10.63 17.67l-104.84 55.6a19.59 19.59 0 0 1 -7.54 2.23 19.86 19.86 0 0 1 -10.16-1.72l-68.5-31.38-36.33-16.67 119-212z" fill="#f0e3e7"/><path d="m358 286.34c-7.59 82.54-41.18 154.23-48 168a19.86 19.86 0 0 1 -10.16-1.72l-68.5-31.38c16.17-39.55 44-100.53 48.83-102.25 7.11-2.51 77.83-32.65 77.83-32.65z" fill="#e4d1d7"/><path d="m377 238.77s-27.6 149.23-127.07 218.85a19.88 19.88 0 0 1 -19.82 1.63l-218.6-102.51a20 20 0 0 1 -3.79-33.9c38.48-30 106.42-95 131.19-195.13 0 0 196.64 62.13 238.09 111.06z" fill="#fcf4f6"/><path d="m444.22 147.28v43.09a20 20 0 0 1 -10.46 17.63l-48.85 26.5a20.15 20.15 0 0 1 -16.46 1.19l-239.74-88.4a20 20 0 0 1 -13.09-18.76v-46.62a20 20 0 0 1 13.16-18.79l60.88-22.12a20 20 0 0 1 14 .12l180.34 69.27 47.39 18.22a20 20 0 0 1 12.83 18.67z" fill="#ff9fb3"/><path d="m444.22 147.28v43.09a20 20 0 0 1 -10.46 17.63l-48.85 26.5a19.71 19.71 0 0 1 -8 2.35l-1.24-66.3 8.33-60.16 47.39 18.22a20 20 0 0 1 12.83 18.67z" fill="#ff6b7d"/><path d="m440.49 135.66-56.86 32.34a20 20 0 0 1 -17.37 1.16l-246.41-99.55a20.07 20.07 0 0 1 8.93-6.49l60.88-22.12a20 20 0 0 1 14 .12l227.71 87.53a19.91 19.91 0 0 1 9.12 7.01z" fill="#ff8293"/><path d="m423.84 125.71-17.29-6.65c2-15.33-2-27.8-11.92-32.32-16-7.27-41.39 8.94-56.67 36.22s-14.67 55.3 1.35 62.58c0 0 7.62 16.58-15.11 18.79-26.9-12.21-31.18-53.39-9.58-92s60.93-59.94 87.82-47.73c19.7 8.98 27.27 33.47 21.4 61.11z" fill="#51518e"/><path d="m286.9 73.08-16.82-6.47c5.05-19.2 1.59-35.71-10.17-41-16-7.29-41.41 8.93-56.68 36.21s-14.68 55.29 1.35 62.57c0 0 8.83 21.13-15.12 18.79-26.89-12.21-31.18-53.38-9.56-92s60.92-59.96 87.81-47.74c21.72 9.87 28.69 38.62 19.19 69.64z" fill="#51518e"/><g fill="#88ffc3"><path d="m267.81 360.39a12 12 0 0 1 4.41 18.16 180.85 180.85 0 0 1 -38.22 36.82 14.73 14.73 0 0 1 -14.69 1.21l-23.23-10.9a12 12 0 0 1 -3.73-19.05 299 299 0 0 0 29.26-36.79 12 12 0 0 1 15-4.08z"/><path d="m202.56 345.35a290.35 290.35 0 0 1 -32.64 39.24 12 12 0 0 1 -13.63 2.41l-27.58-12.93a12 12 0 0 1 -3.83-18.86 312.71 312.71 0 0 0 28.12-37.21 12 12 0 0 1 15.12-4.31l29.7 13.92a12 12 0 0 1 4.74 17.74z"/><path d="m134.36 313.06a303 303 0 0 1 -31.29 39.8 12 12 0 0 1 -13.88 2.69l-31.87-14.94a14.82 14.82 0 0 1 -2.8-25.12 298.36 298.36 0 0 0 33.33-30.38 12 12 0 0 1 13.81-2.64l27.84 13.06a12 12 0 0 1 4.86 17.53z"/><path d="m323.1 273.81a358.59 358.59 0 0 1 -17.41 48.12 12 12 0 0 1 -16 5.94l-32.29-15.12a12 12 0 0 1 -5.74-16c7.08-15 12.9-29.55 17.62-42.74a12 12 0 0 1 15.8-7.1l31 12.54a12 12 0 0 1 7.02 14.36z"/><path d="m252.61 246.15c-4.75 13.25-10.61 27.85-17.71 42.85a12 12 0 0 1 -15.9 5.73l-31.1-14.58a12 12 0 0 1 -5.82-15.82c6.25-13.85 11.43-27.17 15.67-39.26a12 12 0 0 1 15.8-7.12l32.27 13.05a12 12 0 0 1 6.79 15.15z"/></g><ellipse cx="92.59" cy="199.86" fill="#ffe262" rx="87.13" ry="96.01"/><ellipse cx="79.01" cy="199.86" fill="#f6d14f" rx="55.35" ry="64.2"/><path d="m80.08 193.79-4.6.1v-27.23l23.94-4.92a3.5 3.5 0 1 0 -1.42-6.85l-22.53 4.62v-11.57a3.5 3.5 0 0 0 -7 0v13l-4 .82c-9.64 2-16.64 10.3-16.64 19.79a19 19 0 0 0 5.79 13.69 20.31 20.31 0 0 0 14.78 5.76h.08v26.18l-16.59-2.76a3.5 3.5 0 1 0 -1.15 6.91l17.74 2.95v12.92a3.5 3.5 0 0 0 7 0v-11.73l2.41.4a22.32 22.32 0 0 0 3.72.31 21.2 21.2 0 0 0 13.75-5 19 19 0 0 0 6.85-14.69v-2.12a19.93 19.93 0 0 0 -6.13-14.32 22.31 22.31 0 0 0 -16-6.26zm-11.6.24h-.22a13.46 13.46 0 0 1 -9.75-3.78 12.09 12.09 0 0 1 -3.69-8.69 13.5 13.5 0 0 1 11.05-12.93l2.61-.54zm26.73 22.5a12.09 12.09 0 0 1 -4.37 9.35 14.5 14.5 0 0 1 -11.84 3.12l-3.56-.6v-27.51l4.74-.1a15.25 15.25 0 0 1 11 4.29 13 13 0 0 1 4 9.33z" fill="#51518e"/></g></g></svg>