<svg height="512" viewBox="0 0 512 512" width="512" xmlns="http://www.w3.org/2000/svg"><g id="Flat"><rect fill="#396795" height="320" rx="32" width="464" x="24" y="72"/><rect fill="#eedc9a" height="416" rx="8" transform="matrix(0 1 -1 0 488 -24)" width="272" x="120" y="24"/><path d="m24 392h464a0 0 0 0 1 0 0 48 48 0 0 1 -48 48h-368a48 48 0 0 1 -48-48 0 0 0 0 1 0 0z" fill="#26507a"/><path d="m208 392h96a0 0 0 0 1 0 0 24 24 0 0 1 -24 24h-48a24 24 0 0 1 -24-24 0 0 0 0 1 0 0z" fill="#2f4054"/><path d="m464 104v256a8.01074 8.01074 0 0 1 -8 8h-255.53q-.465-7.93506-.47-16a274.56514 274.56514 0 0 1 1.91-32.38 270.18667 270.18667 0 0 1 30.08-95.71009 272.96058 272.96058 0 0 1 145.19994-126.91991c.89014-.34009 1.79-.66992 2.69006-.99h76.12a8.01066 8.01066 0 0 1 8 8z" fill="#8acce7"/><path d="m432 224-16 88h-40l-8-24-32 8v32l32 40h-167.53q-.465-7.93506-.47-16a274.56514 274.56514 0 0 1 1.91-32.38l38.09-7.62v-32l16-16-24-40-.01-.09009a272.96058 272.96058 0 0 1 145.19994-126.91991l46.81006 39.01-24 32z" fill="#4ba477"/><path d="m360 184a56 56 0 0 0 -112 0c0 30.928 56 88 56 88s56-57.072 56-88z" fill="#e44b4d"/><circle cx="304" cy="184" fill="#d3e1e9" r="24"/><path d="m226.34326 165.65674-29.65726-29.65674h-124.686v-16h128a7.99877 7.99877 0 0 1 5.65674 2.34326l32 32z" fill="#efa702"/><g fill="#379ec3"><path d="m88 152h32v16h-32z"/><path d="m136 152h48v16h-48z"/><path d="m72 184h64v16h-64z"/><path d="m152 184h32v16h-32z"/><path d="m72 216h48v16h-48z"/></g></g></svg>