<svg id="Layer_1" viewBox="0 0 64 64" xmlns="http://www.w3.org/2000/svg" data-name="Layer 1"><path d="m11 45.79c-3.033 0-5.5 2.467-5.5 5.5s2.467 5.5 5.5 5.5c2.363 0 4.383-1.499 5.16-3.596.008-.043.024-.084.042-.123.192-.559.298-1.158.298-1.782 0-3.033-2.467-5.5-5.5-5.5zm0 3c-1.379 0-2.5 1.121-2.5 2.5 0 .751.335 1.456.918 1.934.214.175.245.49.07.704-.099.121-.242.183-.387.183-.112 0-.224-.037-.317-.113-.816-.669-1.284-1.656-1.284-2.708 0-1.93 1.57-3.5 3.5-3.5.276 0 .5.224.5.5s-.224.5-.5.5z" fill="#000052"/><path d="m23.5 47.79h12v2h-12z" fill="#5ca79c"/><path d="m16.167 20.414c-.271-.748-.699-1.434-1.279-2.009-1.033-1.043-2.413-1.615-3.888-1.615-3.033 0-5.5 2.467-5.5 5.5v25.542c1.152-1.826 3.186-3.042 5.5-3.042s4.348 1.216 5.5 3.042v-25.542c0-.62-.107-1.22-.301-1.787-.013-.028-.024-.058-.032-.088z" fill="#000052"/><path d="m46.5 11.29v-2.5h-23.293c.159.83.252 1.667.279 2.5z" fill="#000052"/><path d="m52.5 11.79c0-1.654-1.346-3-3-3h-2v6h2c1.654 0 3-1.346 3-3z" fill="#5ca79c"/><path d="m46.5 12.29h-23.013c-.026.853-.118 1.679-.28 2.5h23.293z" fill="#000052"/><path d="m26.5 43.79c-.551 0-1 .449-1 1v2h2v-2c0-.551-.449-1-1-1z" fill="#5ca79c"/><path d="m17.5 22.29v28c0 .077-.019.148-.049.213.031.258.049.52.049.787 0 .516-.062 1.018-.177 1.5h41.177v-32h-41.174c.114.485.174.988.174 1.5zm2 17c0-.276.224-.5.5-.5h2.5v-4h-2.5c-.276 0-.5-.224-.5-.5v-11c0-.276.224-.5.5-.5h19c.276 0 .5.224.5.5v3.5h4v-3.5c0-.276.224-.5.5-.5h11c.276 0 .5.224.5.5v26c0 .276-.224.5-.5.5h-11c-.276 0-.5-.224-.5-.5v-18.5h-4v3.5c0 .276-.224.5-.5.5h-12.5v4h12.5c.276 0 .5.224.5.5v11c0 .276-.224.5-.5.5h-19c-.276 0-.5-.224-.5-.5z" fill="#000052"/><g fill="#5ca79c"><path d="m22.5 47.29c0-.276.224-.5.5-.5h1.5v-2c0-1.103.897-2 2-2s2 .897 2 2v2h2v-2c0-1.103.897-2 2-2s2 .897 2 2v2h1.5c.276 0 .5.224.5.5v2.5h2v-10h-12.5c-.276 0-.5-.224-.5-.5v-5c0-.276.224-.5.5-.5h12.5v-3.5c0-.276.224-.5.5-.5h5c.276 0 .5.224.5.5v18.5h10v-7h-4.5c-.276 0-.5-.224-.5-.5v-10c0-.276.224-.5.5-.5h4.5v-7h-10v3.5c0 .276-.224.5-.5.5h-5c-.276 0-.5-.224-.5-.5v-3.5h-12.021c-.244 3.186-2.793 5.735-5.979 5.979v4.021h2.5c.276 0 .5.224.5.5v5c0 .276-.224.5-.5.5h-2.5v10h2z"/><path d="m32.5 43.79c-.551 0-1 .449-1 1v2h2v-2c0-.551-.449-1-1-1z"/><path d="m25.477 23.79h-4.977v4.977c2.635-.238 4.739-2.343 4.977-4.977z"/><path d="m50.5 31.79h4v9h-4z"/><path d="m22.3 9.372-.605.413s-1.356.925-1.356.925l-1.467 1.001 1.587 1.14s.941.675.941.675l.907.651c.129-.779.193-1.566.193-2.387 0-.802-.068-1.613-.2-2.417z"/></g></svg>