<svg clip-rule="evenodd" fill-rule="evenodd" stroke-linejoin="round" stroke-miterlimit="2" viewBox="0 0 510 510" xmlns="http://www.w3.org/2000/svg"><g id="Artboard411"><g><g fill="#a79ba7"><path d="m263 15v240c0 4.418-3.582 8-8 8h-240c-4.418 0-8-3.582-8-8v-240c0-4.418 3.582-8 8-8h240c4.418 0 8 3.582 8 8zm-16 8h-224v224h224z"/><path d="m503 15v240c0 4.418-3.582 8-8 8h-240c-4.418 0-8-3.582-8-8v-240c0-4.418 3.582-8 8-8h240c4.418 0 8 3.582 8 8zm-16 8h-224v224h224z"/><path d="m503 255v240c0 4.418-3.582 8-8 8h-240c-4.418 0-8-3.582-8-8v-240c0-4.418 3.582-8 8-8h240c4.418 0 8 3.582 8 8zm-16 8h-224v224h224z"/></g><g><path d="m291.293 286.259h30.389v57.618h-30.389z" fill="#837683"/><path d="m314.417 286.259h7.265v57.618h-7.265z" fill="#685e68"/><path d="m377.534 316.933c-1.564-.919-3.504-.919-5.068 0-11.34 6.668-57.323 33.706-67.882 39.915-1.364.803-3.028.911-4.485.294-2.977-1.261-8.321-3.526-13.01-5.513-1.736-.735-2.911-2.386-3.038-4.267-.127-1.882.816-3.675 2.438-4.637 20.857-12.373 73.732-43.74 85.96-50.994 1.573-.933 3.529-.933 5.102 0 12.228 7.254 65.103 38.621 85.96 50.994 1.622.962 2.565 2.755 2.438 4.637-.127 1.881-1.302 3.532-3.038 4.267-4.689 1.987-10.033 4.252-13.01 5.513-1.457.617-3.121.509-4.485-.294-10.559-6.209-56.542-33.247-67.882-39.915z" fill="#fe646f"/><path d="m371.972 292.014.477-.283c1.573-.933 3.529-.933 5.102 0l85.96 50.994c1.622.962 2.565 2.755 2.438 4.637-.127 1.881-1.302 3.532-3.038 4.267l-13.01 5.513c-1.457.617-3.121.509-4.485-.294l-.368-.216 11.807-5.003c1.736-.735 2.911-2.386 3.038-4.267.126-1.882-.816-3.675-2.438-4.637zm3.028 23.429-70.416 41.405c-1.364.803-3.028.911-4.485.294l-1.203-.51 70.541-41.479c1.565-.92 3.505-.92 5.069 0z" fill="#fd4755"/><path d="m302.416 358.124 72.584-42.681 72.584 42.681v103.6h-145.168z" fill="#eceff1"/><path d="m371.994 317.211 3.006-1.768 72.584 42.681v103.6h-6.011v-103.6z" fill="#d1d1d6"/><path d="m472.017 445.818c0-.925-.367-1.811-1.021-2.464-.653-.654-1.54-1.021-2.464-1.021-23.886 0-163.178 0-187.064 0-.924 0-1.811.367-2.464 1.021-.654.653-1.021 1.539-1.021 2.464v12.421c0 .924.367 1.81 1.021 2.464.653.654 1.54 1.021 2.464 1.021h187.064c.924 0 1.811-.367 2.464-1.021.654-.654 1.021-1.54 1.021-2.464 0-3.514 0-8.907 0-12.421z" fill="#9facba"/><path d="m278.066 458.994c.131.015.263.022.396.022h187.064c.924 0 1.811-.367 2.464-1.021.654-.653 1.021-1.54 1.021-2.464v-12.421c0-.256-.028-.509-.083-.755.779.089 1.509.439 2.068.999.654.653 1.021 1.539 1.021 2.464v12.421c0 .924-.367 1.81-1.021 2.464-.653.654-1.54 1.021-2.464 1.021h-187.064c-.924 0-1.811-.367-2.464-1.021-.473-.473-.796-1.067-.938-1.709z" fill="#8d9ca8"/><path d="m334.937 286.259c0-2.647-1.052-5.185-2.923-7.056s-4.409-2.922-7.055-2.922c-10.386 0-26.557 0-36.942 0-2.647 0-5.184 1.051-7.056 2.922-1.871 1.871-2.922 4.409-2.922 7.056v.001c0 2.646 1.051 5.184 2.922 7.056 1.872 1.871 4.409 2.922 7.056 2.922h36.942c2.646 0 5.184-1.051 7.055-2.922 1.871-1.872 2.923-4.41 2.923-7.056z" fill="#685e68"/><path d="m280.026 292.236c1.572.981 3.4 1.513 5.283 1.513h36.942c2.646 0 5.184-1.051 7.055-2.922 1.872-1.872 2.923-4.41 2.923-7.056 0-2.167-.705-4.262-1.987-5.977.637.398 1.232.869 1.772 1.409 1.871 1.871 2.923 4.41 2.923 7.056 0 2.647-1.052 5.185-2.923 7.057-1.871 1.871-4.409 2.922-7.055 2.922h-36.942c-2.647 0-5.184-1.051-7.056-2.922-.339-.34-.651-.701-.935-1.08z" fill="#544854"/><path d="m417.082 364.961c0-.581-.231-1.137-.642-1.548-.41-.411-.967-.641-1.548-.641-11.824 0-67.96 0-79.784 0-.581 0-1.138.23-1.548.641-.411.411-.642.967-.642 1.548v21.701c0 .58.231 1.137.642 1.548.41.411.967.641 1.548.641h79.784c.581 0 1.138-.23 1.548-.641.411-.411.642-.968.642-1.548 0-4.916 0-16.785 0-21.701z" fill="#d8ecfe"/><path d="m340.368 362.772c-.581 0-1.138.23-1.549.641-.41.411-.641.967-.641 1.548v21.701c0 .58.231 1.137.641 1.548.411.411.968.641 1.549.641h-5.26c-.581 0-1.138-.23-1.548-.641-.411-.411-.642-.968-.642-1.548v-21.701c0-.581.231-1.137.642-1.548.41-.411.967-.641 1.548-.641z" fill="#c4e2ff"/></g><g><path d="m404.979 37.246c0-.979-.389-1.917-1.081-2.609-.692-.691-1.63-1.08-2.608-1.08-10.731 0-41.849 0-52.58 0-.978 0-1.916.389-2.608 1.08-.692.692-1.081 1.63-1.081 2.609v21.39h59.958z" fill="#8d9ca8"/><path d="m424.142 58.23c0-.978-.389-1.917-1.08-2.608-.692-.692-1.63-1.081-2.609-1.081-15.515 0-75.391 0-90.906 0-.979 0-1.917.389-2.609 1.081-.691.691-1.08 1.63-1.08 2.608v173.365c0 1.286.511 2.519 1.42 3.428s2.142 1.42 3.428 1.42h88.588c1.286 0 2.519-.511 3.428-1.42s1.42-2.142 1.42-3.428c0-26.176 0-150.312 0-173.365z" fill="#9facba"/><path d="m413.425 236.443c1.286 0 2.519-.511 3.428-1.42s1.42-2.142 1.42-3.428v-173.365c0-.978-.389-1.917-1.081-2.608-.692-.692-1.63-1.081-2.608-1.081h5.869c.979 0 1.917.389 2.609 1.081.691.691 1.08 1.63 1.08 2.608v173.365c0 1.286-.511 2.519-1.42 3.428s-2.142 1.42-3.428 1.42z" fill="#8d9ca8"/><path d="m401.19 75.188c0-1.056-.856-1.911-1.911-1.911-8.199 0-40.359 0-48.558 0-1.055 0-1.911.855-1.911 1.911v141.979c0 1.055.856 1.911 1.911 1.911h48.558c1.055 0 1.911-.856 1.911-1.911 0-15.901 0-126.078 0-141.979z" fill="#d8ecfe"/><path d="m367 73.277h16v145.801h-16z" fill="#c4e2ff"/></g><path d="m263 255v240c0 4.418-3.582 8-8 8h-240c-4.418 0-8-3.582-8-8v-240c0-4.418 3.582-8 8-8h240c4.418 0 8 3.582 8 8zm-16 8h-224v224h224z" fill="#a79ba7"/><g><path d="m230.169 454.929c0 2.76-2.236 4.999-4.997 5-40.399.025-60.565.023-60.5-.003v-101.446h60.497c1.326 0 2.598.527 3.536 1.465.938.937 1.464 2.209 1.464 3.535z" fill="#9facba"/><path d="m218.445 358.48h6.724c1.326 0 2.598.527 3.536 1.465.938.937 1.464 2.209 1.464 3.535v91.449c0 2.76-2.236 4.999-4.997 5-21.558.013-37.355.019-47.39.017 9.871-.001 23.426-.006 40.666-.017 2.76-.001 4.997-2.24 4.997-5v-91.449c0-1.326-.527-2.598-1.464-3.535-.938-.938-2.21-1.465-3.536-1.465z" fill="#8d9ca8"/><path d="m44.831 358.48c-1.326 0-2.598.527-3.536 1.465-.938.937-1.464 2.209-1.464 3.535v91.446c0 1.326.526 2.598 1.464 3.536.938.937 2.21 1.464 3.536 1.464h121.892v-151.043c0-1.326-.527-2.598-1.464-3.536-.938-.938-2.21-1.464-3.536-1.464-11.86 0-41.586 0-53.446 0-2.762 0-5 2.238-5 5v49.597z" fill="#9facba"/><path d="m50.216 358.48c-1.326 0-2.598.527-3.535 1.465-.938.937-1.465 2.209-1.465 3.535v91.446c0 1.326.527 2.598 1.465 3.536.937.937 2.209 1.464 3.535 1.464h-5.385c-1.326 0-2.598-.527-3.536-1.464-.938-.938-1.464-2.21-1.464-3.536v-91.446c0-1.326.526-2.598 1.464-3.535.938-.938 2.21-1.465 3.536-1.465zm63.446-54.597c-2.761 0-5 2.238-5 5v49.597h-5.385v-49.597c0-2.762 2.238-5 5-5z" fill="#8d9ca8"/><path d="m115.833 288.187c0-2.761 2.239-5 5-5h28.334c2.761 0 5 2.239 5 5v19.256h-38.334z" fill="#8192a5"/><path d="m103.277 459.927v-151.044c0-1.326.526-2.598 1.464-3.536s2.21-1.464 3.536-1.464h53.446c1.326 0 2.598.526 3.536 1.464.937.938 1.464 2.21 1.464 3.536v151.044" fill="#8d9ca8"/><path d="m109.048 459.927h-5.771v-151.044c0-1.326.526-2.598 1.464-3.536s2.21-1.464 3.536-1.464h5.771c-1.326 0-2.598.526-3.535 1.464-.938.938-1.465 2.21-1.465 3.536z" fill="#8192a5"/><path d="m83.506 383.023v52.361c0 1.461-1.184 2.645-2.645 2.645h-18.615c-1.46 0-2.644-1.184-2.644-2.645v-52.361c0-1.461 1.184-2.645 2.644-2.645h18.615c1.461 0 2.645 1.184 2.645 2.645zm126.892.01v52.361c0 1.461-1.184 2.645-2.645 2.645h-18.614c-1.461 0-2.645-1.184-2.645-2.645v-52.361c0-1.461 1.184-2.645 2.645-2.645h18.614c1.461 0 2.645 1.184 2.645 2.645zm-63.446-53.827v106.188c0 1.461-1.184 2.645-2.645 2.645h-18.614c-1.461 0-2.645-1.184-2.645-2.645v-106.188c0-1.461 1.184-2.645 2.645-2.645h18.614c1.461 0 2.645 1.184 2.645 2.645z" fill="#d8ecfe"/><path d="m75.757 380.378h5.104c1.461 0 2.645 1.184 2.645 2.645v52.361c0 1.461-1.184 2.645-2.645 2.645h-5.104c1.461 0 2.645-1.184 2.645-2.645v-52.361c0-1.461-1.184-2.645-2.645-2.645zm126.892.01h5.104c1.461 0 2.645 1.184 2.645 2.645v52.361c0 1.461-1.184 2.645-2.645 2.645h-5.104c1.461 0 2.645-1.184 2.645-2.645v-52.361c0-1.461-1.184-2.645-2.645-2.645zm-63.446-53.827h5.104c1.461 0 2.645 1.184 2.645 2.645v106.188c0 1.461-1.184 2.645-2.645 2.645h-5.104c1.461 0 2.645-1.184 2.645-2.645v-106.188c0-1.461-1.184-2.645-2.645-2.645z" fill="#c4e2ff"/></g><g><path d="m80.911 114.114 54.485-44.541 53.693 43.894v100.862c0 1.326-.527 2.598-1.464 3.536-.938.938-2.21 1.464-3.536 1.464-18.099 0-80.079 0-98.178 0-1.326 0-2.598-.526-3.536-1.464-.937-.938-1.464-2.21-1.464-3.536 0-20.903 0-100.215 0-100.215z" fill="#eceff1"/><path d="m130.396 73.661 5-4.088 53.693 43.894v100.862c0 1.326-.527 2.598-1.464 3.536-.938.938-2.21 1.464-3.536 1.464-1.326 0-2.598-.526-3.535-1.464-.938-.938-1.465-2.21-1.465-3.536 0-20.985 0-100.862 0-100.862z" fill="#d1d1d6"/><path d="m135 88.039-50.472 41.261c-1.198.979-2.713 1.486-4.259 1.426l-26.674-1.033c-2.633-.102-4.929-1.822-5.766-4.321s-.042-5.256 1.999-6.924l81.159-66.346c2.335-1.909 5.691-1.909 8.026 0l81.159 66.346c2.041 1.668 2.836 4.425 1.999 6.924s-3.133 4.219-5.766 4.321l-26.674 1.033c-1.546.06-3.061-.447-4.259-1.426z" fill="#fe646f"/><path d="m130 52.909.987-.807c2.335-1.909 5.691-1.909 8.026 0l81.159 66.346c2.041 1.668 2.836 4.425 1.999 6.924s-3.133 4.219-5.766 4.321l-26.674 1.033c-.75.029-1.493-.075-2.195-.302l18.869-.731c2.633-.102 4.929-1.822 5.766-4.321s.042-5.256-1.999-6.924zm5 35.13-50.472 41.261c-1.198.979-2.713 1.486-4.259 1.426l-7.805-.302c.746-.241 1.447-.62 2.064-1.124l55.472-45.348z" fill="#fd4755"/><path d="m153.034 166.233c0-1.212-.481-2.374-1.338-3.23-.857-.857-2.019-1.339-3.231-1.339-6.925 0-20.005 0-26.93 0-1.212 0-2.374.482-3.231 1.339-.857.856-1.338 2.018-1.338 3.23v53.096h36.068z" fill="#a79ba7"/></g></g></g></svg>