<svg id="Layer_1" viewBox="0 0 512 512" xmlns="http://www.w3.org/2000/svg" data-name="Layer 1"><g fill-rule="evenodd"><path d="m178.318 500.993h-118.786v-321.457l118.786-50.778z" fill="#909cd1"/><path d="m178.318 500.993h-24.262v-361.864l24.262-10.371z" fill="#7986bf"/><path d="m394.146 500.993h-228.145v-441.238l114.073-48.763 114.072 48.763z" fill="#aeaed6"/><path d="m280.074 500.993h-114.073v-441.238l114.073-48.763z" fill="#d1d1f0"/><path d="m232.59 322.48v-44.272l24.296-3.753v45.696zm0-69.76v-44.237l24.296-5.995v45.659zm0-69.725v-44.271l24.296-8.239v45.696l-24.296 6.815zm0-69.725-.007-41.463 24.303-10.427v42.833zm-43.401 213.341v-41.662l21.561-3.325v42.923zm0-65.687v-41.762l21.568-5.316v43.026l-21.568 4.053zm0-65.721v-41.762l21.568-7.305v43.026zm0-65.786v-39.015l21.575-9.248-.006 40.264-21.568 7.998z" fill="#f3f3ff"/><path d="m120.411 392.118v-37.128l20.211-1.976v39.103h-20.211zm0-57.971v-36.177l20.211-4.171v37.563zm0-57.021v-36.199l20.211-6.387v37.607zm-.006-57.021v-33.9l20.217-8.567v35.271zm-35.493 172.012v-33.652l17.543-1.713-.004 35.365zm0-53.084v-33.78l17.549-3.604v34.982l-17.549 2.403zm0-53.148v-33.781l17.549-5.517v34.982zm0-53.191v-31.55l17.56-7.396-.005 32.739-17.554 6.207z" fill="#f3f3ff"/><path d="m442.685 346.134v154.874h-206.872v-154.874h-35.287c-3.365 0-6.207-2.206-7.041-5.466-.835-3.26.598-6.56 3.549-8.177l133.082-72.916c5.86-3.211 12.409-3.211 18.269 0l133.081 72.916c2.951 1.616 4.383 4.917 3.549 8.177s-3.677 5.466-7.041 5.466h-35.287z" fill="#d19458"/><path d="m426.897 501.008h-191.084v-154.874h-35.287c-3.364 0-6.207-2.206-7.041-5.465-.835-3.26.598-6.561 3.549-8.177l130.704-71.613 130.704 71.613c2.951 1.616 4.383 4.917 3.549 8.177-.834 3.259-3.677 5.465-7.042 5.465h-28.051v154.874z" fill="#e6b17c"/></g><path d="m262.794 383.206h51.613v89.418h-51.613z" fill="#f3f3ff"/><path d="m350.79 346.134h64.914v29.021h-64.914z" fill="#f3f3ff"/><path d="m383.247 343.983v33.322" fill="none" stroke="#e6b17c" stroke-linejoin="round" stroke-width="12"/><path d="m250.365 383.205h71.537" fill="none" stroke="#d19458" stroke-linecap="round" stroke-linejoin="round" stroke-width="12"/><path d="m332.095 326.471c10.575 0 19.2-8.625 19.2-19.2s-8.625-19.2-19.2-19.2-19.2 8.625-19.2 19.2 8.625 19.2 19.2 19.2z" fill="#d19458" fill-rule="evenodd"/><circle cx="339.25" cy="307.272" fill="#f3f3ff" r="18.786" transform="matrix(.995 -.098 .098 .995 -28.528 34.79)"/><g fill="#d19458"><path d="m344.018 346.134h6.772v29.021h-6.772z"/><path d="m252.398 383.206h10.395v89.418h-10.395z"/><path d="m26.751 472.624h449.482v28.369h-449.482z"/></g><path d="m26.751 488.488h449.482v12.505h-449.482z" fill="#ba8047"/></svg>