<svg id="Layer_1" enable-background="new 0 0 512 512" height="512" viewBox="0 0 512 512" width="512" xmlns="http://www.w3.org/2000/svg"><g clip-rule="evenodd" fill-rule="evenodd"><g><path d="m145.255 144.13-93.253 67.752v119.528c0 15.781 12.912 28.694 28.693 28.694h129.12c15.781 0 28.693-12.912 28.693-28.694v-119.528z" fill="#eceff1"/><path d="m145.255 360.104h64.56c15.781 0 28.693-12.912 28.693-28.694v-119.528l-93.253-67.752z" fill="#e1e4e6"/><path d="m39.842 229.849c-8.974 6.503-21.52 4.499-28.023-4.474-6.503-8.974-4.499-21.521 4.475-28.023l117.187-85.142c7.329-5.311 17.04-4.947 23.897.253l116.839 84.889c8.974 6.503 10.977 19.05 4.474 28.023-6.503 8.974-19.049 10.977-28.023 4.474l-105.412-76.587z" fill="#fe646f"/><path d="m145.255 108.391c4.321.004 8.599 1.398 12.122 4.071l116.839 84.889c8.974 6.503 10.977 19.05 4.474 28.024s-19.049 10.977-28.023 4.474l-105.412-76.587z" fill="#fd4755"/><path d="m159.57 250.35h-28.631c-7.424 0-13.497 6.074-13.497 13.497v96.256h55.626v-96.256c-.001-7.423-6.074-13.497-13.498-13.497z" fill="#f1ba84"/><path d="m159.57 250.35h-14.315v109.754h27.813v-96.256c-.001-7.424-6.074-13.498-13.498-13.498z" fill="#de9252"/></g><g><path d="m221.894 413.838h33.576c2.754 0 5 2.246 5 5v73.598c0 2.754-2.246 5-5 5h-33.576c-2.754 0-5-2.246-5-5v-73.598c0-2.754 2.246-5 5-5z" fill="#fe646f"/><path d="m238.682 413.838h16.788c2.754 0 5 2.246 5 5v73.598c0 2.754-2.246 5-5 5h-16.788z" fill="#fd4755"/><path d="m302.806 340.32h33.576c2.754 0 5 2.246 5 5v147.116c0 2.754-2.246 5-5 5h-33.576c-2.754 0-5-2.246-5-5v-147.116c.001-2.754 2.246-5 5-5z" fill="#ffe177"/><path d="m319.594 340.32h16.788c2.754 0 5 2.246 5 5v147.116c0 2.754-2.246 5-5 5h-16.788z" fill="#ffd064"/><path d="m383.719 370.038h33.577c2.754 0 5 2.246 5 5v117.398c0 2.754-2.246 5-5 5-11.192 0-22.384 0-33.577 0-2.754 0-5-2.246-5-5 0-41.68 0-75.718 0-117.398 0-2.754 2.246-5 5-5z" fill="#6cf5c2"/><path d="m400.508 370.038h16.788c2.754 0 5 2.246 5 5v117.398c0 2.754-2.246 5-5 5h-16.788z" fill="#00e499"/><path d="m464.631 283.16h33.576c2.754 0 5 2.246 5 5v204.276c0 2.754-2.246 5-5 5h-33.576c-2.754 0-5-2.246-5-5v-204.277c0-2.754 2.246-4.999 5-4.999z" fill="#8ac9fe"/><path d="m481.419 283.16h16.788c2.754 0 5 2.246 5 5v204.276c0 2.754-2.246 5-5 5h-16.788z" fill="#60b7ff"/></g><g><path d="m243.931 328.29c-3.331 2.899-8.382 2.549-11.281-.781-2.899-3.331-2.549-8.382.781-11.281l80.913-70.472c2.649-2.306 6.387-2.556 9.264-.887l75.185 37.085 76.875-80.224c3.055-3.176 8.106-3.273 11.281-.219 3.176 3.055 3.273 8.106.219 11.281l-80.742 84.258c-2.332 2.581-6.177 3.417-9.451 1.802l-76.132-37.552z" fill="#a79ba7"/><ellipse cx="238.681" cy="322.259" fill="#fd4755" rx="22.581" ry="22.581" transform="matrix(.957 -.29 .29 .957 -83.144 82.993)"/><ellipse cx="319.594" cy="251.786" fill="#ffd064" rx="22.581" ry="22.581" transform="matrix(.16 -.987 .987 .16 19.866 526.922)"/><path d="m400.507 314.278c12.437 0 22.581-10.144 22.581-22.581s-10.144-22.581-22.581-22.581-22.581 10.144-22.581 22.581 10.144 22.581 22.581 22.581z" fill="#00e499"/><ellipse cx="481.419" cy="207.261" fill="#60b7ff" rx="22.581" ry="22.581" transform="matrix(.957 -.29 .29 .957 -39.404 148.4)"/></g><g><ellipse cx="363.604" cy="93.437" fill="#ffe177" rx="78.873" ry="78.873" transform="matrix(.707 -.707 .707 .707 40.427 284.474)"/><path d="m363.603 14.564c43.561 0 78.873 35.313 78.873 78.873s-35.313 78.873-78.873 78.873z" fill="#ffd064"/><path d="m394.199 66.383c1.708 4.073-.208 8.76-4.281 10.469s-8.76-.208-10.469-4.281c-2.174-5.179-6.302-8.168-10.834-9.317-2.909-.737-5.948-.783-8.772-.214-2.73.55-5.239 1.658-7.195 3.248-2.395 1.947-3.915 4.752-3.747 8.223.152 3.136 1.798 5.292 4.093 6.79 3.223 2.104 7.698 3.277 11.964 3.978 6.274 1.03 13.128 2.753 18.883 6.227 6.687 4.037 11.731 10.113 12.866 19.458.086.711.141 1.568.164 2.561.204 8.578-3.702 14.965-9.574 19.42-4.492 3.408-10.107 5.543-15.692 6.551v3.853c0 4.418-3.582 8-8 8s-8-3.582-8-8v-4.01c-4.51-.932-8.807-2.644-12.549-5.137-5.981-3.984-10.565-9.864-12.503-17.642-1.053-4.28 1.564-8.603 5.844-9.656s8.604 1.564 9.656 5.844c.888 3.565 3.022 6.281 5.816 8.142 3.501 2.332 8.004 3.443 12.58 3.334.755-.018 1.685-.093 2.784-.226 3.881-.471 7.736-1.688 10.441-3.74 1.997-1.515 3.326-3.618 3.261-6.358-.004-.182-.038-.535-.102-1.061-.435-3.582-2.495-5.988-5.24-7.645-3.677-2.22-8.585-3.408-13.196-4.165-6.074-.997-12.675-2.817-18.089-6.353-6.342-4.141-10.899-10.27-11.343-19.415-.44-9.07 3.464-16.341 9.622-21.348 3.689-2.999 8.199-5.123 13.019-6.255v-4.131c0-4.418 3.582-8 8-8s8 3.582 8 8v4.016c.296.067.592.137.886.212 9.091 2.303 17.363 8.281 21.707 18.628z" fill="#eceff1"/></g></g></svg>