<svg id="Layer_1" enable-background="new 0 0 512 512" viewBox="0 0 512 512" xmlns="http://www.w3.org/2000/svg"><g clip-rule="evenodd" fill-rule="evenodd"><g fill="#0b4168"><path d="m248.55 112.59c-12.03 2.41-21.54 11.91-23.94 23.95h23.94z"/><path d="m260.55 112.59v23.95h23.94c-2.4-12.04-11.91-21.54-23.94-23.95z"/><path d="m284.49 148.54h-23.94v23.94c12.03-2.41 21.54-11.91 23.94-23.94z"/><path d="m248.55 172.48v-23.94h-23.94c2.4 12.03 11.91 21.53 23.94 23.94z"/></g><path d="m297.09 142.54c0 23.46-19.08 42.54-42.54 42.54s-42.54-19.08-42.54-42.54c0-23.45 19.08-42.54 42.54-42.54s42.54 19.08 42.54 42.54zm-69.42 162.4c0-14.82 12.06-26.88 26.88-26.88s26.88 12.06 26.88 26.88c0 2.85-.45 5.59-1.28 8.17l55.84 33.01h27.67c15.14 0 27.46 12.32 27.46 27.46v52.58h27.84v-248.07l-164.33-108.94-164.49 108.71v248.3h27.84v-52.58c0-15.14 12.32-27.46 27.46-27.46h27.67l55.84-33.01c-.83-2.58-1.28-5.32-1.28-8.17z" fill="#086fb6"/><path d="m257.95 56.95 202.26 134.08c5.15 3.41 12.11 2 15.53-3.15 1.64-2.48 2.22-5.47 1.62-8.42-.6-2.94-2.29-5.48-4.77-7.12l-217.93-144.46-218.14 144.17c-2.48 1.64-4.18 4.16-4.78 7.11-.6 2.94-.03 5.93 1.61 8.42 1.64 2.48 4.17 4.18 7.12 4.78 2.94.6 5.93.03 8.41-1.61l202.44-133.8c1.01-.66 2.16-.99 3.31-.99 1.16-.01 2.31.32 3.32.99z" fill="#0b4168"/><path d="m269.43 304.94c0-8.2-6.68-14.88-14.88-14.88s-14.88 6.67-14.88 14.88c0 8.2 6.68 14.88 14.88 14.88s14.88-6.68 14.88-14.88z" fill="#0b4168"/><path d="m274.03 323.43c-4.9 5.16-11.82 8.39-19.48 8.39s-14.58-3.23-19.48-8.39l-38.38 22.69h115.72z" fill="#086fb6"/><path d="m363.66 358.12h-218.22c-8.53 0-15.46 6.94-15.46 15.46v95.64c0 8.53 6.93 15.46 15.46 15.46h218.22c8.53 0 15.46-6.94 15.46-15.46v-95.64c0-8.53-6.93-15.46-15.46-15.46zm-191.72 28.92c11.23 0 20.36 9.13 20.36 20.36 0 5.55-2.24 10.59-5.86 14.27 3.6 3.62 5.83 8.6 5.83 14.1v14c0 3.32-2.69 6-6 6-3.32 0-6-2.69-6-6v-14c0-4.41-3.59-8-8.01-8h-9.13v22c0 3.32-2.69 6-6 6-3.32 0-6-2.69-6-6v-56.71c0-3.31 2.68-6 6-6h14.81zm143.52 6c0-3.31 2.68-6 6-6h30.51c3.31 0 6 2.69 6 6 0 3.32-2.69 6-6 6h-9.86v50.72c0 3.32-2.69 6-6 6-3.32 0-6-2.69-6-6v-50.72h-8.65c-3.32 0-6-2.68-6-6zm-48.96-5.84c2.72-.63 5.52.71 6.74 3.22l16.21 33.31v-30.68c0-3.31 2.68-6 6-6 3.31 0 6 2.69 6 6v56.71c0 2.8-1.93 5.22-4.65 5.85-.45.1-.91.15-1.35.15-2.26 0-4.38-1.28-5.4-3.37l-16.21-33.31v30.68c0 3.32-2.68 6-6 6-3.31 0-6-2.69-6-6v-56.71c0-2.8 1.93-5.23 4.66-5.85zm-54.19-.16h29.53c3.31 0 6 2.69 6 6 0 3.32-2.69 6-6 6h-23.53v16.36h12.99c3.32 0 6 2.69 6 6 0 3.32-2.68 6-6 6h-12.99v16.36h23.53c3.31 0 6 2.69 6 6 0 3.32-2.69 6-6 6h-29.53c-3.32 0-6-2.69-6-6v-56.71c0-3.32 2.68-6.01 6-6.01z" fill="#0b4168"/><path d="m180.3 407.4c0-4.61-3.75-8.36-8.36-8.36h-8.81v16.72h8.81c4.61 0 8.36-3.75 8.36-8.36z" fill="#0b4168"/><path d="m117.98 438.16h-67.04c-4.58 0-8.31 3.73-8.31 8.31s3.73 8.31 8.31 8.31h67.04z" fill="#0b4168"/><path d="m391.12 438.16v16.61h67.04c4.58 0 8.31-3.72 8.31-8.31 0-4.58-3.73-8.31-8.31-8.31h-67.04z" fill="#0b4168"/></g></svg>