<svg id="Layer_1" enable-background="new 0 0 512 512" viewBox="0 0 512 512" xmlns="http://www.w3.org/2000/svg"><path clip-rule="evenodd" d="m214.085 36.709 106.808 70.478 106.807 70.478v53.403l-106.807-70.477-106.808-70.478-106.778 70.478-106.807 70.477v-53.403l106.807-70.478z" fill="#f44335" fill-rule="evenodd"/><g><path clip-rule="evenodd" d="m214.085 90.113 89.297 58.901 89.268 58.93v117.802 105.412h-357.1v-105.412-117.802l89.268-58.93z" fill="#ffd54f" fill-rule="evenodd"/></g><g><path clip-rule="evenodd" d="m156.581 263.733h115.039v167.425h-115.039z" fill="#407093" fill-rule="evenodd"/></g><g><path clip-rule="evenodd" d="m392.65 358.877c-14.689.087-29.232-6.69-38.482-19.488l-130.716-181.329 21.786-47.412 58.145 38.366 89.268 58.93v117.802 33.131z" fill="#ffb300" fill-rule="evenodd"/></g><g><path clip-rule="evenodd" d="m245.238 110.648 18.819-40.983 56.836 37.522 106.807 70.478v53.403l-106.807-70.477z" fill="#cf2b1f" fill-rule="evenodd"/></g><g><path clip-rule="evenodd" d="m283.691 67.367 48.575-5.323 48.575-5.352 28.185 39.093 96.801 134.265c9.715 13.467 6.632 32.345-6.806 42.031l-89.122 64.253c-13.438 9.715-32.316 6.632-42.031-6.806l-96.801-134.295-28.185-39.064 20.419-44.416z" fill="#64b9fc" fill-rule="evenodd"/></g><g><path clip-rule="evenodd" d="m310.392 98.112c12.886-9.279 30.832-6.37 40.14 6.515 9.279 12.857 6.37 30.832-6.515 40.111s-30.832 6.37-40.14-6.486c-9.279-12.886-6.37-30.861 6.515-40.14z" fill="#f2fbff" fill-rule="evenodd"/></g><g><path clip-rule="evenodd" d="m104.02 501.199c57.04 0 103.55-46.51 103.55-103.521 0-57.04-46.51-103.549-103.55-103.549-57.01 0-103.52 46.51-103.52 103.549 0 57.011 46.51 103.521 103.52 103.521z" fill="#64b9fc" fill-rule="evenodd"/></g><path d="m121.73 467.97c-6.276 1.685-12.647 2.519-18.976 2.519-12.604 0-25.043-3.306-36.253-9.778-16.84-9.724-28.882-25.427-33.907-44.219-1.025-3.833 1.251-7.772 5.084-8.797 3.835-1.023 7.772 1.252 8.797 5.084 4.033 15.082 13.697 27.684 27.211 35.487 13.512 7.801 29.252 9.871 44.323 5.824 31.114-8.328 49.647-40.421 41.316-71.542-4.033-15.068-13.697-27.664-27.212-35.467-13.514-7.803-29.258-9.879-44.328-5.844-11.576 3.1-21.681 9.533-29.291 18.48l11.377-2.351c3.889-.798 7.687 1.697 8.49 5.582.803 3.886-1.697 7.687-5.582 8.49l-26.323 5.439c-.482.099-.969.148-1.454.148-1.392 0-2.766-.405-3.947-1.181-1.592-1.047-2.703-2.683-3.089-4.549l-5.439-26.324c-.803-3.886 1.697-7.687 5.582-8.49 3.886-.8 7.687 1.696 8.49 5.582l1.571 7.601c9.408-10.777 21.779-18.527 35.899-22.308 18.78-5.027 38.393-2.441 55.229 7.281 16.84 9.723 28.882 25.419 33.908 44.195 10.379 38.776-12.713 78.762-51.476 89.138zm-15.557-36.928c1.417 1.544 3.352 2.327 5.295 2.327 1.735 0 3.476-.625 4.856-1.89 2.924-2.683 3.119-7.227.436-10.152l-12.703-13.845-.298-38.393c-.031-3.949-3.241-7.129-7.183-7.129-.019 0-.038 0-.057 0-3.968.031-7.159 3.272-7.129 7.24l.32 41.158c.014 1.78.687 3.491 1.89 4.802z" fill="#f2fbff"/><g><path d="m334.405 118.692c-.944 3.109-3.797 5.11-6.875 5.11-.688 0-1.396-.103-2.083-.318-3.797-1.149-5.952-5.151-4.802-8.948 1.693-5.582.513-15.094-3.089-26.761-2.237-7.255-5.418-15.33-9.42-23.827-13.35-28.229-31.738-41.579-38.541-38.367-5.777 2.73-9.451 11.667-6.67 26.146l-15.392-10.159c.195-15.525 7.368-24.945 15.925-28.978 16.9-7.993 41.702 11.441 57.678 45.221 4.884 10.354 11.647 26.648 13.863 41.476 1.068 7.071 1.099 13.802-.594 19.405z" fill="#407093"/></g></svg>