<svg height="512" viewBox="0 0 58 58" width="512" xmlns="http://www.w3.org/2000/svg"><g id="Page-1" fill="none" fill-rule="evenodd"><g id="032---House-Sign-Sale"><path id="Path" d="m56 12c1.1032019-.0032948 1.9967052-.8967981 2-2v-4c-.0032948-1.10320187-.8967981-1.9967052-2-2h-46v8z" fill="#a56a43"/><path id="Path" d="m6 12h-4c-1.1045695 0-2-.8954305-2-2v-4c0-1.1045695.8954305-2 2-2h4z" fill="#a56a43"/><rect id="Rectangle" fill="#f3d55b" height="42" rx="2" width="42" x="16" y="16"/><g fill="#e64c3c"><path id="Path" d="m25 47c1.221 0 2 .592 2 1 0 .5522847.4477153 1 1 1s1-.4477153 1-1c0-1.682-1.757-3-4-3s-4 1.318-4 3 1.757 3 4 3c1.221 0 2 .592 2 1s-.779 1-2 1-2-.592-2-1c0-.5522847-.4477153-1-1-1s-1 .4477153-1 1c0 1.682 1.757 3 4 3s4-1.318 4-3-1.757-3-4-3c-1.221 0-2-.592-2-1s.779-1 2-1z"/><path id="Shape" d="m34.937 45.649c-.1458609-.3912402-.5194545-.6506706-.937-.6506706s-.7911391.2594304-.937.6506706l-3 8c-.125043.3347579-.0619962.7107965.1653911.9864658s.5845697.4090886.937.35c.3524303-.0590885.6465659-.3017079.7716089-.6364658l.656-1.751h2.814l.656 1.751c.1457526.3913699.5193707.6509487.937.651.1197749-.0004117.2385583-.0217318.351-.063.2486069-.0929623.4500582-.2809448.5599743-.522535.109916-.2415902.1192788-.5169671.0260257-.765465zm-1.594 4.951.657-1.752.657 1.752z" fill-rule="nonzero"/><path id="Path" d="m44 53h-3v-7c0-.5522847-.4477153-1-1-1s-1 .4477153-1 1v8c0 .5522847.4477153 1 1 1h4c.5522847 0 1-.4477153 1-1s-.4477153-1-1-1z"/><path id="Path" d="m52 51c.5522847 0 1-.4477153 1-1s-.4477153-1-1-1h-4v-2h4c.5522847 0 1-.4477153 1-1s-.4477153-1-1-1h-5c-.5522847 0-1 .4477153-1 1v8c0 .5522847.4477153 1 1 1h5c.5522847 0 1-.4477153 1-1s-.4477153-1-1-1h-4v-2z"/></g><path id="Path" d="m46 30v11c0 .5522847-.4477153 1-1 1h-16c-.5522847 0-1-.4477153-1-1v-11" fill="#ecf0f1"/><path id="Path" d="m37 30h9.943c.4324447.0111838.8258838-.2487811.9851942-.6509673.1593104-.4021861.0506091-.8610544-.2721942-1.1490327l-9.943-8.933c-.40607-.3628948-1.01993-.3628948-1.426 0l-9.943 8.933c-.3228033.2879783-.4315046.7468466-.2721942 1.1490327.1593104.4021862.5527495.6621511.9851942.6509673z" fill="#e64c3c"/><path id="Path" d="m46 26.71v-5.71c0-.5522847-.4477153-1-1-1h-2c-.5522847 0-1 .4477153-1 1v2.12" fill="#c03a2b"/><path id="Path" d="m37 36c1.1045695 0 2 .8954305 2 2v4h-4v-4c0-1.1045695.8954305-2 2-2z" fill="#cb8252"/><path id="Path" d="m23 21c-.5522847 0-1-.4477153-1-1v-18c0-.55228475.4477153-1 1-1s1 .44771525 1 1v18c0 .5522847-.4477153 1-1 1z" fill="#cf976a"/><path id="Path" d="m51 21c-.5522847 0-1-.4477153-1-1v-18c0-.55228475.4477153-1 1-1s1 .44771525 1 1v18c0 .5522847-.4477153 1-1 1z" fill="#cf976a"/><rect id="Rectangle" fill="#cb8252" height="58" rx="2" width="8" x="4"/><circle id="Oval" cx="8" cy="8" fill="#bdc3c7" r="1"/></g></g></svg>