<svg id="Flat" enable-background="new 0 0 512 512" viewBox="0 0 512 512" xmlns="http://www.w3.org/2000/svg"><path d="m24 136h464v112h-464z" fill="#eb423f"/><path d="m24 248h464v32h-464z" fill="#d13330"/><path d="m272 312-96-96-96 96v144h192z" fill="#fbe9d8"/><path d="m272 280h192v176h-192z" fill="#fbe9d8"/><path d="m176 312c-35.346 0-64 28.654-64 64v80h128v-80c0-35.346-28.654-64-64-64z" fill="#e3d3c2"/><path d="m24 456h464v32h-464z" fill="#8c5237"/><path d="m176 344c-17.673 0-32 14.327-32 32v80h64v-80c0-17.673-14.327-32-32-32z" fill="#ad6643"/><path d="m48 312h32v144h-32z" fill="#e3d3c2"/><path d="m272 312h32v144h-32z" fill="#e3d3c2"/><path d="m384 328c-17.673 0-32 14.327-32 32v48h64v-48c0-17.673-14.327-32-32-32z" fill="#ad6643"/><path d="m88 176c-4.419 0-8-3.581-8-8v-48c0-22.056 17.944-40 40-40h80c4.418 0 8 3.582 8 8 0 4.419-3.582 8-8 8h-80c-13.233 0-24 10.767-24 24v48c0 4.419-3.581 8-8 8z" fill="#e3d3c2"/><path d="m472 248h-256c-8.837 0-16-7.163-16-16v-192c0-8.837 7.163-16 16-16h256c8.837 0 16 7.163 16 16v192c0 8.837-7.163 16-16 16z" fill="#ffd33a"/><g fill="#6a7073"><path d="m272 104c0-13.233-10.767-24-24-24-4.411 0-8-3.589-8-8s3.589-8 8-8h16c4.418 0 8-3.581 8-8 0-4.418-3.582-8-8-8h-16c-13.233 0-24 10.767-24 24s10.767 24 24 24c4.411 0 8 3.589 8 8s-3.589 8-8 8h-16c-4.419 0-8 3.582-8 8 0 4.419 3.581 8 8 8h16c13.233 0 24-10.767 24-24z"/><path d="m360 128h32c4.418 0 8-3.581 8-8 0-4.418-3.582-8-8-8h-24v-56c0-4.418-3.582-8-8-8s-8 3.582-8 8v64c0 4.419 3.582 8 8 8z"/><path d="m336 104v-32c0-13.233-10.767-24-24-24s-24 10.767-24 24v32c0 13.233 10.767 24 24 24s24-10.767 24-24zm-16 0c0 4.411-3.589 8-8 8s-8-3.589-8-8v-32c0-4.411 3.589-8 8-8s8 3.589 8 8z"/><path d="m280 144c-13.233 0-24 10.767-24 24v32c0 13.233 10.767 24 24 24s24-10.767 24-24v-32c0-13.233-10.767-24-24-24zm8 56c0 4.411-3.589 8-8 8s-8-3.589-8-8v-32c0-4.411 3.589-8 8-8s8 3.589 8 8z"/><path d="m440 48h-16c-4.418 0-8 3.582-8 8v64c0 4.419 3.582 8 8 8h16c13.233 0 24-10.767 24-24v-32c0-13.233-10.767-24-24-24zm8 56c0 4.411-3.589 8-8 8h-8v-48h8c4.411 0 8 3.589 8 8z"/><path d="m360 144c-4.418 0-8 3.582-8 8v48c0 4.411-3.589 8-8 8s-8-3.589-8-8v-48c0-4.418-3.582-8-8-8s-8 3.582-8 8v48c0 13.233 10.767 24 24 24s24-10.767 24-24v-48c0-4.418-3.582-8-8-8z"/><path d="m424 144h-32c-4.418 0-8 3.582-8 8 0 4.419 3.582 8 8 8h8v56c0 4.419 3.582 8 8 8s8-3.581 8-8v-56h8c4.418 0 8-3.581 8-8 0-4.418-3.582-8-8-8z"/></g><circle cx="88" cy="184" fill="#ffd33a" r="16"/><path d="m328 320-128-128-24-24-24 24-128 128 24 24 128-128 128 128z" fill="#ed6f6d"/></svg>