<svg clip-rule="evenodd" fill-rule="evenodd" stroke-linejoin="round" stroke-miterlimit="2" viewBox="0 0 510 510" xmlns="http://www.w3.org/2000/svg"><g><g><path d="m263.52 17.697 138.042 59.156c5.346 2.299 8.607 7.245 8.607 13.072v115.24c0 91.448-65.492 162.073-154.107 177.523-88.615-15.45-154.107-86.075-154.107-177.523v-115.24c0-5.827 3.288-10.773 8.608-13.072l138.041-59.156c4.945-2.112 9.971-2.112 14.916 0z" fill="#6cf5c2"/><path d="m389.051 71.48 12.511 5.373c5.346 2.299 8.607 7.245 8.607 13.072v115.24c0 31.168-7.592 59.905-21.118 84.845z" fill="#00e499"/></g><g><g><g><path d="m307.492 111.999 17.545 17.451-80.902 80.471-17.545-17.451z" fill="#9facba"/><path d="m302.294 117.169 5.198-5.17 17.545 17.451-80.902 80.471-5.198-5.17 75.704-75.301z" fill="#8d9ca8"/></g><path d="m312.443 95.942c-1.817-1.807-8.784-6.506-11.099-7.678-20.964-10.614-42.134-9.284-56.212 4.718 27.515 7.971 45.733 27.55 45.733 27.55l49.816 49.551 23.15-23.026s-40.627-40.411-51.388-51.115z" fill="#9facba"/><path d="m254.624 85.96c22.135 9.071 36.241 24.232 36.241 24.232l49.816 49.551 17.952-17.856 5.198 5.17-23.15 23.026-49.816-49.551s-18.218-19.579-45.733-27.55c2.887-2.871 6.072-5.21 9.492-7.022z" fill="#8d9ca8"/><g><path d="m232.58 181.171c-2.18-2.169-5.138-3.387-8.221-3.387-3.084 0-6.041 1.218-8.221 3.387-20.202 20.094-70.639 70.262-70.639 70.262-2.788 2.774-4.222 6.667-3.987 10.824.236 4.156 2.122 8.236 5.243 11.341l15.818 15.733c3.122 3.105 7.223 4.981 11.402 5.216 4.179.234 8.093-1.193 10.881-3.966 0 0 50.437-50.169 70.638-70.263 2.181-2.169 3.406-5.11 3.406-8.177s-1.225-6.009-3.406-8.178c-6.725-6.689-16.189-16.103-22.914-22.792z" fill="#ecba78"/><path d="m143.576 253.854c.835 1.533 1.904 2.964 3.179 4.233l15.818 15.734c3.122 3.104 7.223 4.98 11.402 5.215 4.179.234 8.093-1.192 10.881-3.966l70.638-70.262c.139-.138.273-.279.404-.423 1.927 2.121 3.002 4.883 3.002 7.756 0 3.067-1.225 6.008-3.406 8.177l-70.638 70.263c-2.788 2.773-6.702 4.2-10.881 3.966-4.179-.235-8.28-2.111-11.402-5.216l-15.818-15.733c-3.121-3.105-5.007-7.185-5.243-11.341-.173-3.057.557-5.972 2.064-8.403z" fill="#e3a76f"/></g><g><path d="m359.942 129.847c.969-.963 2.541-.963 3.509 0l14.036 13.961c.968.963.968 2.527 0 3.49l-36.582 36.387c-.968.964-2.54.964-3.509.001l-14.035-13.962c-.969-.963-.969-2.527 0-3.49z" fill="#9facba"/><path d="m356.499 133.272 3.443-3.425c.969-.963 2.541-.963 3.509 0l14.036 13.961c.968.963.968 2.527 0 3.49l-36.582 36.388c-.968.963-2.54.963-3.509 0l-3.443-3.426 33.138-32.962c.968-.963.968-2.527 0-3.49z" fill="#8d9ca8"/></g></g><g><path d="m297.91 212.475c15.016-6.113 32.944-3.079 45.143 9.054 9.195 9.146 13.168 21.463 11.967 33.413-.37 3.861-5.083 5.515-7.855 2.758l-23.565-23.44-20.977 5.607-5.591 20.82 23.565 23.44c2.772 2.757 1.062 7.491-2.819 7.859-12.013 1.195-24.397-2.758-33.592-11.904-12.198-12.133-15.248-29.966-9.056-44.949l-68.792-68.425c-15.109 6.112-32.991 3.125-45.235-9.055-9.149-9.1-13.169-21.463-11.968-33.413.416-3.814 5.129-5.561 7.902-2.803l23.565 23.439 20.931-5.561 5.637-20.866-23.565-23.439c-2.772-2.758-1.063-7.4 2.772-7.814 12.014-1.195 24.443 2.804 33.592 11.904 12.245 12.18 15.248 29.966 9.149 44.949z" fill="#9facba"/><path d="m297.91 212.475c15.016-6.113 32.944-3.079 45.143 9.054 9.195 9.146 13.168 21.463 11.967 33.413-.277 3.217-3.65 4.918-6.33 3.815.416-11.077-3.697-22.245-12.198-30.702-12.199-12.133-30.127-15.166-45.144-9.054l-68.791-68.425c6.099-14.984 3.095-32.77-9.149-44.95-8.456-8.41-19.684-12.501-30.82-12.087-1.155-2.712.601-6.021 3.789-6.343 12.014-1.195 24.443 2.804 33.592 11.904 12.245 12.18 15.248 29.966 9.149 44.949zm4.713 27.392-5.591 20.82 23.565 23.44c2.772 2.757 1.062 7.491-2.819 7.859-.924.092-1.802.138-2.68.184-.231-.506-.6-1.057-1.063-1.517l-23.565-23.44 6.977-25.967zm-153.626-112.915c0-.919.046-1.792.138-2.712.416-3.814 5.129-5.561 7.902-2.803l23.565 23.439 20.931-5.561-1.386 5.148-26.107 6.94-23.565-23.44c-.462-.459-.97-.781-1.478-1.011z" fill="#8d9ca8"/></g></g><g><path d="m187.706 493.887h136.708c3.831 0 7.116-1.647 9.397-4.718 2.281-3.07 2.924-6.706 1.813-10.361-10.303-34.175-42.022-59.07-79.559-59.07-37.538 0-69.266 24.895-79.569 59.07-1.102 3.655-.468 7.291 1.813 10.361 2.281 3.071 5.575 4.718 9.397 4.718z" fill="#8ac9fe"/><path d="m324.414 493.887c3.831 0 7.116-1.647 9.397-4.718 2.281-3.07 2.924-6.706 1.813-10.361-10.303-34.175-42.022-59.07-79.559-59.07-3.977 0-7.886.283-11.707.819 32.303 4.562 58.641 27.692 67.852 58.251 1.112 3.655.478 7.291-1.803 10.361-2.281 3.071-5.575 4.718-9.396 4.718z" fill="#60b7ff"/><path d="m256.065 412.856c23.14 0 42.012-18.871 42.012-42.012 0-23.14-18.872-42.011-42.012-42.011-23.141 0-42.012 18.871-42.012 42.011 0 23.141 18.871 42.012 42.012 42.012z" fill="#f6dccd"/><path d="m256.065 328.833c23.199 0 42.012 18.812 42.012 42.011 0 23.209-18.813 42.012-42.012 42.012-1.989 0-3.948-.136-5.858-.399 20.43-2.856 36.163-20.392 36.163-41.613 0-21.21-15.733-38.756-36.163-41.602 1.91-.263 3.869-.409 5.858-.409z" fill="#f1cbbc"/></g><g><path d="m78.798 478.469h136.709c3.83 0 7.115-1.648 9.396-4.718 2.281-3.071 2.925-6.707 1.813-10.362-10.303-34.175-42.021-59.07-79.559-59.07s-69.266 24.895-79.569 59.07c-1.101 3.655-.468 7.291 1.813 10.362 2.281 3.07 5.576 4.718 9.397 4.718z" fill="#8ac9fe"/><path d="m215.507 478.469c3.83 0 7.115-1.648 9.396-4.718 2.281-3.071 2.925-6.707 1.813-10.362-10.303-34.175-42.021-59.07-79.559-59.07-3.977 0-7.886.283-11.707.819 32.304 4.562 58.641 27.693 67.853 58.251 1.111 3.655.477 7.291-1.804 10.362-2.28 3.07-5.575 4.718-9.396 4.718z" fill="#60b7ff"/><path d="m147.157 397.437c23.141 0 42.012-18.871 42.012-42.011 0-23.141-18.871-42.012-42.012-42.012-23.14 0-42.012 18.871-42.012 42.012 0 23.14 18.872 42.011 42.012 42.011z" fill="#f6dccd"/><path d="m147.157 313.414c23.199 0 42.012 18.813 42.012 42.012 0 23.209-18.813 42.011-42.012 42.011-1.988 0-3.948-.136-5.858-.399 20.431-2.856 36.163-20.392 36.163-41.612 0-21.211-15.732-38.756-36.163-41.603 1.91-.263 3.87-.409 5.858-.409z" fill="#f1cbbc"/></g><g><path d="m294.489 478.469h136.709c3.831 0 7.116-1.648 9.396-4.718 2.281-3.071 2.925-6.707 1.813-10.362-10.303-34.175-42.021-59.07-79.559-59.07-37.537 0-69.266 24.895-79.569 59.07-1.101 3.655-.468 7.291 1.813 10.362 2.281 3.07 5.576 4.718 9.397 4.718z" fill="#8ac9fe"/><path d="m431.198 478.469c3.831 0 7.116-1.648 9.396-4.718 2.281-3.071 2.925-6.707 1.813-10.362-10.303-34.175-42.021-59.07-79.559-59.07-3.977 0-7.885.283-11.706.819 32.303 4.562 58.641 27.693 67.852 58.251 1.111 3.655.478 7.291-1.803 10.362-2.281 3.07-5.576 4.718-9.397 4.718z" fill="#60b7ff"/><path d="m362.848 397.437c23.141 0 42.012-18.871 42.012-42.011 0-23.141-18.871-42.012-42.012-42.012-23.14 0-42.011 18.871-42.011 42.012 0 23.14 18.871 42.011 42.011 42.011z" fill="#f6dccd"/><path d="m362.848 313.414c23.199 0 42.012 18.813 42.012 42.012 0 23.209-18.813 42.011-42.012 42.011-1.988 0-3.947-.136-5.858-.399 20.431-2.856 36.163-20.392 36.163-41.612 0-21.211-15.732-38.756-36.163-41.603 1.911-.263 3.87-.409 5.858-.409z" fill="#f1cbbc"/></g><g><path d="m187.706 493.887h136.708c3.831 0 7.116-1.647 9.397-4.718 2.281-3.07 2.924-6.706 1.813-10.361-10.303-34.175-42.022-59.07-79.559-59.07-37.538 0-69.266 24.895-79.569 59.07-1.102 3.655-.468 7.291 1.813 10.361 2.281 3.071 5.575 4.718 9.397 4.718z" fill="#ffe177"/><path d="m324.414 493.887c3.831 0 7.116-1.647 9.397-4.718 2.281-3.07 2.924-6.706 1.813-10.361-10.303-34.175-42.022-59.07-79.559-59.07-3.977 0-7.886.283-11.707.819 32.303 4.562 58.641 27.692 67.852 58.251 1.112 3.655.478 7.291-1.803 10.361-2.281 3.071-5.575 4.718-9.396 4.718z" fill="#ffd064"/><path d="m256.065 412.856c23.14 0 42.012-18.871 42.012-42.012 0-23.14-18.872-42.011-42.012-42.011-23.141 0-42.012 18.871-42.012 42.011 0 23.141 18.871 42.012 42.012 42.012z" fill="#f6dccd"/><path d="m256.065 328.833c23.199 0 42.012 18.812 42.012 42.011 0 23.209-18.813 42.012-42.012 42.012-1.989 0-3.948-.136-5.858-.399 20.43-2.856 36.163-20.392 36.163-41.613 0-21.21-15.733-38.756-36.163-41.602 1.91-.263 3.869-.409 5.858-.409z" fill="#f1cbbc"/></g></g></svg>