<svg id="Layer_1_1_" enable-background="new 0 0 64 64" height="512" viewBox="0 0 64 64" width="512" xmlns="http://www.w3.org/2000/svg"><g><path d="m33.082 23.652-1.082 1.05-1.082-1.05c-.896-.87-2.35-.87-3.246 0s-.896 2.279 0 3.149l4.328 4.199 4.328-4.199c.896-.87.896-2.279 0-3.149-.897-.869-2.35-.869-3.246 0z" fill="#ff8088"/></g><g><path d="m44.354 23c-.443 0-.819-.296-.956-.718-.193-.593-.43-1.165-.709-1.714-.201-.395-.144-.87.169-1.184l1.163-1.163-4.243-4.243-1.163 1.163c-.313.313-.789.37-1.184.169-.548-.279-1.121-.516-1.714-.709-.421-.136-.717-.512-.717-.955v-1.646h-6v1.646c0 .443-.296.819-.718.956-.593.193-1.165.43-1.714.709-.395.201-.87.144-1.184-.169l-1.163-1.163-4.243 4.243 1.163 1.163c.313.313.37.789.169 1.184-.279.548-.516 1.121-.709 1.714-.136.421-.512.717-.955.717h-1.646v6h1.646c.443 0 .819.296.956.718.193.593.43 1.165.709 1.713.201.395.144.87-.169 1.184l-1.163 1.163 4.243 4.243 1.163-1.163c.313-.313.789-.37 1.184-.169.548.279 1.121.516 1.713.709.422.137.718.513.718.956v1.646h6v-1.646c0-.443.296-.819.718-.956.593-.193 1.165-.43 1.713-.709.395-.201.87-.144 1.184.169l1.163 1.163 4.243-4.243-1.163-1.163c-.313-.313-.37-.789-.169-1.184.279-.548.516-1.12.709-1.713.137-.422.513-.718.956-.718h1.646v-6zm-12.354 11c-4.418 0-8-3.582-8-8s3.582-8 8-8 8 3.582 8 8-3.582 8-8 8z" fill="#5a6d80"/></g><path d="m53 42-5.997 2.218 1.498 1.199c-2.51 2.381-5.551 4.224-8.821 5.328l.64 1.895c3.631-1.225 7.004-3.286 9.761-5.959l1.922 1.538z" fill="#758da6"/><path d="m24.32 50.744c-3.27-1.104-6.31-2.946-8.82-5.326l1.5-1.2-5.997-2.218.997 6.218 1.921-1.537c2.756 2.672 6.129 4.732 9.76 5.957z" fill="#758da6"/><g><path d="m55.352 39.441-1.795-.883c1.621-3.296 2.443-6.849 2.443-10.558 0-2.294-.323-4.562-.959-6.743l1.92-.561c.689 2.363 1.039 4.821 1.039 7.304 0 4.019-.891 7.867-2.648 11.441z" fill="#758da6"/></g><g><path d="m20.48 6.938-.96-1.753c3.8-2.083 8.116-3.185 12.48-3.185 4.317 0 8.592 1.079 12.363 3.121l-.952 1.758c-3.479-1.883-7.425-2.879-11.411-2.879-4.029 0-8.012 1.016-11.52 2.938z" fill="#758da6"/></g><g><path d="m8.648 39.441c-1.757-3.574-2.648-7.423-2.648-11.441 0-2.483.35-4.941 1.04-7.305l1.92.561c-.637 2.182-.96 4.45-.96 6.744 0 3.709.822 7.262 2.443 10.559z" fill="#758da6"/></g><g><g><circle cx="10" cy="10" fill="#5b6d80" r="8"/></g></g><g><circle cx="10" cy="9" fill="#83ade6" r="3"/></g><g><g><path d="m13.54 13.17c-.91-.72-2.16-1.17-3.54-1.17-2.76 0-5 1.79-5 4v.24c1.37 1.099 3.107 1.76 5 1.76s3.63-.661 5-1.76v-.24c0-1.1-.56-2.1-1.46-2.83z" fill="#83ade6"/></g></g><g><g><circle cx="54" cy="10" fill="#5b6d80" r="8"/></g></g><g><circle cx="54" cy="9" fill="#83ade6" r="3"/></g><g><g><path d="m57.54 13.17c-.91-.72-2.16-1.17-3.54-1.17-2.76 0-5 1.79-5 4v.24c1.37 1.099 3.107 1.76 5 1.76s3.63-.661 5-1.76v-.24c0-1.1-.56-2.1-1.46-2.83z" fill="#83ade6"/></g></g><g><g><path d="m37 52h-5-5c-2.209 0-4 1.791-4 4v6h18v-6c0-2.209-1.791-4-4-4z" fill="#83ade6"/></g></g><g><g><circle cx="32" cy="47" fill="#83ade6" r="5"/></g></g><g><g><g><path d="m26 56h1v6h-1z" fill="#7499cc"/></g></g></g><g><g><g><path d="m37 56h1v6h-1z" fill="#7499cc"/></g></g></g></svg>