<svg id="Capa_1" enable-background="new 0 0 512 512" height="512" viewBox="0 0 512 512" width="512" xmlns="http://www.w3.org/2000/svg"><g><circle cx="49.286" cy="49.287" fill="#dd636e" r="49.286"/><path d="m49.286 0c-4.191 0-8.259.527-12.144 1.512 21.347 5.41 37.143 24.746 37.143 47.775s-15.795 42.365-37.142 47.774c3.885.984 7.952 1.512 12.144 1.512 27.22 0 49.287-22.066 49.287-49.287s-22.067-49.286-49.288-49.286z" fill="#da4a54"/><path d="m501.785 86.869h-327.491c-5.642 0-10.215-4.574-10.215-10.215v-54.734c0-5.642 4.574-10.215 10.215-10.215h327.491c5.642 0 10.215 4.574 10.215 10.215v54.734c0 5.641-4.574 10.215-10.215 10.215z" fill="#f4fbff"/><path d="m501.785 11.704h-21.118c5.642 0 10.215 4.574 10.215 10.215v54.733c0 5.642-4.574 10.215-10.215 10.215h21.118c5.642 0 10.215-4.574 10.215-10.215v-54.732c0-5.642-4.574-10.216-10.215-10.216z" fill="#e4f6ff"/><circle cx="49.286" cy="187.096" fill="#b3e59f" r="49.286"/><path d="m49.286 137.809c-4.191 0-8.259.527-12.144 1.512 21.347 5.41 37.143 24.746 37.143 47.775s-15.795 42.365-37.142 47.774c3.885.984 7.952 1.512 12.144 1.512 27.22 0 49.287-22.066 49.287-49.286s-22.067-49.287-49.288-49.287z" fill="#95d6a4"/><path d="m501.785 224.678h-327.491c-5.642 0-10.215-4.574-10.215-10.215v-54.734c0-5.642 4.574-10.215 10.215-10.215h327.491c5.642 0 10.215 4.574 10.215 10.215v54.734c0 5.641-4.574 10.215-10.215 10.215z" fill="#f4fbff"/><path d="m501.785 149.513h-21.118c5.642 0 10.215 4.574 10.215 10.215v54.733c0 5.642-4.574 10.215-10.215 10.215h21.118c5.642 0 10.215-4.574 10.215-10.215v-54.733c0-5.641-4.574-10.215-10.215-10.215z" fill="#e4f6ff"/><circle cx="49.286" cy="324.905" fill="#dd636e" r="49.286"/><path d="m49.286 275.618c-4.191 0-8.259.527-12.144 1.512 21.347 5.41 37.143 24.746 37.143 47.775s-15.796 42.365-37.143 47.775c3.885.984 7.952 1.512 12.144 1.512 27.22 0 49.287-22.066 49.287-49.286s-22.066-49.288-49.287-49.288z" fill="#da4a54"/><path d="m501.785 362.487h-327.491c-5.642 0-10.215-4.574-10.215-10.215v-54.734c0-5.642 4.574-10.215 10.215-10.215h327.491c5.642 0 10.215 4.574 10.215 10.215v54.734c0 5.641-4.574 10.215-10.215 10.215z" fill="#f4fbff"/><path d="m501.785 287.322h-21.118c5.642 0 10.215 4.574 10.215 10.215v54.733c0 5.642-4.574 10.215-10.215 10.215h21.118c5.642 0 10.215-4.574 10.215-10.215v-54.733c0-5.641-4.574-10.215-10.215-10.215z" fill="#e4f6ff"/><circle cx="49.286" cy="462.714" fill="#dd636e" r="49.286"/><path d="m49.286 413.427c-4.191 0-8.259.527-12.144 1.512 21.347 5.41 37.143 24.746 37.143 47.775s-15.796 42.365-37.143 47.775c3.885.984 7.952 1.512 12.144 1.512 27.22 0 49.287-22.066 49.287-49.286s-22.066-49.288-49.287-49.288z" fill="#da4a54"/><path d="m501.785 500.296h-327.491c-5.642 0-10.215-4.574-10.215-10.215v-54.734c0-5.642 4.574-10.215 10.215-10.215h327.491c5.642 0 10.215 4.574 10.215 10.215v54.734c0 5.641-4.574 10.215-10.215 10.215z" fill="#f4fbff"/><path d="m501.785 425.131h-21.118c5.642 0 10.215 4.574 10.215 10.215v54.733c0 5.642-4.574 10.215-10.215 10.215h21.118c5.642 0 10.215-4.574 10.215-10.215v-54.733c0-5.641-4.574-10.215-10.215-10.215z" fill="#e4f6ff"/><g><g><path d="m219.569 57.013h-18.966c-4.267 0-7.726-3.459-7.726-7.726s3.459-7.726 7.726-7.726h18.966c4.267 0 7.726 3.459 7.726 7.726s-3.459 7.726-7.726 7.726z" fill="#3b66c1"/></g><g><path d="m219.569 194.822h-18.966c-4.267 0-7.726-3.459-7.726-7.726s3.459-7.726 7.726-7.726h18.966c4.267 0 7.726 3.459 7.726 7.726s-3.459 7.726-7.726 7.726z" fill="#3b66c1"/></g><g><path d="m219.569 332.631h-18.966c-4.267 0-7.726-3.459-7.726-7.726 0-4.268 3.459-7.726 7.726-7.726h18.966c4.267 0 7.726 3.459 7.726 7.726s-3.459 7.726-7.726 7.726z" fill="#3b66c1"/></g><g><path d="m219.569 470.44h-18.966c-4.267 0-7.726-3.459-7.726-7.726 0-4.268 3.459-7.726 7.726-7.726h18.966c4.267 0 7.726 3.459 7.726 7.726s-3.459 7.726-7.726 7.726z" fill="#3b66c1"/></g></g><g><g><path d="m475.475 57.013h-219.458c-4.267 0-7.726-3.459-7.726-7.726s3.459-7.726 7.726-7.726h219.458c4.268 0 7.726 3.459 7.726 7.726s-3.458 7.726-7.726 7.726z" fill="#30579d"/></g><g><path d="m475.475 194.822h-219.458c-4.267 0-7.726-3.459-7.726-7.726s3.459-7.726 7.726-7.726h219.458c4.268 0 7.726 3.459 7.726 7.726s-3.458 7.726-7.726 7.726z" fill="#30579d"/></g><g><path d="m475.475 332.631h-219.458c-4.267 0-7.726-3.459-7.726-7.726 0-4.268 3.459-7.726 7.726-7.726h219.458c4.268 0 7.726 3.459 7.726 7.726.001 4.267-3.458 7.726-7.726 7.726z" fill="#30579d"/></g><g><path d="m475.475 470.44h-219.458c-4.267 0-7.726-3.459-7.726-7.726 0-4.268 3.459-7.726 7.726-7.726h219.458c4.268 0 7.726 3.459 7.726 7.726.001 4.267-3.458 7.726-7.726 7.726z" fill="#30579d"/></g></g></g></svg>