<svg id="Layer_1" enable-background="new 0 0 512 512" viewBox="0 0 512 512" xmlns="http://www.w3.org/2000/svg"><g clip-rule="evenodd" fill-rule="evenodd"><g><path d="m38.259 8.5h435.482c15.585 0 28.336 12.751 28.336 28.335v438.329c0 15.584-12.751 28.335-28.336 28.335h-435.482c-15.585 0-28.336-12.752-28.336-28.335v-438.329c0-15.583 12.751-28.335 28.336-28.335z" fill="#c9f0ff"/><path d="m9.923 80.505h492.154v-43.669c0-15.584-12.751-28.336-28.336-28.336h-435.482c-15.585 0-28.336 12.752-28.336 28.336z" fill="#43a2ff"/><path d="m75.268 37.002c4.142 0 7.5 3.358 7.5 7.5s-3.358 7.5-7.5 7.5h-15.468c-4.142 0-7.5-3.358-7.5-7.5s3.358-7.5 7.5-7.5z" fill="#ff6372"/><path d="m127.277 37.002c4.142 0 7.5 3.358 7.5 7.5s-3.358 7.5-7.5 7.5h-15.469c-4.142 0-7.5-3.358-7.5-7.5s3.358-7.5 7.5-7.5z" fill="#ffd54f"/><path d="m179.286 37.002c4.142 0 7.5 3.358 7.5 7.5s-3.358 7.5-7.5 7.5h-15.469c-4.142 0-7.5-3.358-7.5-7.5s3.358-7.5 7.5-7.5z" fill="#6ce75a"/><path d="m449.071 37.002c4.142 0 7.5 3.358 7.5 7.5s-3.358 7.5-7.5 7.5h-174.92c-4.142 0-7.5-3.358-7.5-7.5s3.358-7.5 7.5-7.5z" fill="#f0f0f0"/></g><g><path d="m56.556 117.519h401.734c3.725 0 6.772 3.048 6.772 6.772v79.219c0 3.724-3.048 6.772-6.772 6.772h-401.734c-3.724 0-6.772-3.048-6.772-6.772v-79.219c-.001-3.724 3.047-6.772 6.772-6.772z" fill="#f0f0f0"/><path d="m426.995 156.401c4.142 0 7.5 3.358 7.5 7.5s-3.358 7.5-7.5 7.5h-155.806c-4.142 0-7.5-3.358-7.5-7.5s3.358-7.5 7.5-7.5zm-204.905 0c4.142 0 7.5 3.358 7.5 7.5s-3.358 7.5-7.5 7.5h-29.217c-4.142 0-7.5-3.358-7.5-7.5s3.358-7.5 7.5-7.5z" fill="#6ce75a"/><path d="m56.556 117.519h98.25v92.764h-98.25c-3.721 0-6.772-3.048-6.772-6.772v-79.219c-.001-3.725 3.047-6.773 6.772-6.773z" fill="#6ce75a"/><path d="m133.627 177.566c3.576 2.071 4.796 6.649 2.725 10.225s-6.649 4.796-10.225 2.725l-12.345-7.127c-4.943 4.804-11.689 7.763-19.126 7.763-7.578 0-14.439-3.072-19.406-8.039s-8.039-11.828-8.039-19.406 3.073-14.439 8.039-19.406c4.967-4.967 11.828-8.039 19.406-8.039s14.439 3.072 19.406 8.039 8.039 11.828 8.039 19.406c0 2.32-.288 4.574-.831 6.726zm-30.17-22.66c-2.251-2.251-5.363-3.644-8.8-3.644s-6.549 1.393-8.8 3.645c-2.251 2.251-3.645 5.363-3.645 8.8s1.393 6.549 3.644 8.8 5.363 3.644 8.801 3.644c3.437 0 6.549-1.393 8.8-3.644s3.644-5.363 3.644-8.8-1.392-6.55-3.644-8.801z" fill="#f0f0f0"/></g><g><path d="m140.833 253.23h24.404c3.477 0 6.322 2.845 6.322 6.322v11.513c0 6.964 3.973 12.909 10.406 15.574 6.434 2.665 13.447 1.27 18.371-3.654l8.141-8.141c2.458-2.458 6.481-2.458 8.94 0l17.257 17.257c2.458 2.458 2.458 6.481 0 8.94l-8.141 8.141c-4.924 4.924-6.319 11.938-3.655 18.371 2.665 6.433 8.611 10.406 15.574 10.406h11.513c3.477 0 6.322 2.845 6.322 6.322v24.404c0 3.477-2.845 6.322-6.322 6.322h-11.513c-6.964 0-12.909 3.973-15.574 10.406-2.665 6.434-1.27 13.447 3.654 18.371l8.141 8.141c2.458 2.458 2.458 6.482 0 8.94l-17.257 17.257c-2.459 2.458-6.482 2.458-8.94 0l-8.141-8.141c-4.924-4.924-11.938-6.319-18.371-3.654s-10.406 8.61-10.406 15.574v11.513c0 3.477-2.845 6.322-6.322 6.322h-24.404c-3.477 0-6.322-2.845-6.322-6.322v-11.514c0-6.964-3.973-12.91-10.406-15.574-6.433-2.665-13.447-1.27-18.371 3.654l-8.141 8.141c-2.458 2.458-6.481 2.458-8.94 0l-17.257-17.257c-2.459-2.459-2.459-6.482 0-8.94l8.141-8.141c4.924-4.924 6.319-11.938 3.654-18.371s-8.611-10.406-15.574-10.406h-11.511c-3.477 0-6.321-2.845-6.321-6.322v-24.404c0-3.477 2.844-6.322 6.321-6.322h11.513c6.964 0 12.91-3.973 15.574-10.406 2.665-6.434 1.27-13.447-3.654-18.371l-8.141-8.141c-2.459-2.458-2.459-6.481 0-8.94l17.257-17.257c2.458-2.458 6.481-2.458 8.94 0l8.141 8.141c4.924 4.924 11.938 6.319 18.371 3.654s10.406-8.611 10.406-15.574v-11.513c-.001-3.476 2.844-6.321 6.321-6.321z" fill="#ffd54f"/><circle cx="153.035" cy="356.482" fill="#f0f0f0" r="44.062"/></g><g><path d="m465.063 254.361c4.142 0 7.5 3.358 7.5 7.5s-3.358 7.5-7.5 7.5h-174.92c-4.142 0-7.5-3.358-7.5-7.5s3.358-7.5 7.5-7.5zm0 189.242c4.142 0 7.5 3.358 7.5 7.5s-3.358 7.5-7.5 7.5h-174.92c-4.142 0-7.5-3.358-7.5-7.5s3.358-7.5 7.5-7.5zm0-63.081c4.142 0 7.5 3.358 7.5 7.5s-3.358 7.5-7.5 7.5h-174.92c-4.142 0-7.5-3.358-7.5-7.5s3.358-7.5 7.5-7.5zm0-63.08c4.142 0 7.5 3.358 7.5 7.5s-3.358 7.5-7.5 7.5h-174.92c-4.142 0-7.5-3.358-7.5-7.5s3.358-7.5 7.5-7.5z" fill="#c8c9cd"/><circle cx="344.602" cy="261.862" fill="#43a2ff" r="17.614"/><ellipse cx="395.014" cy="324.942" fill="#6ce75a" rx="17.613" ry="17.614" transform="matrix(1 -.022 .022 1 -6.966 8.658)"/><ellipse cx="364.809" cy="388.023" fill="#ffd54f" rx="17.613" ry="17.613" transform="matrix(.973 -.23 .23 .973 -79.39 94.196)"/><ellipse cx="427.548" cy="451.103" fill="#ff6372" rx="17.613" ry="17.614" transform="matrix(1 -.022 .022 1 -9.699 9.395)"/></g></g></svg>