<svg id="Layer_1" enable-background="new 0 0 512 512" height="512" viewBox="0 0 512 512" width="512" xmlns="http://www.w3.org/2000/svg"><g clip-rule="evenodd"><g><g fill-rule="evenodd"><ellipse cx="213.727" cy="216.876" fill="#ffe177" rx="205.725" ry="205.725" transform="matrix(.707 -.707 .707 .707 -90.756 214.649)"/><path d="m213.727 11.151c113.618 0 205.725 92.106 205.725 205.725s-92.106 205.725-205.725 205.725c-3.154 0-6.288-.082-9.406-.223 109.251-4.918 196.319-95.037 196.319-205.502s-87.068-200.584-196.32-205.501c3.119-.141 6.253-.224 9.407-.224z" fill="#ffd064"/><circle cx="213.727" cy="216.876" fill="#eceff1" r="160.226"/><path d="m213.727 56.65c3.158 0 6.293.102 9.407.282-84.109 4.871-150.819 74.614-150.819 159.944s66.71 155.073 150.819 159.944c-3.114.18-6.248.282-9.407.282-88.488 0-160.225-71.737-160.225-160.226s71.737-160.226 160.225-160.226z" fill="#d1d1d6"/></g><path d="m213.727 156.255v60.621l40.474 23.367" style="fill:none;stroke:#685e68;stroke-width:16;stroke-linecap:round;stroke-linejoin:round;stroke-miterlimit:2.613"/><path d="m213.727 344.446v-13.828m0-241.312v13.828m90.205 23.537-9.778 9.778m-170.633 170.633 9.778-9.778m-9.778-170.633 9.778 9.778m-47.142 80.427h13.828m241.312 0h-13.828" style="fill:none;stroke:#685e68;stroke-width:16;stroke-linecap:round;stroke-linejoin:round;stroke-miterlimit:2.613"/></g><g fill-rule="evenodd"><path d="m394.151 299.798 20.357.001v-28.086c0-12.647-10.347-22.995-22.994-22.995h-68.65c-12.647 0-22.996 10.348-22.996 22.995v28.087l20.357-.002v-28.084c0-1.411 1.228-2.638 2.639-2.638h68.65c1.411 0 2.637 1.227 2.637 2.638z" fill="#837683"/><path d="m394.151 299.798 20.357.001v-.001l-11.829-.001v-28.085c0-1.411-1.227-2.638-2.638-2.638h-8.527c1.411 0 2.637 1.227 2.637 2.638zm-62.759-51.079h-8.527c-12.647 0-22.996 10.348-22.996 22.995v28.086l8.527-.001v-28.085c0-12.647 10.349-22.995 22.996-22.995z" fill="#685e68"/><path d="m223.463 364.611v114.749c0 11.818 9.67 21.488 21.488 21.488h224.471c11.819 0 21.488-9.67 21.488-21.488v-114.745z" fill="#ecba78"/><path d="m223.463 364.611v114.749c0 11.818 9.669 21.488 21.488 21.488h17.055c-11.819 0-21.488-9.67-21.488-21.488v-114.748z" fill="#e3a76f"/><path d="m484.221 387.566c2.363-1.495 4.612-3.086 6.69-4.792 7.731-6.346 13.087-14.269 13.087-24.67v-52.383c0-6.065-4.947-11.011-11.01-11.011-92.054 0-179.547 0-271.601 0-6.064 0-11.009 4.946-11.009 11.011v52.383c0 10.4 5.357 18.324 13.085 24.669 2.079 1.706 4.328 3.298 6.691 4.793 44.703 28.283 209.69 28.077 254.067 0z" fill="#e3a76f"/><path d="m240.518 294.71h-19.131c-6.064 0-11.009 4.946-11.009 11.01v52.383c0 10.4 5.357 18.324 13.086 24.669 2.078 1.706 4.328 3.298 6.691 4.793 2.95 1.866 6.436 3.605 10.364 5.223v-98.078z" fill="#c48958"/><path d="m280.523 294.71h153.329v35.803c0 7.593-6.212 13.805-13.804 13.805h-125.72c-7.593 0-13.804-6.212-13.804-13.805v-35.803z" fill="#c48958"/><path d="m330.128 412.175c0 14.944 12.115 27.059 27.06 27.059s27.059-12.115 27.059-27.059c0-14.897-12.067-27.059-27.059-27.059-14.992-.001-27.06 12.161-27.06 27.059z" fill="#ffe177"/><path d="m330.128 412.175c0 14.944 12.115 27.059 27.06 27.059 1.451 0 2.875-.115 4.264-.335-12.919-2.045-22.796-13.23-22.796-26.724 0-13.455 9.844-24.677 22.797-26.725-1.388-.219-2.812-.335-4.264-.335-14.993 0-27.061 12.162-27.061 27.06z" fill="#ffd064"/></g></g></svg>